G04 #@! TF.FileFunction,Soldermask,Top*
%FSLAX46Y46*%
G04 Gerber Fmt 4.6, Leading zero omitted, Abs format (unit mm)*
G04 Created by KiCad (PCBNEW 4.0.4-stable) date 01/17/17 23:29:47*
%MOMM*%
%LPD*%
G01*
G04 APERTURE LIST*
%ADD10C,0.150000*%
G04 APERTURE END LIST*
D10*
G36*
X10000000Y-46870000D02*
X7700000Y-46870000D01*
X7700000Y-44570000D01*
X10000000Y-44570000D01*
X10000000Y-46870000D01*
X10000000Y-46870000D01*
G37*
G36*
X15050000Y-46870000D02*
X10350000Y-46870000D01*
X10350000Y-44570000D01*
X15050000Y-44570000D01*
X15050000Y-46870000D01*
X15050000Y-46870000D01*
G37*
G36*
X17700000Y-46870000D02*
X15400000Y-46870000D01*
X15400000Y-44570000D01*
X17700000Y-44570000D01*
X17700000Y-46870000D01*
X17700000Y-46870000D01*
G37*
G36*
X17050000Y-44170000D02*
X14550000Y-44170000D01*
X14550000Y-44020000D01*
X14546041Y-43992141D01*
X14534477Y-43966487D01*
X14516224Y-43945071D01*
X14492728Y-43929588D01*
X14465848Y-43921264D01*
X14450000Y-43920000D01*
X10950000Y-43920000D01*
X10922141Y-43923959D01*
X10896487Y-43935523D01*
X10875071Y-43953776D01*
X10859588Y-43977272D01*
X10851264Y-44004152D01*
X10850000Y-44020000D01*
X10850000Y-44170000D01*
X8350000Y-44170000D01*
X8350000Y-42170000D01*
X17050000Y-42170000D01*
X17050000Y-44170000D01*
X17050000Y-44170000D01*
G37*
G36*
X39724531Y-41250596D02*
X39897429Y-41286086D01*
X40060135Y-41354481D01*
X40206462Y-41453180D01*
X40330828Y-41578417D01*
X40428500Y-41725427D01*
X40495761Y-41888612D01*
X40529906Y-42061061D01*
X40529906Y-42061077D01*
X40530039Y-42061750D01*
X40527224Y-42263346D01*
X40527073Y-42264009D01*
X40527073Y-42264033D01*
X40488125Y-42435462D01*
X40416337Y-42596698D01*
X40314594Y-42740929D01*
X40186779Y-42862645D01*
X40037754Y-42957219D01*
X39873204Y-43021044D01*
X39699380Y-43051694D01*
X39522919Y-43047997D01*
X39350538Y-43010098D01*
X39188800Y-42939436D01*
X39043868Y-42838705D01*
X38921260Y-42711742D01*
X38825648Y-42563380D01*
X38760674Y-42399274D01*
X38728812Y-42225674D01*
X38731276Y-42049195D01*
X38767973Y-41876550D01*
X38837505Y-41714319D01*
X38937222Y-41568688D01*
X39063325Y-41445198D01*
X39211012Y-41348554D01*
X39374659Y-41282436D01*
X39548035Y-41249363D01*
X39724531Y-41250596D01*
X39724531Y-41250596D01*
G37*
G36*
X35644531Y-41250596D02*
X35817429Y-41286086D01*
X35980135Y-41354481D01*
X36126462Y-41453180D01*
X36250828Y-41578417D01*
X36348500Y-41725427D01*
X36415761Y-41888612D01*
X36449906Y-42061061D01*
X36449906Y-42061077D01*
X36450039Y-42061750D01*
X36447224Y-42263346D01*
X36447073Y-42264009D01*
X36447073Y-42264033D01*
X36408125Y-42435462D01*
X36336337Y-42596698D01*
X36234594Y-42740929D01*
X36106779Y-42862645D01*
X35957754Y-42957219D01*
X35793204Y-43021044D01*
X35619380Y-43051694D01*
X35442919Y-43047997D01*
X35270538Y-43010098D01*
X35108800Y-42939436D01*
X34963868Y-42838705D01*
X34841260Y-42711742D01*
X34745648Y-42563380D01*
X34680674Y-42399274D01*
X34648812Y-42225674D01*
X34651276Y-42049195D01*
X34687973Y-41876550D01*
X34757505Y-41714319D01*
X34857222Y-41568688D01*
X34983325Y-41445198D01*
X35131012Y-41348554D01*
X35294659Y-41282436D01*
X35468035Y-41249363D01*
X35644531Y-41250596D01*
X35644531Y-41250596D01*
G37*
G36*
X65124531Y-41250596D02*
X65297429Y-41286086D01*
X65460135Y-41354481D01*
X65606462Y-41453180D01*
X65730828Y-41578417D01*
X65828500Y-41725427D01*
X65895761Y-41888612D01*
X65929906Y-42061061D01*
X65929906Y-42061077D01*
X65930039Y-42061750D01*
X65927224Y-42263346D01*
X65927073Y-42264009D01*
X65927073Y-42264033D01*
X65888125Y-42435462D01*
X65816337Y-42596698D01*
X65714594Y-42740929D01*
X65586779Y-42862645D01*
X65437754Y-42957219D01*
X65273204Y-43021044D01*
X65099380Y-43051694D01*
X64922919Y-43047997D01*
X64750538Y-43010098D01*
X64588800Y-42939436D01*
X64443868Y-42838705D01*
X64321260Y-42711742D01*
X64225648Y-42563380D01*
X64160674Y-42399274D01*
X64128812Y-42225674D01*
X64131276Y-42049195D01*
X64167973Y-41876550D01*
X64237505Y-41714319D01*
X64337222Y-41568688D01*
X64463325Y-41445198D01*
X64611012Y-41348554D01*
X64774659Y-41282436D01*
X64948035Y-41249363D01*
X65124531Y-41250596D01*
X65124531Y-41250596D01*
G37*
G36*
X63084531Y-41250596D02*
X63257429Y-41286086D01*
X63420135Y-41354481D01*
X63566462Y-41453180D01*
X63690828Y-41578417D01*
X63788500Y-41725427D01*
X63855761Y-41888612D01*
X63889906Y-42061061D01*
X63889906Y-42061077D01*
X63890039Y-42061750D01*
X63887224Y-42263346D01*
X63887073Y-42264009D01*
X63887073Y-42264033D01*
X63848125Y-42435462D01*
X63776337Y-42596698D01*
X63674594Y-42740929D01*
X63546779Y-42862645D01*
X63397754Y-42957219D01*
X63233204Y-43021044D01*
X63059380Y-43051694D01*
X62882919Y-43047997D01*
X62710538Y-43010098D01*
X62548800Y-42939436D01*
X62403868Y-42838705D01*
X62281260Y-42711742D01*
X62185648Y-42563380D01*
X62120674Y-42399274D01*
X62088812Y-42225674D01*
X62091276Y-42049195D01*
X62127973Y-41876550D01*
X62197505Y-41714319D01*
X62297222Y-41568688D01*
X62423325Y-41445198D01*
X62571012Y-41348554D01*
X62734659Y-41282436D01*
X62908035Y-41249363D01*
X63084531Y-41250596D01*
X63084531Y-41250596D01*
G37*
G36*
X61044531Y-41250596D02*
X61217429Y-41286086D01*
X61380135Y-41354481D01*
X61526462Y-41453180D01*
X61650828Y-41578417D01*
X61748500Y-41725427D01*
X61815761Y-41888612D01*
X61849906Y-42061061D01*
X61849906Y-42061077D01*
X61850039Y-42061750D01*
X61847224Y-42263346D01*
X61847073Y-42264009D01*
X61847073Y-42264033D01*
X61808125Y-42435462D01*
X61736337Y-42596698D01*
X61634594Y-42740929D01*
X61506779Y-42862645D01*
X61357754Y-42957219D01*
X61193204Y-43021044D01*
X61019380Y-43051694D01*
X60842919Y-43047997D01*
X60670538Y-43010098D01*
X60508800Y-42939436D01*
X60363868Y-42838705D01*
X60241260Y-42711742D01*
X60145648Y-42563380D01*
X60080674Y-42399274D01*
X60048812Y-42225674D01*
X60051276Y-42049195D01*
X60087973Y-41876550D01*
X60157505Y-41714319D01*
X60257222Y-41568688D01*
X60383325Y-41445198D01*
X60531012Y-41348554D01*
X60694659Y-41282436D01*
X60868035Y-41249363D01*
X61044531Y-41250596D01*
X61044531Y-41250596D01*
G37*
G36*
X37684531Y-41250596D02*
X37857429Y-41286086D01*
X38020135Y-41354481D01*
X38166462Y-41453180D01*
X38290828Y-41578417D01*
X38388500Y-41725427D01*
X38455761Y-41888612D01*
X38489906Y-42061061D01*
X38489906Y-42061077D01*
X38490039Y-42061750D01*
X38487224Y-42263346D01*
X38487073Y-42264009D01*
X38487073Y-42264033D01*
X38448125Y-42435462D01*
X38376337Y-42596698D01*
X38274594Y-42740929D01*
X38146779Y-42862645D01*
X37997754Y-42957219D01*
X37833204Y-43021044D01*
X37659380Y-43051694D01*
X37482919Y-43047997D01*
X37310538Y-43010098D01*
X37148800Y-42939436D01*
X37003868Y-42838705D01*
X36881260Y-42711742D01*
X36785648Y-42563380D01*
X36720674Y-42399274D01*
X36688812Y-42225674D01*
X36691276Y-42049195D01*
X36727973Y-41876550D01*
X36797505Y-41714319D01*
X36897222Y-41568688D01*
X37023325Y-41445198D01*
X37171012Y-41348554D01*
X37334659Y-41282436D01*
X37508035Y-41249363D01*
X37684531Y-41250596D01*
X37684531Y-41250596D01*
G37*
G36*
X9471000Y-40827300D02*
X8309000Y-40827300D01*
X8309000Y-39538300D01*
X9471000Y-39538300D01*
X9471000Y-40827300D01*
X9471000Y-40827300D01*
G37*
G36*
X36664531Y-38710596D02*
X36837429Y-38746086D01*
X37000135Y-38814481D01*
X37146462Y-38913180D01*
X37270828Y-39038417D01*
X37368500Y-39185427D01*
X37435761Y-39348612D01*
X37469906Y-39521061D01*
X37469906Y-39521077D01*
X37470039Y-39521750D01*
X37467224Y-39723346D01*
X37467073Y-39724009D01*
X37467073Y-39724033D01*
X37428125Y-39895462D01*
X37356337Y-40056698D01*
X37254594Y-40200929D01*
X37126779Y-40322645D01*
X36977754Y-40417219D01*
X36813204Y-40481044D01*
X36639380Y-40511694D01*
X36462919Y-40507997D01*
X36290538Y-40470098D01*
X36128800Y-40399436D01*
X35983868Y-40298705D01*
X35861260Y-40171742D01*
X35765648Y-40023380D01*
X35700674Y-39859274D01*
X35668812Y-39685674D01*
X35671276Y-39509195D01*
X35707973Y-39336550D01*
X35777505Y-39174319D01*
X35877222Y-39028688D01*
X36003325Y-38905198D01*
X36151012Y-38808554D01*
X36314659Y-38742436D01*
X36488035Y-38709363D01*
X36664531Y-38710596D01*
X36664531Y-38710596D01*
G37*
G36*
X38704531Y-38710596D02*
X38877429Y-38746086D01*
X39040135Y-38814481D01*
X39186462Y-38913180D01*
X39310828Y-39038417D01*
X39408500Y-39185427D01*
X39475761Y-39348612D01*
X39509906Y-39521061D01*
X39509906Y-39521077D01*
X39510039Y-39521750D01*
X39507224Y-39723346D01*
X39507073Y-39724009D01*
X39507073Y-39724033D01*
X39468125Y-39895462D01*
X39396337Y-40056698D01*
X39294594Y-40200929D01*
X39166779Y-40322645D01*
X39017754Y-40417219D01*
X38853204Y-40481044D01*
X38679380Y-40511694D01*
X38502919Y-40507997D01*
X38330538Y-40470098D01*
X38168800Y-40399436D01*
X38023868Y-40298705D01*
X37901260Y-40171742D01*
X37805648Y-40023380D01*
X37740674Y-39859274D01*
X37708812Y-39685674D01*
X37711276Y-39509195D01*
X37747973Y-39336550D01*
X37817505Y-39174319D01*
X37917222Y-39028688D01*
X38043325Y-38905198D01*
X38191012Y-38808554D01*
X38354659Y-38742436D01*
X38528035Y-38709363D01*
X38704531Y-38710596D01*
X38704531Y-38710596D01*
G37*
G36*
X40744531Y-38710596D02*
X40917429Y-38746086D01*
X41080135Y-38814481D01*
X41226462Y-38913180D01*
X41350828Y-39038417D01*
X41448500Y-39185427D01*
X41515761Y-39348612D01*
X41549906Y-39521061D01*
X41549906Y-39521077D01*
X41550039Y-39521750D01*
X41547224Y-39723346D01*
X41547073Y-39724009D01*
X41547073Y-39724033D01*
X41508125Y-39895462D01*
X41436337Y-40056698D01*
X41334594Y-40200929D01*
X41206779Y-40322645D01*
X41057754Y-40417219D01*
X40893204Y-40481044D01*
X40719380Y-40511694D01*
X40542919Y-40507997D01*
X40370538Y-40470098D01*
X40208800Y-40399436D01*
X40063868Y-40298705D01*
X39941260Y-40171742D01*
X39845648Y-40023380D01*
X39780674Y-39859274D01*
X39748812Y-39685674D01*
X39751276Y-39509195D01*
X39787973Y-39336550D01*
X39857505Y-39174319D01*
X39957222Y-39028688D01*
X40083325Y-38905198D01*
X40231012Y-38808554D01*
X40394659Y-38742436D01*
X40568035Y-38709363D01*
X40744531Y-38710596D01*
X40744531Y-38710596D01*
G37*
G36*
X62064531Y-38710596D02*
X62237429Y-38746086D01*
X62400135Y-38814481D01*
X62546462Y-38913180D01*
X62670828Y-39038417D01*
X62768500Y-39185427D01*
X62835761Y-39348612D01*
X62869906Y-39521061D01*
X62869906Y-39521077D01*
X62870039Y-39521750D01*
X62867224Y-39723346D01*
X62867073Y-39724009D01*
X62867073Y-39724033D01*
X62828125Y-39895462D01*
X62756337Y-40056698D01*
X62654594Y-40200929D01*
X62526779Y-40322645D01*
X62377754Y-40417219D01*
X62213204Y-40481044D01*
X62039380Y-40511694D01*
X61862919Y-40507997D01*
X61690538Y-40470098D01*
X61528800Y-40399436D01*
X61383868Y-40298705D01*
X61261260Y-40171742D01*
X61165648Y-40023380D01*
X61100674Y-39859274D01*
X61068812Y-39685674D01*
X61071276Y-39509195D01*
X61107973Y-39336550D01*
X61177505Y-39174319D01*
X61277222Y-39028688D01*
X61403325Y-38905198D01*
X61551012Y-38808554D01*
X61714659Y-38742436D01*
X61888035Y-38709363D01*
X62064531Y-38710596D01*
X62064531Y-38710596D01*
G37*
G36*
X64104531Y-38710596D02*
X64277429Y-38746086D01*
X64440135Y-38814481D01*
X64586462Y-38913180D01*
X64710828Y-39038417D01*
X64808500Y-39185427D01*
X64875761Y-39348612D01*
X64909906Y-39521061D01*
X64909906Y-39521077D01*
X64910039Y-39521750D01*
X64907224Y-39723346D01*
X64907073Y-39724009D01*
X64907073Y-39724033D01*
X64868125Y-39895462D01*
X64796337Y-40056698D01*
X64694594Y-40200929D01*
X64566779Y-40322645D01*
X64417754Y-40417219D01*
X64253204Y-40481044D01*
X64079380Y-40511694D01*
X63902919Y-40507997D01*
X63730538Y-40470098D01*
X63568800Y-40399436D01*
X63423868Y-40298705D01*
X63301260Y-40171742D01*
X63205648Y-40023380D01*
X63140674Y-39859274D01*
X63108812Y-39685674D01*
X63111276Y-39509195D01*
X63147973Y-39336550D01*
X63217505Y-39174319D01*
X63317222Y-39028688D01*
X63443325Y-38905198D01*
X63591012Y-38808554D01*
X63754659Y-38742436D01*
X63928035Y-38709363D01*
X64104531Y-38710596D01*
X64104531Y-38710596D01*
G37*
G36*
X66144531Y-38710596D02*
X66317429Y-38746086D01*
X66480135Y-38814481D01*
X66626462Y-38913180D01*
X66750828Y-39038417D01*
X66848500Y-39185427D01*
X66915761Y-39348612D01*
X66949906Y-39521061D01*
X66949906Y-39521077D01*
X66950039Y-39521750D01*
X66947224Y-39723346D01*
X66947073Y-39724009D01*
X66947073Y-39724033D01*
X66908125Y-39895462D01*
X66836337Y-40056698D01*
X66734594Y-40200929D01*
X66606779Y-40322645D01*
X66457754Y-40417219D01*
X66293204Y-40481044D01*
X66119380Y-40511694D01*
X65942919Y-40507997D01*
X65770538Y-40470098D01*
X65608800Y-40399436D01*
X65463868Y-40298705D01*
X65341260Y-40171742D01*
X65245648Y-40023380D01*
X65180674Y-39859274D01*
X65148812Y-39685674D01*
X65151276Y-39509195D01*
X65187973Y-39336550D01*
X65257505Y-39174319D01*
X65357222Y-39028688D01*
X65483325Y-38905198D01*
X65631012Y-38808554D01*
X65794659Y-38742436D01*
X65968035Y-38709363D01*
X66144531Y-38710596D01*
X66144531Y-38710596D01*
G37*
G36*
X9471000Y-39201700D02*
X8309000Y-39201700D01*
X8309000Y-37912700D01*
X9471000Y-37912700D01*
X9471000Y-39201700D01*
X9471000Y-39201700D01*
G37*
G36*
X22959783Y-37150629D02*
X23142286Y-37188091D01*
X23314031Y-37260286D01*
X23468488Y-37364468D01*
X23599763Y-37496663D01*
X23702862Y-37651839D01*
X23773859Y-37824090D01*
X23809909Y-38006158D01*
X23809909Y-38006180D01*
X23810041Y-38006848D01*
X23807070Y-38219643D01*
X23806918Y-38220311D01*
X23806918Y-38220330D01*
X23765798Y-38401319D01*
X23690020Y-38571521D01*
X23582630Y-38723755D01*
X23447711Y-38852236D01*
X23290408Y-38952064D01*
X23116712Y-39019437D01*
X22933236Y-39051788D01*
X22746970Y-39047886D01*
X22565013Y-39007881D01*
X22394289Y-38933293D01*
X22241305Y-38826967D01*
X22111886Y-38692949D01*
X22010963Y-38536346D01*
X21942377Y-38363121D01*
X21908746Y-38179878D01*
X21911347Y-37993594D01*
X21950083Y-37811358D01*
X22023477Y-37640115D01*
X22128734Y-37486393D01*
X22261843Y-37356042D01*
X22417737Y-37254028D01*
X22590472Y-37184238D01*
X22773481Y-37149327D01*
X22959783Y-37150629D01*
X22959783Y-37150629D01*
G37*
G36*
X20419783Y-37150629D02*
X20602286Y-37188091D01*
X20774031Y-37260286D01*
X20928488Y-37364468D01*
X21059763Y-37496663D01*
X21162862Y-37651839D01*
X21233859Y-37824090D01*
X21269909Y-38006158D01*
X21269909Y-38006180D01*
X21270041Y-38006848D01*
X21267070Y-38219643D01*
X21266918Y-38220311D01*
X21266918Y-38220330D01*
X21225798Y-38401319D01*
X21150020Y-38571521D01*
X21042630Y-38723755D01*
X20907711Y-38852236D01*
X20750408Y-38952064D01*
X20576712Y-39019437D01*
X20393236Y-39051788D01*
X20206970Y-39047886D01*
X20025013Y-39007881D01*
X19854289Y-38933293D01*
X19701305Y-38826967D01*
X19571886Y-38692949D01*
X19470963Y-38536346D01*
X19402377Y-38363121D01*
X19368746Y-38179878D01*
X19371347Y-37993594D01*
X19410083Y-37811358D01*
X19483477Y-37640115D01*
X19588734Y-37486393D01*
X19721843Y-37356042D01*
X19877737Y-37254028D01*
X20050472Y-37184238D01*
X20233481Y-37149327D01*
X20419783Y-37150629D01*
X20419783Y-37150629D01*
G37*
G36*
X18730000Y-39050000D02*
X16830000Y-39050000D01*
X16830000Y-37150000D01*
X18730000Y-37150000D01*
X18730000Y-39050000D01*
X18730000Y-39050000D01*
G37*
G36*
X48447300Y-36776000D02*
X47158300Y-36776000D01*
X47158300Y-35614000D01*
X48447300Y-35614000D01*
X48447300Y-36776000D01*
X48447300Y-36776000D01*
G37*
G36*
X46821700Y-36776000D02*
X45532700Y-36776000D01*
X45532700Y-35614000D01*
X46821700Y-35614000D01*
X46821700Y-36776000D01*
X46821700Y-36776000D01*
G37*
G36*
X10219783Y-33340629D02*
X10402286Y-33378091D01*
X10574031Y-33450286D01*
X10728488Y-33554468D01*
X10859763Y-33686663D01*
X10962862Y-33841839D01*
X11033859Y-34014090D01*
X11069909Y-34196158D01*
X11069909Y-34196180D01*
X11070041Y-34196848D01*
X11067070Y-34409643D01*
X11066918Y-34410311D01*
X11066918Y-34410330D01*
X11025798Y-34591319D01*
X10950020Y-34761521D01*
X10842630Y-34913755D01*
X10707711Y-35042236D01*
X10550408Y-35142064D01*
X10376712Y-35209437D01*
X10193236Y-35241788D01*
X10006970Y-35237886D01*
X9825013Y-35197881D01*
X9654289Y-35123293D01*
X9501305Y-35016967D01*
X9371886Y-34882949D01*
X9270963Y-34726346D01*
X9202377Y-34553121D01*
X9168746Y-34369878D01*
X9171347Y-34183594D01*
X9210083Y-34001358D01*
X9283477Y-33830115D01*
X9388734Y-33676393D01*
X9521843Y-33546042D01*
X9677737Y-33444028D01*
X9850472Y-33374238D01*
X10033481Y-33339327D01*
X10219783Y-33340629D01*
X10219783Y-33340629D01*
G37*
G36*
X8570000Y-35240000D02*
X6670000Y-35240000D01*
X6670000Y-33340000D01*
X8570000Y-33340000D01*
X8570000Y-35240000D01*
X8570000Y-35240000D01*
G37*
G36*
X69046700Y-34871000D02*
X67757700Y-34871000D01*
X67757700Y-33709000D01*
X69046700Y-33709000D01*
X69046700Y-34871000D01*
X69046700Y-34871000D01*
G37*
G36*
X70672300Y-34871000D02*
X69383300Y-34871000D01*
X69383300Y-33709000D01*
X70672300Y-33709000D01*
X70672300Y-34871000D01*
X70672300Y-34871000D01*
G37*
G36*
X42732300Y-34871000D02*
X41443300Y-34871000D01*
X41443300Y-33709000D01*
X42732300Y-33709000D01*
X42732300Y-34871000D01*
X42732300Y-34871000D01*
G37*
G36*
X41106700Y-34871000D02*
X39817700Y-34871000D01*
X39817700Y-33709000D01*
X41106700Y-33709000D01*
X41106700Y-34871000D01*
X41106700Y-34871000D01*
G37*
G36*
X66494000Y-34604300D02*
X65332000Y-34604300D01*
X65332000Y-33315300D01*
X66494000Y-33315300D01*
X66494000Y-34604300D01*
X66494000Y-34604300D01*
G37*
G36*
X59128000Y-34604300D02*
X57966000Y-34604300D01*
X57966000Y-33315300D01*
X59128000Y-33315300D01*
X59128000Y-34604300D01*
X59128000Y-34604300D01*
G37*
G36*
X19920000Y-34470000D02*
X18220000Y-34470000D01*
X18220000Y-31570000D01*
X19920000Y-31570000D01*
X19920000Y-34470000D01*
X19920000Y-34470000D01*
G37*
G36*
X22420000Y-34470000D02*
X20720000Y-34470000D01*
X20720000Y-33470000D01*
X22420000Y-33470000D01*
X22420000Y-34470000D01*
X22420000Y-34470000D01*
G37*
G36*
X63599783Y-32070629D02*
X63782286Y-32108091D01*
X63954031Y-32180286D01*
X64108488Y-32284468D01*
X64239763Y-32416663D01*
X64342862Y-32571839D01*
X64413859Y-32744090D01*
X64449909Y-32926158D01*
X64449909Y-32926180D01*
X64450041Y-32926848D01*
X64447070Y-33139643D01*
X64446918Y-33140311D01*
X64446918Y-33140330D01*
X64405798Y-33321319D01*
X64330020Y-33491521D01*
X64222630Y-33643755D01*
X64087711Y-33772236D01*
X63930408Y-33872064D01*
X63756712Y-33939437D01*
X63573236Y-33971788D01*
X63386970Y-33967886D01*
X63205013Y-33927881D01*
X63034289Y-33853293D01*
X62881305Y-33746967D01*
X62751886Y-33612949D01*
X62650963Y-33456346D01*
X62582377Y-33283121D01*
X62548746Y-33099878D01*
X62551347Y-32913594D01*
X62590083Y-32731358D01*
X62663477Y-32560115D01*
X62768734Y-32406393D01*
X62901843Y-32276042D01*
X63057737Y-32174028D01*
X63230472Y-32104238D01*
X63413481Y-32069327D01*
X63599783Y-32070629D01*
X63599783Y-32070629D01*
G37*
G36*
X61059783Y-32070629D02*
X61242286Y-32108091D01*
X61414031Y-32180286D01*
X61568488Y-32284468D01*
X61699763Y-32416663D01*
X61802862Y-32571839D01*
X61873859Y-32744090D01*
X61909909Y-32926158D01*
X61909909Y-32926180D01*
X61910041Y-32926848D01*
X61907070Y-33139643D01*
X61906918Y-33140311D01*
X61906918Y-33140330D01*
X61865798Y-33321319D01*
X61790020Y-33491521D01*
X61682630Y-33643755D01*
X61547711Y-33772236D01*
X61390408Y-33872064D01*
X61216712Y-33939437D01*
X61033236Y-33971788D01*
X60846970Y-33967886D01*
X60665013Y-33927881D01*
X60494289Y-33853293D01*
X60341305Y-33746967D01*
X60211886Y-33612949D01*
X60110963Y-33456346D01*
X60042377Y-33283121D01*
X60008746Y-33099878D01*
X60011347Y-32913594D01*
X60050083Y-32731358D01*
X60123477Y-32560115D01*
X60228734Y-32406393D01*
X60361843Y-32276042D01*
X60517737Y-32174028D01*
X60690472Y-32104238D01*
X60873481Y-32069327D01*
X61059783Y-32070629D01*
X61059783Y-32070629D01*
G37*
G36*
X48359783Y-32070629D02*
X48542286Y-32108091D01*
X48714031Y-32180286D01*
X48868488Y-32284468D01*
X48999763Y-32416663D01*
X49102862Y-32571839D01*
X49173859Y-32744090D01*
X49209909Y-32926158D01*
X49209909Y-32926180D01*
X49210041Y-32926848D01*
X49207070Y-33139643D01*
X49206918Y-33140311D01*
X49206918Y-33140330D01*
X49165798Y-33321319D01*
X49090020Y-33491521D01*
X48982630Y-33643755D01*
X48847711Y-33772236D01*
X48690408Y-33872064D01*
X48516712Y-33939437D01*
X48333236Y-33971788D01*
X48146970Y-33967886D01*
X47965013Y-33927881D01*
X47794289Y-33853293D01*
X47641305Y-33746967D01*
X47511886Y-33612949D01*
X47410963Y-33456346D01*
X47342377Y-33283121D01*
X47308746Y-33099878D01*
X47311347Y-32913594D01*
X47350083Y-32731358D01*
X47423477Y-32560115D01*
X47528734Y-32406393D01*
X47661843Y-32276042D01*
X47817737Y-32174028D01*
X47990472Y-32104238D01*
X48173481Y-32069327D01*
X48359783Y-32070629D01*
X48359783Y-32070629D01*
G37*
G36*
X45819783Y-32070629D02*
X46002286Y-32108091D01*
X46174031Y-32180286D01*
X46328488Y-32284468D01*
X46459763Y-32416663D01*
X46562862Y-32571839D01*
X46633859Y-32744090D01*
X46669909Y-32926158D01*
X46669909Y-32926180D01*
X46670041Y-32926848D01*
X46667070Y-33139643D01*
X46666918Y-33140311D01*
X46666918Y-33140330D01*
X46625798Y-33321319D01*
X46550020Y-33491521D01*
X46442630Y-33643755D01*
X46307711Y-33772236D01*
X46150408Y-33872064D01*
X45976712Y-33939437D01*
X45793236Y-33971788D01*
X45606970Y-33967886D01*
X45425013Y-33927881D01*
X45254289Y-33853293D01*
X45101305Y-33746967D01*
X44971886Y-33612949D01*
X44870963Y-33456346D01*
X44802377Y-33283121D01*
X44768746Y-33099878D01*
X44771347Y-32913594D01*
X44810083Y-32731358D01*
X44883477Y-32560115D01*
X44988734Y-32406393D01*
X45121843Y-32276042D01*
X45277737Y-32174028D01*
X45450472Y-32104238D01*
X45633481Y-32069327D01*
X45819783Y-32070629D01*
X45819783Y-32070629D01*
G37*
G36*
X30311700Y-33601000D02*
X29022700Y-33601000D01*
X29022700Y-32439000D01*
X30311700Y-32439000D01*
X30311700Y-33601000D01*
X30311700Y-33601000D01*
G37*
G36*
X31937300Y-33601000D02*
X30648300Y-33601000D01*
X30648300Y-32439000D01*
X31937300Y-32439000D01*
X31937300Y-33601000D01*
X31937300Y-33601000D01*
G37*
G36*
X59128000Y-32978700D02*
X57966000Y-32978700D01*
X57966000Y-31689700D01*
X59128000Y-31689700D01*
X59128000Y-32978700D01*
X59128000Y-32978700D01*
G37*
G36*
X66494000Y-32978700D02*
X65332000Y-32978700D01*
X65332000Y-31689700D01*
X66494000Y-31689700D01*
X66494000Y-32978700D01*
X66494000Y-32978700D01*
G37*
G36*
X42732300Y-32966000D02*
X41443300Y-32966000D01*
X41443300Y-31804000D01*
X42732300Y-31804000D01*
X42732300Y-32966000D01*
X42732300Y-32966000D01*
G37*
G36*
X41106700Y-32966000D02*
X39817700Y-32966000D01*
X39817700Y-31804000D01*
X41106700Y-31804000D01*
X41106700Y-32966000D01*
X41106700Y-32966000D01*
G37*
G36*
X22420000Y-32570000D02*
X20720000Y-32570000D01*
X20720000Y-31570000D01*
X22420000Y-31570000D01*
X22420000Y-32570000D01*
X22420000Y-32570000D01*
G37*
G36*
X15071700Y-32331000D02*
X13782700Y-32331000D01*
X13782700Y-31169000D01*
X15071700Y-31169000D01*
X15071700Y-32331000D01*
X15071700Y-32331000D01*
G37*
G36*
X16697300Y-32331000D02*
X15408300Y-32331000D01*
X15408300Y-31169000D01*
X16697300Y-31169000D01*
X16697300Y-32331000D01*
X16697300Y-32331000D01*
G37*
G36*
X33620000Y-31540000D02*
X23530000Y-31540000D01*
X23530000Y-29640000D01*
X33620000Y-29640000D01*
X33620000Y-31540000D01*
X33620000Y-31540000D01*
G37*
G36*
X61059783Y-29530629D02*
X61242286Y-29568091D01*
X61414031Y-29640286D01*
X61568488Y-29744468D01*
X61699763Y-29876663D01*
X61802862Y-30031839D01*
X61873859Y-30204090D01*
X61909909Y-30386158D01*
X61909909Y-30386180D01*
X61910041Y-30386848D01*
X61907070Y-30599643D01*
X61906918Y-30600311D01*
X61906918Y-30600330D01*
X61865798Y-30781319D01*
X61790020Y-30951521D01*
X61682630Y-31103755D01*
X61547711Y-31232236D01*
X61390408Y-31332064D01*
X61216712Y-31399437D01*
X61033236Y-31431788D01*
X60846970Y-31427886D01*
X60665013Y-31387881D01*
X60494289Y-31313293D01*
X60341305Y-31206967D01*
X60211886Y-31072949D01*
X60110963Y-30916346D01*
X60042377Y-30743121D01*
X60008746Y-30559878D01*
X60011347Y-30373594D01*
X60050083Y-30191358D01*
X60123477Y-30020115D01*
X60228734Y-29866393D01*
X60361843Y-29736042D01*
X60517737Y-29634028D01*
X60690472Y-29564238D01*
X60873481Y-29529327D01*
X61059783Y-29530629D01*
X61059783Y-29530629D01*
G37*
G36*
X48359783Y-29530629D02*
X48542286Y-29568091D01*
X48714031Y-29640286D01*
X48868488Y-29744468D01*
X48999763Y-29876663D01*
X49102862Y-30031839D01*
X49173859Y-30204090D01*
X49209909Y-30386158D01*
X49209909Y-30386180D01*
X49210041Y-30386848D01*
X49207070Y-30599643D01*
X49206918Y-30600311D01*
X49206918Y-30600330D01*
X49165798Y-30781319D01*
X49090020Y-30951521D01*
X48982630Y-31103755D01*
X48847711Y-31232236D01*
X48690408Y-31332064D01*
X48516712Y-31399437D01*
X48333236Y-31431788D01*
X48146970Y-31427886D01*
X47965013Y-31387881D01*
X47794289Y-31313293D01*
X47641305Y-31206967D01*
X47511886Y-31072949D01*
X47410963Y-30916346D01*
X47342377Y-30743121D01*
X47308746Y-30559878D01*
X47311347Y-30373594D01*
X47350083Y-30191358D01*
X47423477Y-30020115D01*
X47528734Y-29866393D01*
X47661843Y-29736042D01*
X47817737Y-29634028D01*
X47990472Y-29564238D01*
X48173481Y-29529327D01*
X48359783Y-29530629D01*
X48359783Y-29530629D01*
G37*
G36*
X63599783Y-29530629D02*
X63782286Y-29568091D01*
X63954031Y-29640286D01*
X64108488Y-29744468D01*
X64239763Y-29876663D01*
X64342862Y-30031839D01*
X64413859Y-30204090D01*
X64449909Y-30386158D01*
X64449909Y-30386180D01*
X64450041Y-30386848D01*
X64447070Y-30599643D01*
X64446918Y-30600311D01*
X64446918Y-30600330D01*
X64405798Y-30781319D01*
X64330020Y-30951521D01*
X64222630Y-31103755D01*
X64087711Y-31232236D01*
X63930408Y-31332064D01*
X63756712Y-31399437D01*
X63573236Y-31431788D01*
X63386970Y-31427886D01*
X63205013Y-31387881D01*
X63034289Y-31313293D01*
X62881305Y-31206967D01*
X62751886Y-31072949D01*
X62650963Y-30916346D01*
X62582377Y-30743121D01*
X62548746Y-30559878D01*
X62551347Y-30373594D01*
X62590083Y-30191358D01*
X62663477Y-30020115D01*
X62768734Y-29866393D01*
X62901843Y-29736042D01*
X63057737Y-29634028D01*
X63230472Y-29564238D01*
X63413481Y-29529327D01*
X63599783Y-29530629D01*
X63599783Y-29530629D01*
G37*
G36*
X45819783Y-29530629D02*
X46002286Y-29568091D01*
X46174031Y-29640286D01*
X46328488Y-29744468D01*
X46459763Y-29876663D01*
X46562862Y-30031839D01*
X46633859Y-30204090D01*
X46669909Y-30386158D01*
X46669909Y-30386180D01*
X46670041Y-30386848D01*
X46667070Y-30599643D01*
X46666918Y-30600311D01*
X46666918Y-30600330D01*
X46625798Y-30781319D01*
X46550020Y-30951521D01*
X46442630Y-31103755D01*
X46307711Y-31232236D01*
X46150408Y-31332064D01*
X45976712Y-31399437D01*
X45793236Y-31431788D01*
X45606970Y-31427886D01*
X45425013Y-31387881D01*
X45254289Y-31313293D01*
X45101305Y-31206967D01*
X44971886Y-31072949D01*
X44870963Y-30916346D01*
X44802377Y-30743121D01*
X44768746Y-30559878D01*
X44771347Y-30373594D01*
X44810083Y-30191358D01*
X44883477Y-30020115D01*
X44988734Y-29866393D01*
X45121843Y-29736042D01*
X45277737Y-29634028D01*
X45450472Y-29564238D01*
X45633481Y-29529327D01*
X45819783Y-29530629D01*
X45819783Y-29530629D01*
G37*
G36*
X5026000Y-29397300D02*
X3864000Y-29397300D01*
X3864000Y-28108300D01*
X5026000Y-28108300D01*
X5026000Y-29397300D01*
X5026000Y-29397300D01*
G37*
G36*
X36141000Y-29397300D02*
X34979000Y-29397300D01*
X34979000Y-28108300D01*
X36141000Y-28108300D01*
X36141000Y-29397300D01*
X36141000Y-29397300D01*
G37*
G36*
X45819783Y-26990629D02*
X46002286Y-27028091D01*
X46174031Y-27100286D01*
X46328488Y-27204468D01*
X46459763Y-27336663D01*
X46562862Y-27491839D01*
X46633859Y-27664090D01*
X46669909Y-27846158D01*
X46669909Y-27846180D01*
X46670041Y-27846848D01*
X46667070Y-28059643D01*
X46666918Y-28060311D01*
X46666918Y-28060330D01*
X46625798Y-28241319D01*
X46550020Y-28411521D01*
X46442630Y-28563755D01*
X46307711Y-28692236D01*
X46150408Y-28792064D01*
X45976712Y-28859437D01*
X45793236Y-28891788D01*
X45606970Y-28887886D01*
X45425013Y-28847881D01*
X45254289Y-28773293D01*
X45101305Y-28666967D01*
X44971886Y-28532949D01*
X44870963Y-28376346D01*
X44802377Y-28203121D01*
X44768746Y-28019878D01*
X44771347Y-27833594D01*
X44810083Y-27651358D01*
X44883477Y-27480115D01*
X44988734Y-27326393D01*
X45121843Y-27196042D01*
X45277737Y-27094028D01*
X45450472Y-27024238D01*
X45633481Y-26989327D01*
X45819783Y-26990629D01*
X45819783Y-26990629D01*
G37*
G36*
X61059783Y-26990629D02*
X61242286Y-27028091D01*
X61414031Y-27100286D01*
X61568488Y-27204468D01*
X61699763Y-27336663D01*
X61802862Y-27491839D01*
X61873859Y-27664090D01*
X61909909Y-27846158D01*
X61909909Y-27846180D01*
X61910041Y-27846848D01*
X61907070Y-28059643D01*
X61906918Y-28060311D01*
X61906918Y-28060330D01*
X61865798Y-28241319D01*
X61790020Y-28411521D01*
X61682630Y-28563755D01*
X61547711Y-28692236D01*
X61390408Y-28792064D01*
X61216712Y-28859437D01*
X61033236Y-28891788D01*
X60846970Y-28887886D01*
X60665013Y-28847881D01*
X60494289Y-28773293D01*
X60341305Y-28666967D01*
X60211886Y-28532949D01*
X60110963Y-28376346D01*
X60042377Y-28203121D01*
X60008746Y-28019878D01*
X60011347Y-27833594D01*
X60050083Y-27651358D01*
X60123477Y-27480115D01*
X60228734Y-27326393D01*
X60361843Y-27196042D01*
X60517737Y-27094028D01*
X60690472Y-27024238D01*
X60873481Y-26989327D01*
X61059783Y-26990629D01*
X61059783Y-26990629D01*
G37*
G36*
X49210000Y-28890000D02*
X47310000Y-28890000D01*
X47310000Y-26990000D01*
X49210000Y-26990000D01*
X49210000Y-28890000D01*
X49210000Y-28890000D01*
G37*
G36*
X64450000Y-28890000D02*
X62550000Y-28890000D01*
X62550000Y-26990000D01*
X64450000Y-26990000D01*
X64450000Y-28890000D01*
X64450000Y-28890000D01*
G37*
G36*
X36141000Y-27771700D02*
X34979000Y-27771700D01*
X34979000Y-26482700D01*
X36141000Y-26482700D01*
X36141000Y-27771700D01*
X36141000Y-27771700D01*
G37*
G36*
X5026000Y-27771700D02*
X3864000Y-27771700D01*
X3864000Y-26482700D01*
X5026000Y-26482700D01*
X5026000Y-27771700D01*
X5026000Y-27771700D01*
G37*
G36*
X33620000Y-26240000D02*
X23530000Y-26240000D01*
X23530000Y-24340000D01*
X33620000Y-24340000D01*
X33620000Y-26240000D01*
X33620000Y-26240000D01*
G37*
G36*
X5026000Y-25587300D02*
X3864000Y-25587300D01*
X3864000Y-24298300D01*
X5026000Y-24298300D01*
X5026000Y-25587300D01*
X5026000Y-25587300D01*
G37*
G36*
X5026000Y-23961700D02*
X3864000Y-23961700D01*
X3864000Y-22672700D01*
X5026000Y-22672700D01*
X5026000Y-23961700D01*
X5026000Y-23961700D01*
G37*
G36*
X15339783Y-21910629D02*
X15522286Y-21948091D01*
X15694031Y-22020286D01*
X15848488Y-22124468D01*
X15979763Y-22256663D01*
X16082862Y-22411839D01*
X16153859Y-22584090D01*
X16189909Y-22766158D01*
X16189909Y-22766180D01*
X16190041Y-22766848D01*
X16187070Y-22979643D01*
X16186918Y-22980311D01*
X16186918Y-22980330D01*
X16145798Y-23161319D01*
X16070020Y-23331521D01*
X15962630Y-23483755D01*
X15827711Y-23612236D01*
X15670408Y-23712064D01*
X15496712Y-23779437D01*
X15313236Y-23811788D01*
X15126970Y-23807886D01*
X14945013Y-23767881D01*
X14774289Y-23693293D01*
X14621305Y-23586967D01*
X14491886Y-23452949D01*
X14390963Y-23296346D01*
X14322377Y-23123121D01*
X14288746Y-22939878D01*
X14291347Y-22753594D01*
X14330083Y-22571358D01*
X14403477Y-22400115D01*
X14508734Y-22246393D01*
X14641843Y-22116042D01*
X14797737Y-22014028D01*
X14970472Y-21944238D01*
X15153481Y-21909327D01*
X15339783Y-21910629D01*
X15339783Y-21910629D01*
G37*
G36*
X40739783Y-21910629D02*
X40922286Y-21948091D01*
X41094031Y-22020286D01*
X41248488Y-22124468D01*
X41379763Y-22256663D01*
X41482862Y-22411839D01*
X41553859Y-22584090D01*
X41589909Y-22766158D01*
X41589909Y-22766180D01*
X41590041Y-22766848D01*
X41587070Y-22979643D01*
X41586918Y-22980311D01*
X41586918Y-22980330D01*
X41545798Y-23161319D01*
X41470020Y-23331521D01*
X41362630Y-23483755D01*
X41227711Y-23612236D01*
X41070408Y-23712064D01*
X40896712Y-23779437D01*
X40713236Y-23811788D01*
X40526970Y-23807886D01*
X40345013Y-23767881D01*
X40174289Y-23693293D01*
X40021305Y-23586967D01*
X39891886Y-23452949D01*
X39790963Y-23296346D01*
X39722377Y-23123121D01*
X39688746Y-22939878D01*
X39691347Y-22753594D01*
X39730083Y-22571358D01*
X39803477Y-22400115D01*
X39908734Y-22246393D01*
X40041843Y-22116042D01*
X40197737Y-22014028D01*
X40370472Y-21944238D01*
X40553481Y-21909327D01*
X40739783Y-21910629D01*
X40739783Y-21910629D01*
G37*
G36*
X66139783Y-21910629D02*
X66322286Y-21948091D01*
X66494031Y-22020286D01*
X66648488Y-22124468D01*
X66779763Y-22256663D01*
X66882862Y-22411839D01*
X66953859Y-22584090D01*
X66989909Y-22766158D01*
X66989909Y-22766180D01*
X66990041Y-22766848D01*
X66987070Y-22979643D01*
X66986918Y-22980311D01*
X66986918Y-22980330D01*
X66945798Y-23161319D01*
X66870020Y-23331521D01*
X66762630Y-23483755D01*
X66627711Y-23612236D01*
X66470408Y-23712064D01*
X66296712Y-23779437D01*
X66113236Y-23811788D01*
X65926970Y-23807886D01*
X65745013Y-23767881D01*
X65574289Y-23693293D01*
X65421305Y-23586967D01*
X65291886Y-23452949D01*
X65190963Y-23296346D01*
X65122377Y-23123121D01*
X65088746Y-22939878D01*
X65091347Y-22753594D01*
X65130083Y-22571358D01*
X65203477Y-22400115D01*
X65308734Y-22246393D01*
X65441843Y-22116042D01*
X65597737Y-22014028D01*
X65770472Y-21944238D01*
X65953481Y-21909327D01*
X66139783Y-21910629D01*
X66139783Y-21910629D01*
G37*
G36*
X64450000Y-23810000D02*
X62550000Y-23810000D01*
X62550000Y-21910000D01*
X64450000Y-21910000D01*
X64450000Y-23810000D01*
X64450000Y-23810000D01*
G37*
G36*
X39050000Y-23810000D02*
X37150000Y-23810000D01*
X37150000Y-21910000D01*
X39050000Y-21910000D01*
X39050000Y-23810000D01*
X39050000Y-23810000D01*
G37*
G36*
X13650000Y-23810000D02*
X11750000Y-23810000D01*
X11750000Y-21910000D01*
X13650000Y-21910000D01*
X13650000Y-23810000D01*
X13650000Y-23810000D01*
G37*
G36*
X31937300Y-23441000D02*
X30648300Y-23441000D01*
X30648300Y-22279000D01*
X31937300Y-22279000D01*
X31937300Y-23441000D01*
X31937300Y-23441000D01*
G37*
G36*
X30311700Y-23441000D02*
X29022700Y-23441000D01*
X29022700Y-22279000D01*
X30311700Y-22279000D01*
X30311700Y-23441000D01*
X30311700Y-23441000D01*
G37*
G36*
X34121700Y-22171000D02*
X32832700Y-22171000D01*
X32832700Y-21009000D01*
X34121700Y-21009000D01*
X34121700Y-22171000D01*
X34121700Y-22171000D01*
G37*
G36*
X35747300Y-22171000D02*
X34458300Y-22171000D01*
X34458300Y-21009000D01*
X35747300Y-21009000D01*
X35747300Y-22171000D01*
X35747300Y-22171000D01*
G37*
G36*
X30311700Y-21536000D02*
X29022700Y-21536000D01*
X29022700Y-20374000D01*
X30311700Y-20374000D01*
X30311700Y-21536000D01*
X30311700Y-21536000D01*
G37*
G36*
X31937300Y-21536000D02*
X30648300Y-21536000D01*
X30648300Y-20374000D01*
X31937300Y-20374000D01*
X31937300Y-21536000D01*
X31937300Y-21536000D01*
G37*
G36*
X40739783Y-19370629D02*
X40922286Y-19408091D01*
X41094031Y-19480286D01*
X41248488Y-19584468D01*
X41379763Y-19716663D01*
X41482862Y-19871839D01*
X41553859Y-20044090D01*
X41589909Y-20226158D01*
X41589909Y-20226180D01*
X41590041Y-20226848D01*
X41587070Y-20439643D01*
X41586918Y-20440311D01*
X41586918Y-20440330D01*
X41545798Y-20621319D01*
X41470020Y-20791521D01*
X41362630Y-20943755D01*
X41227711Y-21072236D01*
X41070408Y-21172064D01*
X40896712Y-21239437D01*
X40713236Y-21271788D01*
X40526970Y-21267886D01*
X40345013Y-21227881D01*
X40174289Y-21153293D01*
X40021305Y-21046967D01*
X39891886Y-20912949D01*
X39790963Y-20756346D01*
X39722377Y-20583121D01*
X39688746Y-20399878D01*
X39691347Y-20213594D01*
X39730083Y-20031358D01*
X39803477Y-19860115D01*
X39908734Y-19706393D01*
X40041843Y-19576042D01*
X40197737Y-19474028D01*
X40370472Y-19404238D01*
X40553481Y-19369327D01*
X40739783Y-19370629D01*
X40739783Y-19370629D01*
G37*
G36*
X63599783Y-19370629D02*
X63782286Y-19408091D01*
X63954031Y-19480286D01*
X64108488Y-19584468D01*
X64239763Y-19716663D01*
X64342862Y-19871839D01*
X64413859Y-20044090D01*
X64449909Y-20226158D01*
X64449909Y-20226180D01*
X64450041Y-20226848D01*
X64447070Y-20439643D01*
X64446918Y-20440311D01*
X64446918Y-20440330D01*
X64405798Y-20621319D01*
X64330020Y-20791521D01*
X64222630Y-20943755D01*
X64087711Y-21072236D01*
X63930408Y-21172064D01*
X63756712Y-21239437D01*
X63573236Y-21271788D01*
X63386970Y-21267886D01*
X63205013Y-21227881D01*
X63034289Y-21153293D01*
X62881305Y-21046967D01*
X62751886Y-20912949D01*
X62650963Y-20756346D01*
X62582377Y-20583121D01*
X62548746Y-20399878D01*
X62551347Y-20213594D01*
X62590083Y-20031358D01*
X62663477Y-19860115D01*
X62768734Y-19706393D01*
X62901843Y-19576042D01*
X63057737Y-19474028D01*
X63230472Y-19404238D01*
X63413481Y-19369327D01*
X63599783Y-19370629D01*
X63599783Y-19370629D01*
G37*
G36*
X66139783Y-19370629D02*
X66322286Y-19408091D01*
X66494031Y-19480286D01*
X66648488Y-19584468D01*
X66779763Y-19716663D01*
X66882862Y-19871839D01*
X66953859Y-20044090D01*
X66989909Y-20226158D01*
X66989909Y-20226180D01*
X66990041Y-20226848D01*
X66987070Y-20439643D01*
X66986918Y-20440311D01*
X66986918Y-20440330D01*
X66945798Y-20621319D01*
X66870020Y-20791521D01*
X66762630Y-20943755D01*
X66627711Y-21072236D01*
X66470408Y-21172064D01*
X66296712Y-21239437D01*
X66113236Y-21271788D01*
X65926970Y-21267886D01*
X65745013Y-21227881D01*
X65574289Y-21153293D01*
X65421305Y-21046967D01*
X65291886Y-20912949D01*
X65190963Y-20756346D01*
X65122377Y-20583121D01*
X65088746Y-20399878D01*
X65091347Y-20213594D01*
X65130083Y-20031358D01*
X65203477Y-19860115D01*
X65308734Y-19706393D01*
X65441843Y-19576042D01*
X65597737Y-19474028D01*
X65770472Y-19404238D01*
X65953481Y-19369327D01*
X66139783Y-19370629D01*
X66139783Y-19370629D01*
G37*
G36*
X38199783Y-19370629D02*
X38382286Y-19408091D01*
X38554031Y-19480286D01*
X38708488Y-19584468D01*
X38839763Y-19716663D01*
X38942862Y-19871839D01*
X39013859Y-20044090D01*
X39049909Y-20226158D01*
X39049909Y-20226180D01*
X39050041Y-20226848D01*
X39047070Y-20439643D01*
X39046918Y-20440311D01*
X39046918Y-20440330D01*
X39005798Y-20621319D01*
X38930020Y-20791521D01*
X38822630Y-20943755D01*
X38687711Y-21072236D01*
X38530408Y-21172064D01*
X38356712Y-21239437D01*
X38173236Y-21271788D01*
X37986970Y-21267886D01*
X37805013Y-21227881D01*
X37634289Y-21153293D01*
X37481305Y-21046967D01*
X37351886Y-20912949D01*
X37250963Y-20756346D01*
X37182377Y-20583121D01*
X37148746Y-20399878D01*
X37151347Y-20213594D01*
X37190083Y-20031358D01*
X37263477Y-19860115D01*
X37368734Y-19706393D01*
X37501843Y-19576042D01*
X37657737Y-19474028D01*
X37830472Y-19404238D01*
X38013481Y-19369327D01*
X38199783Y-19370629D01*
X38199783Y-19370629D01*
G37*
G36*
X15339783Y-19370629D02*
X15522286Y-19408091D01*
X15694031Y-19480286D01*
X15848488Y-19584468D01*
X15979763Y-19716663D01*
X16082862Y-19871839D01*
X16153859Y-20044090D01*
X16189909Y-20226158D01*
X16189909Y-20226180D01*
X16190041Y-20226848D01*
X16187070Y-20439643D01*
X16186918Y-20440311D01*
X16186918Y-20440330D01*
X16145798Y-20621319D01*
X16070020Y-20791521D01*
X15962630Y-20943755D01*
X15827711Y-21072236D01*
X15670408Y-21172064D01*
X15496712Y-21239437D01*
X15313236Y-21271788D01*
X15126970Y-21267886D01*
X14945013Y-21227881D01*
X14774289Y-21153293D01*
X14621305Y-21046967D01*
X14491886Y-20912949D01*
X14390963Y-20756346D01*
X14322377Y-20583121D01*
X14288746Y-20399878D01*
X14291347Y-20213594D01*
X14330083Y-20031358D01*
X14403477Y-19860115D01*
X14508734Y-19706393D01*
X14641843Y-19576042D01*
X14797737Y-19474028D01*
X14970472Y-19404238D01*
X15153481Y-19369327D01*
X15339783Y-19370629D01*
X15339783Y-19370629D01*
G37*
G36*
X12799783Y-19370629D02*
X12982286Y-19408091D01*
X13154031Y-19480286D01*
X13308488Y-19584468D01*
X13439763Y-19716663D01*
X13542862Y-19871839D01*
X13613859Y-20044090D01*
X13649909Y-20226158D01*
X13649909Y-20226180D01*
X13650041Y-20226848D01*
X13647070Y-20439643D01*
X13646918Y-20440311D01*
X13646918Y-20440330D01*
X13605798Y-20621319D01*
X13530020Y-20791521D01*
X13422630Y-20943755D01*
X13287711Y-21072236D01*
X13130408Y-21172064D01*
X12956712Y-21239437D01*
X12773236Y-21271788D01*
X12586970Y-21267886D01*
X12405013Y-21227881D01*
X12234289Y-21153293D01*
X12081305Y-21046967D01*
X11951886Y-20912949D01*
X11850963Y-20756346D01*
X11782377Y-20583121D01*
X11748746Y-20399878D01*
X11751347Y-20213594D01*
X11790083Y-20031358D01*
X11863477Y-19860115D01*
X11968734Y-19706393D01*
X12101843Y-19576042D01*
X12257737Y-19474028D01*
X12430472Y-19404238D01*
X12613481Y-19369327D01*
X12799783Y-19370629D01*
X12799783Y-19370629D01*
G37*
G36*
X10741000Y-21142300D02*
X9579000Y-21142300D01*
X9579000Y-19853300D01*
X10741000Y-19853300D01*
X10741000Y-21142300D01*
X10741000Y-21142300D01*
G37*
G36*
X18996000Y-21142300D02*
X17834000Y-21142300D01*
X17834000Y-19853300D01*
X18996000Y-19853300D01*
X18996000Y-21142300D01*
X18996000Y-21142300D01*
G37*
G36*
X61541000Y-19872300D02*
X60379000Y-19872300D01*
X60379000Y-18583300D01*
X61541000Y-18583300D01*
X61541000Y-19872300D01*
X61541000Y-19872300D01*
G37*
G36*
X18996000Y-19516700D02*
X17834000Y-19516700D01*
X17834000Y-18227700D01*
X18996000Y-18227700D01*
X18996000Y-19516700D01*
X18996000Y-19516700D01*
G37*
G36*
X10741000Y-19516700D02*
X9579000Y-19516700D01*
X9579000Y-18227700D01*
X10741000Y-18227700D01*
X10741000Y-19516700D01*
X10741000Y-19516700D01*
G37*
G36*
X33119783Y-16830629D02*
X33302286Y-16868091D01*
X33474031Y-16940286D01*
X33628488Y-17044468D01*
X33759763Y-17176663D01*
X33862862Y-17331839D01*
X33933859Y-17504090D01*
X33969909Y-17686158D01*
X33969909Y-17686180D01*
X33970041Y-17686848D01*
X33967070Y-17899643D01*
X33966918Y-17900311D01*
X33966918Y-17900330D01*
X33925798Y-18081319D01*
X33850020Y-18251521D01*
X33742630Y-18403755D01*
X33607711Y-18532236D01*
X33450408Y-18632064D01*
X33276712Y-18699437D01*
X33093236Y-18731788D01*
X32906970Y-18727886D01*
X32725013Y-18687881D01*
X32554289Y-18613293D01*
X32401305Y-18506967D01*
X32271886Y-18372949D01*
X32170963Y-18216346D01*
X32102377Y-18043121D01*
X32068746Y-17859878D01*
X32071347Y-17673594D01*
X32110083Y-17491358D01*
X32183477Y-17320115D01*
X32288734Y-17166393D01*
X32421843Y-17036042D01*
X32577737Y-16934028D01*
X32750472Y-16864238D01*
X32933481Y-16829327D01*
X33119783Y-16830629D01*
X33119783Y-16830629D01*
G37*
G36*
X40739783Y-16830629D02*
X40922286Y-16868091D01*
X41094031Y-16940286D01*
X41248488Y-17044468D01*
X41379763Y-17176663D01*
X41482862Y-17331839D01*
X41553859Y-17504090D01*
X41589909Y-17686158D01*
X41589909Y-17686180D01*
X41590041Y-17686848D01*
X41587070Y-17899643D01*
X41586918Y-17900311D01*
X41586918Y-17900330D01*
X41545798Y-18081319D01*
X41470020Y-18251521D01*
X41362630Y-18403755D01*
X41227711Y-18532236D01*
X41070408Y-18632064D01*
X40896712Y-18699437D01*
X40713236Y-18731788D01*
X40526970Y-18727886D01*
X40345013Y-18687881D01*
X40174289Y-18613293D01*
X40021305Y-18506967D01*
X39891886Y-18372949D01*
X39790963Y-18216346D01*
X39722377Y-18043121D01*
X39688746Y-17859878D01*
X39691347Y-17673594D01*
X39730083Y-17491358D01*
X39803477Y-17320115D01*
X39908734Y-17166393D01*
X40041843Y-17036042D01*
X40197737Y-16934028D01*
X40370472Y-16864238D01*
X40553481Y-16829327D01*
X40739783Y-16830629D01*
X40739783Y-16830629D01*
G37*
G36*
X30579783Y-16830629D02*
X30762286Y-16868091D01*
X30934031Y-16940286D01*
X31088488Y-17044468D01*
X31219763Y-17176663D01*
X31322862Y-17331839D01*
X31393859Y-17504090D01*
X31429909Y-17686158D01*
X31429909Y-17686180D01*
X31430041Y-17686848D01*
X31427070Y-17899643D01*
X31426918Y-17900311D01*
X31426918Y-17900330D01*
X31385798Y-18081319D01*
X31310020Y-18251521D01*
X31202630Y-18403755D01*
X31067711Y-18532236D01*
X30910408Y-18632064D01*
X30736712Y-18699437D01*
X30553236Y-18731788D01*
X30366970Y-18727886D01*
X30185013Y-18687881D01*
X30014289Y-18613293D01*
X29861305Y-18506967D01*
X29731886Y-18372949D01*
X29630963Y-18216346D01*
X29562377Y-18043121D01*
X29528746Y-17859878D01*
X29531347Y-17673594D01*
X29570083Y-17491358D01*
X29643477Y-17320115D01*
X29748734Y-17166393D01*
X29881843Y-17036042D01*
X30037737Y-16934028D01*
X30210472Y-16864238D01*
X30393481Y-16829327D01*
X30579783Y-16830629D01*
X30579783Y-16830629D01*
G37*
G36*
X38199783Y-16830629D02*
X38382286Y-16868091D01*
X38554031Y-16940286D01*
X38708488Y-17044468D01*
X38839763Y-17176663D01*
X38942862Y-17331839D01*
X39013859Y-17504090D01*
X39049909Y-17686158D01*
X39049909Y-17686180D01*
X39050041Y-17686848D01*
X39047070Y-17899643D01*
X39046918Y-17900311D01*
X39046918Y-17900330D01*
X39005798Y-18081319D01*
X38930020Y-18251521D01*
X38822630Y-18403755D01*
X38687711Y-18532236D01*
X38530408Y-18632064D01*
X38356712Y-18699437D01*
X38173236Y-18731788D01*
X37986970Y-18727886D01*
X37805013Y-18687881D01*
X37634289Y-18613293D01*
X37481305Y-18506967D01*
X37351886Y-18372949D01*
X37250963Y-18216346D01*
X37182377Y-18043121D01*
X37148746Y-17859878D01*
X37151347Y-17673594D01*
X37190083Y-17491358D01*
X37263477Y-17320115D01*
X37368734Y-17166393D01*
X37501843Y-17036042D01*
X37657737Y-16934028D01*
X37830472Y-16864238D01*
X38013481Y-16829327D01*
X38199783Y-16830629D01*
X38199783Y-16830629D01*
G37*
G36*
X63599783Y-16830629D02*
X63782286Y-16868091D01*
X63954031Y-16940286D01*
X64108488Y-17044468D01*
X64239763Y-17176663D01*
X64342862Y-17331839D01*
X64413859Y-17504090D01*
X64449909Y-17686158D01*
X64449909Y-17686180D01*
X64450041Y-17686848D01*
X64447070Y-17899643D01*
X64446918Y-17900311D01*
X64446918Y-17900330D01*
X64405798Y-18081319D01*
X64330020Y-18251521D01*
X64222630Y-18403755D01*
X64087711Y-18532236D01*
X63930408Y-18632064D01*
X63756712Y-18699437D01*
X63573236Y-18731788D01*
X63386970Y-18727886D01*
X63205013Y-18687881D01*
X63034289Y-18613293D01*
X62881305Y-18506967D01*
X62751886Y-18372949D01*
X62650963Y-18216346D01*
X62582377Y-18043121D01*
X62548746Y-17859878D01*
X62551347Y-17673594D01*
X62590083Y-17491358D01*
X62663477Y-17320115D01*
X62768734Y-17166393D01*
X62901843Y-17036042D01*
X63057737Y-16934028D01*
X63230472Y-16864238D01*
X63413481Y-16829327D01*
X63599783Y-16830629D01*
X63599783Y-16830629D01*
G37*
G36*
X15339783Y-16830629D02*
X15522286Y-16868091D01*
X15694031Y-16940286D01*
X15848488Y-17044468D01*
X15979763Y-17176663D01*
X16082862Y-17331839D01*
X16153859Y-17504090D01*
X16189909Y-17686158D01*
X16189909Y-17686180D01*
X16190041Y-17686848D01*
X16187070Y-17899643D01*
X16186918Y-17900311D01*
X16186918Y-17900330D01*
X16145798Y-18081319D01*
X16070020Y-18251521D01*
X15962630Y-18403755D01*
X15827711Y-18532236D01*
X15670408Y-18632064D01*
X15496712Y-18699437D01*
X15313236Y-18731788D01*
X15126970Y-18727886D01*
X14945013Y-18687881D01*
X14774289Y-18613293D01*
X14621305Y-18506967D01*
X14491886Y-18372949D01*
X14390963Y-18216346D01*
X14322377Y-18043121D01*
X14288746Y-17859878D01*
X14291347Y-17673594D01*
X14330083Y-17491358D01*
X14403477Y-17320115D01*
X14508734Y-17166393D01*
X14641843Y-17036042D01*
X14797737Y-16934028D01*
X14970472Y-16864238D01*
X15153481Y-16829327D01*
X15339783Y-16830629D01*
X15339783Y-16830629D01*
G37*
G36*
X12799783Y-16830629D02*
X12982286Y-16868091D01*
X13154031Y-16940286D01*
X13308488Y-17044468D01*
X13439763Y-17176663D01*
X13542862Y-17331839D01*
X13613859Y-17504090D01*
X13649909Y-17686158D01*
X13649909Y-17686180D01*
X13650041Y-17686848D01*
X13647070Y-17899643D01*
X13646918Y-17900311D01*
X13646918Y-17900330D01*
X13605798Y-18081319D01*
X13530020Y-18251521D01*
X13422630Y-18403755D01*
X13287711Y-18532236D01*
X13130408Y-18632064D01*
X12956712Y-18699437D01*
X12773236Y-18731788D01*
X12586970Y-18727886D01*
X12405013Y-18687881D01*
X12234289Y-18613293D01*
X12081305Y-18506967D01*
X11951886Y-18372949D01*
X11850963Y-18216346D01*
X11782377Y-18043121D01*
X11748746Y-17859878D01*
X11751347Y-17673594D01*
X11790083Y-17491358D01*
X11863477Y-17320115D01*
X11968734Y-17166393D01*
X12101843Y-17036042D01*
X12257737Y-16934028D01*
X12430472Y-16864238D01*
X12613481Y-16829327D01*
X12799783Y-16830629D01*
X12799783Y-16830629D01*
G37*
G36*
X66139783Y-16830629D02*
X66322286Y-16868091D01*
X66494031Y-16940286D01*
X66648488Y-17044468D01*
X66779763Y-17176663D01*
X66882862Y-17331839D01*
X66953859Y-17504090D01*
X66989909Y-17686158D01*
X66989909Y-17686180D01*
X66990041Y-17686848D01*
X66987070Y-17899643D01*
X66986918Y-17900311D01*
X66986918Y-17900330D01*
X66945798Y-18081319D01*
X66870020Y-18251521D01*
X66762630Y-18403755D01*
X66627711Y-18532236D01*
X66470408Y-18632064D01*
X66296712Y-18699437D01*
X66113236Y-18731788D01*
X65926970Y-18727886D01*
X65745013Y-18687881D01*
X65574289Y-18613293D01*
X65421305Y-18506967D01*
X65291886Y-18372949D01*
X65190963Y-18216346D01*
X65122377Y-18043121D01*
X65088746Y-17859878D01*
X65091347Y-17673594D01*
X65130083Y-17491358D01*
X65203477Y-17320115D01*
X65308734Y-17166393D01*
X65441843Y-17036042D01*
X65597737Y-16934028D01*
X65770472Y-16864238D01*
X65953481Y-16829327D01*
X66139783Y-16830629D01*
X66139783Y-16830629D01*
G37*
G36*
X28890000Y-18730000D02*
X26990000Y-18730000D01*
X26990000Y-16830000D01*
X28890000Y-16830000D01*
X28890000Y-18730000D01*
X28890000Y-18730000D01*
G37*
G36*
X61541000Y-18246700D02*
X60379000Y-18246700D01*
X60379000Y-16957700D01*
X61541000Y-16957700D01*
X61541000Y-18246700D01*
X61541000Y-18246700D01*
G37*
G36*
X36395000Y-16951300D02*
X35233000Y-16951300D01*
X35233000Y-15662300D01*
X36395000Y-15662300D01*
X36395000Y-16951300D01*
X36395000Y-16951300D01*
G37*
G36*
X33119783Y-14290629D02*
X33302286Y-14328091D01*
X33474031Y-14400286D01*
X33628488Y-14504468D01*
X33759763Y-14636663D01*
X33862862Y-14791839D01*
X33933859Y-14964090D01*
X33969909Y-15146158D01*
X33969909Y-15146180D01*
X33970041Y-15146848D01*
X33967070Y-15359643D01*
X33966918Y-15360311D01*
X33966918Y-15360330D01*
X33925798Y-15541319D01*
X33850020Y-15711521D01*
X33742630Y-15863755D01*
X33607711Y-15992236D01*
X33450408Y-16092064D01*
X33276712Y-16159437D01*
X33093236Y-16191788D01*
X32906970Y-16187886D01*
X32725013Y-16147881D01*
X32554289Y-16073293D01*
X32401305Y-15966967D01*
X32271886Y-15832949D01*
X32170963Y-15676346D01*
X32102377Y-15503121D01*
X32068746Y-15319878D01*
X32071347Y-15133594D01*
X32110083Y-14951358D01*
X32183477Y-14780115D01*
X32288734Y-14626393D01*
X32421843Y-14496042D01*
X32577737Y-14394028D01*
X32750472Y-14324238D01*
X32933481Y-14289327D01*
X33119783Y-14290629D01*
X33119783Y-14290629D01*
G37*
G36*
X30579783Y-14290629D02*
X30762286Y-14328091D01*
X30934031Y-14400286D01*
X31088488Y-14504468D01*
X31219763Y-14636663D01*
X31322862Y-14791839D01*
X31393859Y-14964090D01*
X31429909Y-15146158D01*
X31429909Y-15146180D01*
X31430041Y-15146848D01*
X31427070Y-15359643D01*
X31426918Y-15360311D01*
X31426918Y-15360330D01*
X31385798Y-15541319D01*
X31310020Y-15711521D01*
X31202630Y-15863755D01*
X31067711Y-15992236D01*
X30910408Y-16092064D01*
X30736712Y-16159437D01*
X30553236Y-16191788D01*
X30366970Y-16187886D01*
X30185013Y-16147881D01*
X30014289Y-16073293D01*
X29861305Y-15966967D01*
X29731886Y-15832949D01*
X29630963Y-15676346D01*
X29562377Y-15503121D01*
X29528746Y-15319878D01*
X29531347Y-15133594D01*
X29570083Y-14951358D01*
X29643477Y-14780115D01*
X29748734Y-14626393D01*
X29881843Y-14496042D01*
X30037737Y-14394028D01*
X30210472Y-14324238D01*
X30393481Y-14289327D01*
X30579783Y-14290629D01*
X30579783Y-14290629D01*
G37*
G36*
X28890000Y-16190000D02*
X26990000Y-16190000D01*
X26990000Y-14290000D01*
X28890000Y-14290000D01*
X28890000Y-16190000D01*
X28890000Y-16190000D01*
G37*
G36*
X65871700Y-15821000D02*
X64582700Y-15821000D01*
X64582700Y-14659000D01*
X65871700Y-14659000D01*
X65871700Y-15821000D01*
X65871700Y-15821000D01*
G37*
G36*
X67497300Y-15821000D02*
X66208300Y-15821000D01*
X66208300Y-14659000D01*
X67497300Y-14659000D01*
X67497300Y-15821000D01*
X67497300Y-15821000D01*
G37*
G36*
X36395000Y-15325700D02*
X35233000Y-15325700D01*
X35233000Y-14036700D01*
X36395000Y-14036700D01*
X36395000Y-15325700D01*
X36395000Y-15325700D01*
G37*
G36*
X13293700Y-15313000D02*
X12004700Y-15313000D01*
X12004700Y-14151000D01*
X13293700Y-14151000D01*
X13293700Y-15313000D01*
X13293700Y-15313000D01*
G37*
G36*
X14919300Y-15313000D02*
X13630300Y-15313000D01*
X13630300Y-14151000D01*
X14919300Y-14151000D01*
X14919300Y-15313000D01*
X14919300Y-15313000D01*
G37*
G36*
X45551700Y-15186000D02*
X44262700Y-15186000D01*
X44262700Y-14024000D01*
X45551700Y-14024000D01*
X45551700Y-15186000D01*
X45551700Y-15186000D01*
G37*
G36*
X56067300Y-15186000D02*
X54778300Y-15186000D01*
X54778300Y-14024000D01*
X56067300Y-14024000D01*
X56067300Y-15186000D01*
X56067300Y-15186000D01*
G37*
G36*
X41106700Y-15186000D02*
X39817700Y-15186000D01*
X39817700Y-14024000D01*
X41106700Y-14024000D01*
X41106700Y-15186000D01*
X41106700Y-15186000D01*
G37*
G36*
X42732300Y-15186000D02*
X41443300Y-15186000D01*
X41443300Y-14024000D01*
X42732300Y-14024000D01*
X42732300Y-15186000D01*
X42732300Y-15186000D01*
G37*
G36*
X47177300Y-15186000D02*
X45888300Y-15186000D01*
X45888300Y-14024000D01*
X47177300Y-14024000D01*
X47177300Y-15186000D01*
X47177300Y-15186000D01*
G37*
G36*
X54441700Y-15186000D02*
X53152700Y-15186000D01*
X53152700Y-14024000D01*
X54441700Y-14024000D01*
X54441700Y-15186000D01*
X54441700Y-15186000D01*
G37*
G36*
X61044531Y-7750596D02*
X61217429Y-7786086D01*
X61380135Y-7854481D01*
X61526462Y-7953180D01*
X61650828Y-8078417D01*
X61748500Y-8225427D01*
X61815761Y-8388612D01*
X61849906Y-8561061D01*
X61849906Y-8561077D01*
X61850039Y-8561750D01*
X61847224Y-8763346D01*
X61847073Y-8764009D01*
X61847073Y-8764033D01*
X61808125Y-8935462D01*
X61736337Y-9096698D01*
X61634594Y-9240929D01*
X61506779Y-9362645D01*
X61357754Y-9457219D01*
X61193204Y-9521044D01*
X61019380Y-9551694D01*
X60842919Y-9547997D01*
X60670538Y-9510098D01*
X60508800Y-9439436D01*
X60363868Y-9338705D01*
X60241260Y-9211742D01*
X60145648Y-9063380D01*
X60080674Y-8899274D01*
X60048812Y-8725674D01*
X60051276Y-8549195D01*
X60087973Y-8376550D01*
X60157505Y-8214319D01*
X60257222Y-8068688D01*
X60383325Y-7945198D01*
X60531012Y-7848554D01*
X60694659Y-7782436D01*
X60868035Y-7749363D01*
X61044531Y-7750596D01*
X61044531Y-7750596D01*
G37*
G36*
X10244531Y-7750596D02*
X10417429Y-7786086D01*
X10580135Y-7854481D01*
X10726462Y-7953180D01*
X10850828Y-8078417D01*
X10948500Y-8225427D01*
X11015761Y-8388612D01*
X11049906Y-8561061D01*
X11049906Y-8561077D01*
X11050039Y-8561750D01*
X11047224Y-8763346D01*
X11047073Y-8764009D01*
X11047073Y-8764033D01*
X11008125Y-8935462D01*
X10936337Y-9096698D01*
X10834594Y-9240929D01*
X10706779Y-9362645D01*
X10557754Y-9457219D01*
X10393204Y-9521044D01*
X10219380Y-9551694D01*
X10042919Y-9547997D01*
X9870538Y-9510098D01*
X9708800Y-9439436D01*
X9563868Y-9338705D01*
X9441260Y-9211742D01*
X9345648Y-9063380D01*
X9280674Y-8899274D01*
X9248812Y-8725674D01*
X9251276Y-8549195D01*
X9287973Y-8376550D01*
X9357505Y-8214319D01*
X9457222Y-8068688D01*
X9583325Y-7945198D01*
X9731012Y-7848554D01*
X9894659Y-7782436D01*
X10068035Y-7749363D01*
X10244531Y-7750596D01*
X10244531Y-7750596D01*
G37*
G36*
X12284531Y-7750596D02*
X12457429Y-7786086D01*
X12620135Y-7854481D01*
X12766462Y-7953180D01*
X12890828Y-8078417D01*
X12988500Y-8225427D01*
X13055761Y-8388612D01*
X13089906Y-8561061D01*
X13089906Y-8561077D01*
X13090039Y-8561750D01*
X13087224Y-8763346D01*
X13087073Y-8764009D01*
X13087073Y-8764033D01*
X13048125Y-8935462D01*
X12976337Y-9096698D01*
X12874594Y-9240929D01*
X12746779Y-9362645D01*
X12597754Y-9457219D01*
X12433204Y-9521044D01*
X12259380Y-9551694D01*
X12082919Y-9547997D01*
X11910538Y-9510098D01*
X11748800Y-9439436D01*
X11603868Y-9338705D01*
X11481260Y-9211742D01*
X11385648Y-9063380D01*
X11320674Y-8899274D01*
X11288812Y-8725674D01*
X11291276Y-8549195D01*
X11327973Y-8376550D01*
X11397505Y-8214319D01*
X11497222Y-8068688D01*
X11623325Y-7945198D01*
X11771012Y-7848554D01*
X11934659Y-7782436D01*
X12108035Y-7749363D01*
X12284531Y-7750596D01*
X12284531Y-7750596D01*
G37*
G36*
X14324531Y-7750596D02*
X14497429Y-7786086D01*
X14660135Y-7854481D01*
X14806462Y-7953180D01*
X14930828Y-8078417D01*
X15028500Y-8225427D01*
X15095761Y-8388612D01*
X15129906Y-8561061D01*
X15129906Y-8561077D01*
X15130039Y-8561750D01*
X15127224Y-8763346D01*
X15127073Y-8764009D01*
X15127073Y-8764033D01*
X15088125Y-8935462D01*
X15016337Y-9096698D01*
X14914594Y-9240929D01*
X14786779Y-9362645D01*
X14637754Y-9457219D01*
X14473204Y-9521044D01*
X14299380Y-9551694D01*
X14122919Y-9547997D01*
X13950538Y-9510098D01*
X13788800Y-9439436D01*
X13643868Y-9338705D01*
X13521260Y-9211742D01*
X13425648Y-9063380D01*
X13360674Y-8899274D01*
X13328812Y-8725674D01*
X13331276Y-8549195D01*
X13367973Y-8376550D01*
X13437505Y-8214319D01*
X13537222Y-8068688D01*
X13663325Y-7945198D01*
X13811012Y-7848554D01*
X13974659Y-7782436D01*
X14148035Y-7749363D01*
X14324531Y-7750596D01*
X14324531Y-7750596D01*
G37*
G36*
X35644531Y-7750596D02*
X35817429Y-7786086D01*
X35980135Y-7854481D01*
X36126462Y-7953180D01*
X36250828Y-8078417D01*
X36348500Y-8225427D01*
X36415761Y-8388612D01*
X36449906Y-8561061D01*
X36449906Y-8561077D01*
X36450039Y-8561750D01*
X36447224Y-8763346D01*
X36447073Y-8764009D01*
X36447073Y-8764033D01*
X36408125Y-8935462D01*
X36336337Y-9096698D01*
X36234594Y-9240929D01*
X36106779Y-9362645D01*
X35957754Y-9457219D01*
X35793204Y-9521044D01*
X35619380Y-9551694D01*
X35442919Y-9547997D01*
X35270538Y-9510098D01*
X35108800Y-9439436D01*
X34963868Y-9338705D01*
X34841260Y-9211742D01*
X34745648Y-9063380D01*
X34680674Y-8899274D01*
X34648812Y-8725674D01*
X34651276Y-8549195D01*
X34687973Y-8376550D01*
X34757505Y-8214319D01*
X34857222Y-8068688D01*
X34983325Y-7945198D01*
X35131012Y-7848554D01*
X35294659Y-7782436D01*
X35468035Y-7749363D01*
X35644531Y-7750596D01*
X35644531Y-7750596D01*
G37*
G36*
X37684531Y-7750596D02*
X37857429Y-7786086D01*
X38020135Y-7854481D01*
X38166462Y-7953180D01*
X38290828Y-8078417D01*
X38388500Y-8225427D01*
X38455761Y-8388612D01*
X38489906Y-8561061D01*
X38489906Y-8561077D01*
X38490039Y-8561750D01*
X38487224Y-8763346D01*
X38487073Y-8764009D01*
X38487073Y-8764033D01*
X38448125Y-8935462D01*
X38376337Y-9096698D01*
X38274594Y-9240929D01*
X38146779Y-9362645D01*
X37997754Y-9457219D01*
X37833204Y-9521044D01*
X37659380Y-9551694D01*
X37482919Y-9547997D01*
X37310538Y-9510098D01*
X37148800Y-9439436D01*
X37003868Y-9338705D01*
X36881260Y-9211742D01*
X36785648Y-9063380D01*
X36720674Y-8899274D01*
X36688812Y-8725674D01*
X36691276Y-8549195D01*
X36727973Y-8376550D01*
X36797505Y-8214319D01*
X36897222Y-8068688D01*
X37023325Y-7945198D01*
X37171012Y-7848554D01*
X37334659Y-7782436D01*
X37508035Y-7749363D01*
X37684531Y-7750596D01*
X37684531Y-7750596D01*
G37*
G36*
X39724531Y-7750596D02*
X39897429Y-7786086D01*
X40060135Y-7854481D01*
X40206462Y-7953180D01*
X40330828Y-8078417D01*
X40428500Y-8225427D01*
X40495761Y-8388612D01*
X40529906Y-8561061D01*
X40529906Y-8561077D01*
X40530039Y-8561750D01*
X40527224Y-8763346D01*
X40527073Y-8764009D01*
X40527073Y-8764033D01*
X40488125Y-8935462D01*
X40416337Y-9096698D01*
X40314594Y-9240929D01*
X40186779Y-9362645D01*
X40037754Y-9457219D01*
X39873204Y-9521044D01*
X39699380Y-9551694D01*
X39522919Y-9547997D01*
X39350538Y-9510098D01*
X39188800Y-9439436D01*
X39043868Y-9338705D01*
X38921260Y-9211742D01*
X38825648Y-9063380D01*
X38760674Y-8899274D01*
X38728812Y-8725674D01*
X38731276Y-8549195D01*
X38767973Y-8376550D01*
X38837505Y-8214319D01*
X38937222Y-8068688D01*
X39063325Y-7945198D01*
X39211012Y-7848554D01*
X39374659Y-7782436D01*
X39548035Y-7749363D01*
X39724531Y-7750596D01*
X39724531Y-7750596D01*
G37*
G36*
X65124531Y-7750596D02*
X65297429Y-7786086D01*
X65460135Y-7854481D01*
X65606462Y-7953180D01*
X65730828Y-8078417D01*
X65828500Y-8225427D01*
X65895761Y-8388612D01*
X65929906Y-8561061D01*
X65929906Y-8561077D01*
X65930039Y-8561750D01*
X65927224Y-8763346D01*
X65927073Y-8764009D01*
X65927073Y-8764033D01*
X65888125Y-8935462D01*
X65816337Y-9096698D01*
X65714594Y-9240929D01*
X65586779Y-9362645D01*
X65437754Y-9457219D01*
X65273204Y-9521044D01*
X65099380Y-9551694D01*
X64922919Y-9547997D01*
X64750538Y-9510098D01*
X64588800Y-9439436D01*
X64443868Y-9338705D01*
X64321260Y-9211742D01*
X64225648Y-9063380D01*
X64160674Y-8899274D01*
X64128812Y-8725674D01*
X64131276Y-8549195D01*
X64167973Y-8376550D01*
X64237505Y-8214319D01*
X64337222Y-8068688D01*
X64463325Y-7945198D01*
X64611012Y-7848554D01*
X64774659Y-7782436D01*
X64948035Y-7749363D01*
X65124531Y-7750596D01*
X65124531Y-7750596D01*
G37*
G36*
X63084531Y-7750596D02*
X63257429Y-7786086D01*
X63420135Y-7854481D01*
X63566462Y-7953180D01*
X63690828Y-8078417D01*
X63788500Y-8225427D01*
X63855761Y-8388612D01*
X63889906Y-8561061D01*
X63889906Y-8561077D01*
X63890039Y-8561750D01*
X63887224Y-8763346D01*
X63887073Y-8764009D01*
X63887073Y-8764033D01*
X63848125Y-8935462D01*
X63776337Y-9096698D01*
X63674594Y-9240929D01*
X63546779Y-9362645D01*
X63397754Y-9457219D01*
X63233204Y-9521044D01*
X63059380Y-9551694D01*
X62882919Y-9547997D01*
X62710538Y-9510098D01*
X62548800Y-9439436D01*
X62403868Y-9338705D01*
X62281260Y-9211742D01*
X62185648Y-9063380D01*
X62120674Y-8899274D01*
X62088812Y-8725674D01*
X62091276Y-8549195D01*
X62127973Y-8376550D01*
X62197505Y-8214319D01*
X62297222Y-8068688D01*
X62423325Y-7945198D01*
X62571012Y-7848554D01*
X62734659Y-7782436D01*
X62908035Y-7749363D01*
X63084531Y-7750596D01*
X63084531Y-7750596D01*
G37*
G36*
X62064531Y-5210596D02*
X62237429Y-5246086D01*
X62400135Y-5314481D01*
X62546462Y-5413180D01*
X62670828Y-5538417D01*
X62768500Y-5685427D01*
X62835761Y-5848612D01*
X62869906Y-6021061D01*
X62869906Y-6021077D01*
X62870039Y-6021750D01*
X62867224Y-6223346D01*
X62867073Y-6224009D01*
X62867073Y-6224033D01*
X62828125Y-6395462D01*
X62756337Y-6556698D01*
X62654594Y-6700929D01*
X62526779Y-6822645D01*
X62377754Y-6917219D01*
X62213204Y-6981044D01*
X62039380Y-7011694D01*
X61862919Y-7007997D01*
X61690538Y-6970098D01*
X61528800Y-6899436D01*
X61383868Y-6798705D01*
X61261260Y-6671742D01*
X61165648Y-6523380D01*
X61100674Y-6359274D01*
X61068812Y-6185674D01*
X61071276Y-6009195D01*
X61107973Y-5836550D01*
X61177505Y-5674319D01*
X61277222Y-5528688D01*
X61403325Y-5405198D01*
X61551012Y-5308554D01*
X61714659Y-5242436D01*
X61888035Y-5209363D01*
X62064531Y-5210596D01*
X62064531Y-5210596D01*
G37*
G36*
X66144531Y-5210596D02*
X66317429Y-5246086D01*
X66480135Y-5314481D01*
X66626462Y-5413180D01*
X66750828Y-5538417D01*
X66848500Y-5685427D01*
X66915761Y-5848612D01*
X66949906Y-6021061D01*
X66949906Y-6021077D01*
X66950039Y-6021750D01*
X66947224Y-6223346D01*
X66947073Y-6224009D01*
X66947073Y-6224033D01*
X66908125Y-6395462D01*
X66836337Y-6556698D01*
X66734594Y-6700929D01*
X66606779Y-6822645D01*
X66457754Y-6917219D01*
X66293204Y-6981044D01*
X66119380Y-7011694D01*
X65942919Y-7007997D01*
X65770538Y-6970098D01*
X65608800Y-6899436D01*
X65463868Y-6798705D01*
X65341260Y-6671742D01*
X65245648Y-6523380D01*
X65180674Y-6359274D01*
X65148812Y-6185674D01*
X65151276Y-6009195D01*
X65187973Y-5836550D01*
X65257505Y-5674319D01*
X65357222Y-5528688D01*
X65483325Y-5405198D01*
X65631012Y-5308554D01*
X65794659Y-5242436D01*
X65968035Y-5209363D01*
X66144531Y-5210596D01*
X66144531Y-5210596D01*
G37*
G36*
X64104531Y-5210596D02*
X64277429Y-5246086D01*
X64440135Y-5314481D01*
X64586462Y-5413180D01*
X64710828Y-5538417D01*
X64808500Y-5685427D01*
X64875761Y-5848612D01*
X64909906Y-6021061D01*
X64909906Y-6021077D01*
X64910039Y-6021750D01*
X64907224Y-6223346D01*
X64907073Y-6224009D01*
X64907073Y-6224033D01*
X64868125Y-6395462D01*
X64796337Y-6556698D01*
X64694594Y-6700929D01*
X64566779Y-6822645D01*
X64417754Y-6917219D01*
X64253204Y-6981044D01*
X64079380Y-7011694D01*
X63902919Y-7007997D01*
X63730538Y-6970098D01*
X63568800Y-6899436D01*
X63423868Y-6798705D01*
X63301260Y-6671742D01*
X63205648Y-6523380D01*
X63140674Y-6359274D01*
X63108812Y-6185674D01*
X63111276Y-6009195D01*
X63147973Y-5836550D01*
X63217505Y-5674319D01*
X63317222Y-5528688D01*
X63443325Y-5405198D01*
X63591012Y-5308554D01*
X63754659Y-5242436D01*
X63928035Y-5209363D01*
X64104531Y-5210596D01*
X64104531Y-5210596D01*
G37*
G36*
X11264531Y-5210596D02*
X11437429Y-5246086D01*
X11600135Y-5314481D01*
X11746462Y-5413180D01*
X11870828Y-5538417D01*
X11968500Y-5685427D01*
X12035761Y-5848612D01*
X12069906Y-6021061D01*
X12069906Y-6021077D01*
X12070039Y-6021750D01*
X12067224Y-6223346D01*
X12067073Y-6224009D01*
X12067073Y-6224033D01*
X12028125Y-6395462D01*
X11956337Y-6556698D01*
X11854594Y-6700929D01*
X11726779Y-6822645D01*
X11577754Y-6917219D01*
X11413204Y-6981044D01*
X11239380Y-7011694D01*
X11062919Y-7007997D01*
X10890538Y-6970098D01*
X10728800Y-6899436D01*
X10583868Y-6798705D01*
X10461260Y-6671742D01*
X10365648Y-6523380D01*
X10300674Y-6359274D01*
X10268812Y-6185674D01*
X10271276Y-6009195D01*
X10307973Y-5836550D01*
X10377505Y-5674319D01*
X10477222Y-5528688D01*
X10603325Y-5405198D01*
X10751012Y-5308554D01*
X10914659Y-5242436D01*
X11088035Y-5209363D01*
X11264531Y-5210596D01*
X11264531Y-5210596D01*
G37*
G36*
X40744531Y-5210596D02*
X40917429Y-5246086D01*
X41080135Y-5314481D01*
X41226462Y-5413180D01*
X41350828Y-5538417D01*
X41448500Y-5685427D01*
X41515761Y-5848612D01*
X41549906Y-6021061D01*
X41549906Y-6021077D01*
X41550039Y-6021750D01*
X41547224Y-6223346D01*
X41547073Y-6224009D01*
X41547073Y-6224033D01*
X41508125Y-6395462D01*
X41436337Y-6556698D01*
X41334594Y-6700929D01*
X41206779Y-6822645D01*
X41057754Y-6917219D01*
X40893204Y-6981044D01*
X40719380Y-7011694D01*
X40542919Y-7007997D01*
X40370538Y-6970098D01*
X40208800Y-6899436D01*
X40063868Y-6798705D01*
X39941260Y-6671742D01*
X39845648Y-6523380D01*
X39780674Y-6359274D01*
X39748812Y-6185674D01*
X39751276Y-6009195D01*
X39787973Y-5836550D01*
X39857505Y-5674319D01*
X39957222Y-5528688D01*
X40083325Y-5405198D01*
X40231012Y-5308554D01*
X40394659Y-5242436D01*
X40568035Y-5209363D01*
X40744531Y-5210596D01*
X40744531Y-5210596D01*
G37*
G36*
X38704531Y-5210596D02*
X38877429Y-5246086D01*
X39040135Y-5314481D01*
X39186462Y-5413180D01*
X39310828Y-5538417D01*
X39408500Y-5685427D01*
X39475761Y-5848612D01*
X39509906Y-6021061D01*
X39509906Y-6021077D01*
X39510039Y-6021750D01*
X39507224Y-6223346D01*
X39507073Y-6224009D01*
X39507073Y-6224033D01*
X39468125Y-6395462D01*
X39396337Y-6556698D01*
X39294594Y-6700929D01*
X39166779Y-6822645D01*
X39017754Y-6917219D01*
X38853204Y-6981044D01*
X38679380Y-7011694D01*
X38502919Y-7007997D01*
X38330538Y-6970098D01*
X38168800Y-6899436D01*
X38023868Y-6798705D01*
X37901260Y-6671742D01*
X37805648Y-6523380D01*
X37740674Y-6359274D01*
X37708812Y-6185674D01*
X37711276Y-6009195D01*
X37747973Y-5836550D01*
X37817505Y-5674319D01*
X37917222Y-5528688D01*
X38043325Y-5405198D01*
X38191012Y-5308554D01*
X38354659Y-5242436D01*
X38528035Y-5209363D01*
X38704531Y-5210596D01*
X38704531Y-5210596D01*
G37*
G36*
X13304531Y-5210596D02*
X13477429Y-5246086D01*
X13640135Y-5314481D01*
X13786462Y-5413180D01*
X13910828Y-5538417D01*
X14008500Y-5685427D01*
X14075761Y-5848612D01*
X14109906Y-6021061D01*
X14109906Y-6021077D01*
X14110039Y-6021750D01*
X14107224Y-6223346D01*
X14107073Y-6224009D01*
X14107073Y-6224033D01*
X14068125Y-6395462D01*
X13996337Y-6556698D01*
X13894594Y-6700929D01*
X13766779Y-6822645D01*
X13617754Y-6917219D01*
X13453204Y-6981044D01*
X13279380Y-7011694D01*
X13102919Y-7007997D01*
X12930538Y-6970098D01*
X12768800Y-6899436D01*
X12623868Y-6798705D01*
X12501260Y-6671742D01*
X12405648Y-6523380D01*
X12340674Y-6359274D01*
X12308812Y-6185674D01*
X12311276Y-6009195D01*
X12347973Y-5836550D01*
X12417505Y-5674319D01*
X12517222Y-5528688D01*
X12643325Y-5405198D01*
X12791012Y-5308554D01*
X12954659Y-5242436D01*
X13128035Y-5209363D01*
X13304531Y-5210596D01*
X13304531Y-5210596D01*
G37*
G36*
X36664531Y-5210596D02*
X36837429Y-5246086D01*
X37000135Y-5314481D01*
X37146462Y-5413180D01*
X37270828Y-5538417D01*
X37368500Y-5685427D01*
X37435761Y-5848612D01*
X37469906Y-6021061D01*
X37469906Y-6021077D01*
X37470039Y-6021750D01*
X37467224Y-6223346D01*
X37467073Y-6224009D01*
X37467073Y-6224033D01*
X37428125Y-6395462D01*
X37356337Y-6556698D01*
X37254594Y-6700929D01*
X37126779Y-6822645D01*
X36977754Y-6917219D01*
X36813204Y-6981044D01*
X36639380Y-7011694D01*
X36462919Y-7007997D01*
X36290538Y-6970098D01*
X36128800Y-6899436D01*
X35983868Y-6798705D01*
X35861260Y-6671742D01*
X35765648Y-6523380D01*
X35700674Y-6359274D01*
X35668812Y-6185674D01*
X35671276Y-6009195D01*
X35707973Y-5836550D01*
X35777505Y-5674319D01*
X35877222Y-5528688D01*
X36003325Y-5405198D01*
X36151012Y-5308554D01*
X36314659Y-5242436D01*
X36488035Y-5209363D01*
X36664531Y-5210596D01*
X36664531Y-5210596D01*
G37*
G36*
X15344531Y-5210596D02*
X15517429Y-5246086D01*
X15680135Y-5314481D01*
X15826462Y-5413180D01*
X15950828Y-5538417D01*
X16048500Y-5685427D01*
X16115761Y-5848612D01*
X16149906Y-6021061D01*
X16149906Y-6021077D01*
X16150039Y-6021750D01*
X16147224Y-6223346D01*
X16147073Y-6224009D01*
X16147073Y-6224033D01*
X16108125Y-6395462D01*
X16036337Y-6556698D01*
X15934594Y-6700929D01*
X15806779Y-6822645D01*
X15657754Y-6917219D01*
X15493204Y-6981044D01*
X15319380Y-7011694D01*
X15142919Y-7007997D01*
X14970538Y-6970098D01*
X14808800Y-6899436D01*
X14663868Y-6798705D01*
X14541260Y-6671742D01*
X14445648Y-6523380D01*
X14380674Y-6359274D01*
X14348812Y-6185674D01*
X14351276Y-6009195D01*
X14387973Y-5836550D01*
X14457505Y-5674319D01*
X14557222Y-5528688D01*
X14683325Y-5405198D01*
X14831012Y-5308554D01*
X14994659Y-5242436D01*
X15168035Y-5209363D01*
X15344531Y-5210596D01*
X15344531Y-5210596D01*
G37*
M02*
