G04 #@! TF.FileFunction,Copper,L2,Bot,Signal*
%FSLAX46Y46*%
G04 Gerber Fmt 4.6, Leading zero omitted, Abs format (unit mm)*
G04 Created by KiCad (PCBNEW 4.0.4-stable) date 01/17/17 23:29:42*
%MOMM*%
%LPD*%
G01*
G04 APERTURE LIST*
%ADD10C,0.150000*%
%ADD11R,1.500000X1.500000*%
%ADD12C,1.500000*%
%ADD13C,1.400000*%
%ADD14C,0.600000*%
%ADD15C,0.160000*%
G04 APERTURE END LIST*
D10*
D11*
X27940000Y-17780000D03*
D12*
X30480000Y-17780000D03*
X33020000Y-17780000D03*
D11*
X12700000Y-22860000D03*
D12*
X15240000Y-22860000D03*
X12700000Y-20320000D03*
X15240000Y-20320000D03*
X12700000Y-17780000D03*
X15240000Y-17780000D03*
D11*
X38100000Y-22860000D03*
D12*
X40640000Y-22860000D03*
X38100000Y-20320000D03*
X40640000Y-20320000D03*
X38100000Y-17780000D03*
X40640000Y-17780000D03*
D11*
X63500000Y-22860000D03*
D12*
X66040000Y-22860000D03*
X63500000Y-20320000D03*
X66040000Y-20320000D03*
X63500000Y-17780000D03*
X66040000Y-17780000D03*
D11*
X63500000Y-27940000D03*
D12*
X60960000Y-27940000D03*
X63500000Y-30480000D03*
X60960000Y-30480000D03*
X63500000Y-33020000D03*
X60960000Y-33020000D03*
D11*
X48260000Y-27940000D03*
D12*
X45720000Y-27940000D03*
X48260000Y-30480000D03*
X45720000Y-30480000D03*
X48260000Y-33020000D03*
X45720000Y-33020000D03*
D11*
X7620000Y-34290000D03*
D12*
X10120000Y-34290000D03*
D11*
X17780000Y-38100000D03*
D12*
X20320000Y-38100000D03*
X22860000Y-38100000D03*
D11*
X27940000Y-15240000D03*
D12*
X30480000Y-15240000D03*
X33020000Y-15240000D03*
D13*
X40650000Y-39610000D03*
X39630000Y-42150000D03*
X38610000Y-39610000D03*
X37590000Y-42150000D03*
X36570000Y-39610000D03*
X35550000Y-42150000D03*
X66050000Y-39610000D03*
X65030000Y-42150000D03*
X64010000Y-39610000D03*
X62990000Y-42150000D03*
X61970000Y-39610000D03*
X60950000Y-42150000D03*
X35550000Y-8650000D03*
X36570000Y-6110000D03*
X37590000Y-8650000D03*
X38610000Y-6110000D03*
X39630000Y-8650000D03*
X40650000Y-6110000D03*
X10150000Y-8650000D03*
X11170000Y-6110000D03*
X12190000Y-8650000D03*
X13210000Y-6110000D03*
X14230000Y-8650000D03*
X15250000Y-6110000D03*
X60950000Y-8650000D03*
X61970000Y-6110000D03*
X62990000Y-8650000D03*
X64010000Y-6110000D03*
X65030000Y-8650000D03*
X66050000Y-6110000D03*
D14*
X28575000Y-20955000D03*
X35179000Y-22479000D03*
X36576000Y-28702000D03*
X34036000Y-30607000D03*
X32258000Y-33020000D03*
X23114000Y-32131000D03*
X23114000Y-32639000D03*
X23114000Y-31623000D03*
X24384000Y-13208000D03*
X35814000Y-13208000D03*
X25400000Y-27305000D03*
X57150000Y-25781000D03*
X57150000Y-17653000D03*
X59944000Y-17653000D03*
X25400000Y-36830000D03*
X39116000Y-34290000D03*
X27940000Y-34290000D03*
X9017000Y-29210000D03*
X30480000Y-29210000D03*
X25654000Y-11684000D03*
X26670000Y-26670000D03*
X58420000Y-25146000D03*
X64008000Y-15240000D03*
X58420000Y-15240000D03*
X24130000Y-36195000D03*
X26670000Y-39624000D03*
X31750000Y-28575000D03*
X19558000Y-28575000D03*
X53848000Y-15494000D03*
X46228000Y-37084000D03*
X70104000Y-33274000D03*
X44958000Y-15621000D03*
X12573000Y-15621000D03*
X4445000Y-29972000D03*
X17272000Y-34036000D03*
X17272000Y-31242000D03*
X17272000Y-31750000D03*
X17272000Y-30734000D03*
X11938000Y-40640000D03*
X10922000Y-40640000D03*
X33528000Y-19177000D03*
X35814000Y-18034000D03*
X42037000Y-18923000D03*
X60833000Y-20320000D03*
X68072000Y-18288000D03*
X46990000Y-34290000D03*
X44196000Y-34290000D03*
X42037000Y-30480000D03*
X31115000Y-19304000D03*
X29337000Y-19304000D03*
D15*
X39630000Y-9920000D02*
X39624000Y-9920000D01*
X39624000Y-9920000D02*
X39610000Y-9920000D01*
X35814000Y-13208000D02*
X24384000Y-13208000D01*
X42799000Y-27305000D02*
X25400000Y-27305000D01*
X44323000Y-25781000D02*
X42799000Y-27305000D01*
X57150000Y-25781000D02*
X44323000Y-25781000D01*
X59944000Y-17653000D02*
X57150000Y-17653000D01*
X45085000Y-39243000D02*
X55245000Y-39243000D01*
X42672000Y-36830000D02*
X25400000Y-36830000D01*
X42672000Y-36830000D02*
X45085000Y-39243000D01*
X62984000Y-44196000D02*
X65030000Y-42150000D01*
X60198000Y-44196000D02*
X62984000Y-44196000D01*
X55245000Y-39243000D02*
X60198000Y-44196000D01*
X27940000Y-34290000D02*
X39116000Y-34290000D01*
X30480000Y-29210000D02*
X9017000Y-29210000D01*
X25654000Y-11684000D02*
X36596000Y-11684000D01*
X36596000Y-11684000D02*
X39630000Y-8650000D01*
X39624000Y-8656000D02*
X39630000Y-8650000D01*
X26670000Y-26670000D02*
X42418000Y-26670000D01*
X42418000Y-26670000D02*
X43942000Y-25146000D01*
X43942000Y-25146000D02*
X58420000Y-25146000D01*
X58420000Y-15240000D02*
X64008000Y-15240000D01*
X45706000Y-38340000D02*
X60700000Y-38340000D01*
X45706000Y-38340000D02*
X43561000Y-36195000D01*
X43561000Y-36195000D02*
X24130000Y-36195000D01*
X60700000Y-38340000D02*
X61970000Y-39610000D01*
X36570000Y-39610000D02*
X26684000Y-39610000D01*
X26684000Y-39610000D02*
X26670000Y-39624000D01*
X19558000Y-28575000D02*
X31750000Y-28575000D01*
X31750000Y-19050000D02*
X30480000Y-17780000D01*
X33401000Y-19050000D02*
X31750000Y-19050000D01*
X33528000Y-19177000D02*
X33401000Y-19050000D01*
X35814000Y-18034000D02*
X38100000Y-20320000D01*
X40640000Y-20320000D02*
X42037000Y-18923000D01*
X60833000Y-20320000D02*
X63500000Y-20320000D01*
X66040000Y-20320000D02*
X68072000Y-18288000D01*
X44196000Y-34290000D02*
X46990000Y-34290000D01*
X42037000Y-30480000D02*
X45720000Y-30480000D01*
X29337000Y-19304000D02*
X31115000Y-19304000D01*
G36*
X20080484Y-1984598D02*
X20079519Y-3090550D01*
X20501857Y-4112686D01*
X21283201Y-4895395D01*
X22304598Y-5319516D01*
X23410550Y-5320481D01*
X24432686Y-4898143D01*
X25215395Y-4116799D01*
X25399930Y-3672389D01*
X25581857Y-4112686D01*
X26363201Y-4895395D01*
X27384598Y-5319516D01*
X28490550Y-5320481D01*
X29512686Y-4898143D01*
X30295395Y-4116799D01*
X30301083Y-4103099D01*
X30619744Y-4103099D01*
X30844585Y-4647257D01*
X31260553Y-5063951D01*
X31804318Y-5289743D01*
X32393099Y-5290256D01*
X32937257Y-5065415D01*
X33353951Y-4649447D01*
X33579743Y-4105682D01*
X33579745Y-4103099D01*
X42619744Y-4103099D01*
X42844585Y-4647257D01*
X43260553Y-5063951D01*
X43804318Y-5289743D01*
X44393099Y-5290256D01*
X44937257Y-5065415D01*
X45353951Y-4649447D01*
X45579743Y-4105682D01*
X45580256Y-3516901D01*
X45355415Y-2972743D01*
X44939447Y-2556049D01*
X44395682Y-2330257D01*
X43806901Y-2329744D01*
X43262743Y-2554585D01*
X42846049Y-2970553D01*
X42620257Y-3514318D01*
X42619744Y-4103099D01*
X33579745Y-4103099D01*
X33580256Y-3516901D01*
X33355415Y-2972743D01*
X32939447Y-2556049D01*
X32395682Y-2330257D01*
X31806901Y-2329744D01*
X31262743Y-2554585D01*
X30846049Y-2970553D01*
X30620257Y-3514318D01*
X30619744Y-4103099D01*
X30301083Y-4103099D01*
X30719516Y-3095402D01*
X30720481Y-1989450D01*
X30456266Y-1350000D01*
X45743992Y-1350000D01*
X45480484Y-1984598D01*
X45479519Y-3090550D01*
X45901857Y-4112686D01*
X46683201Y-4895395D01*
X47704598Y-5319516D01*
X48810550Y-5320481D01*
X49832686Y-4898143D01*
X50615395Y-4116799D01*
X50799930Y-3672389D01*
X50981857Y-4112686D01*
X51763201Y-4895395D01*
X52784598Y-5319516D01*
X53890550Y-5320481D01*
X54912686Y-4898143D01*
X55695395Y-4116799D01*
X55701083Y-4103099D01*
X56019744Y-4103099D01*
X56244585Y-4647257D01*
X56660553Y-5063951D01*
X57204318Y-5289743D01*
X57793099Y-5290256D01*
X58337257Y-5065415D01*
X58753951Y-4649447D01*
X58979743Y-4105682D01*
X58979745Y-4103099D01*
X68019744Y-4103099D01*
X68244585Y-4647257D01*
X68660553Y-5063951D01*
X69204318Y-5289743D01*
X69793099Y-5290256D01*
X70337257Y-5065415D01*
X70753951Y-4649447D01*
X70979743Y-4105682D01*
X70980256Y-3516901D01*
X70755415Y-2972743D01*
X70339447Y-2556049D01*
X69795682Y-2330257D01*
X69206901Y-2329744D01*
X68662743Y-2554585D01*
X68246049Y-2970553D01*
X68020257Y-3514318D01*
X68019744Y-4103099D01*
X58979745Y-4103099D01*
X58980256Y-3516901D01*
X58755415Y-2972743D01*
X58339447Y-2556049D01*
X57795682Y-2330257D01*
X57206901Y-2329744D01*
X56662743Y-2554585D01*
X56246049Y-2970553D01*
X56020257Y-3514318D01*
X56019744Y-4103099D01*
X55701083Y-4103099D01*
X56119516Y-3095402D01*
X56120481Y-1989450D01*
X55856266Y-1350000D01*
X71143992Y-1350000D01*
X70880484Y-1984598D01*
X70879519Y-3090550D01*
X71301857Y-4112686D01*
X72083201Y-4895395D01*
X73104598Y-5319516D01*
X74210550Y-5320481D01*
X74850000Y-5056266D01*
X74850000Y-43203992D01*
X74215402Y-42940484D01*
X73109450Y-42939519D01*
X72087314Y-43361857D01*
X71304605Y-44143201D01*
X70880484Y-45164598D01*
X70879519Y-46270550D01*
X71143734Y-46910000D01*
X55856008Y-46910000D01*
X56119516Y-46275402D01*
X56120481Y-45169450D01*
X55944317Y-44743099D01*
X56019744Y-44743099D01*
X56244585Y-45287257D01*
X56660553Y-45703951D01*
X57204318Y-45929743D01*
X57793099Y-45930256D01*
X58337257Y-45705415D01*
X58753951Y-45289447D01*
X58979743Y-44745682D01*
X58979745Y-44743099D01*
X68019744Y-44743099D01*
X68244585Y-45287257D01*
X68660553Y-45703951D01*
X69204318Y-45929743D01*
X69793099Y-45930256D01*
X70337257Y-45705415D01*
X70753951Y-45289447D01*
X70979743Y-44745682D01*
X70980256Y-44156901D01*
X70755415Y-43612743D01*
X70339447Y-43196049D01*
X69795682Y-42970257D01*
X69206901Y-42969744D01*
X68662743Y-43194585D01*
X68246049Y-43610553D01*
X68020257Y-44154318D01*
X68019744Y-44743099D01*
X58979745Y-44743099D01*
X58980256Y-44156901D01*
X58755415Y-43612743D01*
X58339447Y-43196049D01*
X57795682Y-42970257D01*
X57206901Y-42969744D01*
X56662743Y-43194585D01*
X56246049Y-43610553D01*
X56020257Y-44154318D01*
X56019744Y-44743099D01*
X55944317Y-44743099D01*
X55698143Y-44147314D01*
X54916799Y-43364605D01*
X53895402Y-42940484D01*
X52789450Y-42939519D01*
X51767314Y-43361857D01*
X50984605Y-44143201D01*
X50800070Y-44587611D01*
X50618143Y-44147314D01*
X49836799Y-43364605D01*
X48815402Y-42940484D01*
X47709450Y-42939519D01*
X46687314Y-43361857D01*
X45904605Y-44143201D01*
X45480484Y-45164598D01*
X45479519Y-46270550D01*
X45743734Y-46910000D01*
X30560000Y-46910000D01*
X30560000Y-46659559D01*
X30719516Y-46275402D01*
X30720481Y-45169450D01*
X30560000Y-44781056D01*
X30560000Y-44743099D01*
X30619744Y-44743099D01*
X30844585Y-45287257D01*
X31260553Y-45703951D01*
X31804318Y-45929743D01*
X32393099Y-45930256D01*
X32937257Y-45705415D01*
X33353951Y-45289447D01*
X33579743Y-44745682D01*
X33579745Y-44743099D01*
X42619744Y-44743099D01*
X42844585Y-45287257D01*
X43260553Y-45703951D01*
X43804318Y-45929743D01*
X44393099Y-45930256D01*
X44937257Y-45705415D01*
X45353951Y-45289447D01*
X45579743Y-44745682D01*
X45580256Y-44156901D01*
X45355415Y-43612743D01*
X44939447Y-43196049D01*
X44395682Y-42970257D01*
X43806901Y-42969744D01*
X43262743Y-43194585D01*
X42846049Y-43610553D01*
X42620257Y-44154318D01*
X42619744Y-44743099D01*
X33579745Y-44743099D01*
X33580256Y-44156901D01*
X33355415Y-43612743D01*
X32939447Y-43196049D01*
X32395682Y-42970257D01*
X31806901Y-42969744D01*
X31262743Y-43194585D01*
X30846049Y-43610553D01*
X30620257Y-44154318D01*
X30619744Y-44743099D01*
X30560000Y-44743099D01*
X30560000Y-42344079D01*
X34569831Y-42344079D01*
X34718712Y-42704400D01*
X34994150Y-42980319D01*
X35354211Y-43129829D01*
X35744079Y-43130169D01*
X36104400Y-42981288D01*
X36380319Y-42705850D01*
X36529829Y-42345789D01*
X36529830Y-42344079D01*
X36609831Y-42344079D01*
X36758712Y-42704400D01*
X37034150Y-42980319D01*
X37394211Y-43129829D01*
X37784079Y-43130169D01*
X38144400Y-42981288D01*
X38420319Y-42705850D01*
X38569829Y-42345789D01*
X38569830Y-42344079D01*
X38649831Y-42344079D01*
X38798712Y-42704400D01*
X39074150Y-42980319D01*
X39434211Y-43129829D01*
X39824079Y-43130169D01*
X40184400Y-42981288D01*
X40460319Y-42705850D01*
X40609829Y-42345789D01*
X40610169Y-41955921D01*
X40461288Y-41595600D01*
X40185850Y-41319681D01*
X39825789Y-41170171D01*
X39435921Y-41169831D01*
X39075600Y-41318712D01*
X38799681Y-41594150D01*
X38650171Y-41954211D01*
X38649831Y-42344079D01*
X38569830Y-42344079D01*
X38570169Y-41955921D01*
X38421288Y-41595600D01*
X38145850Y-41319681D01*
X37785789Y-41170171D01*
X37395921Y-41169831D01*
X37035600Y-41318712D01*
X36759681Y-41594150D01*
X36610171Y-41954211D01*
X36609831Y-42344079D01*
X36529830Y-42344079D01*
X36530169Y-41955921D01*
X36381288Y-41595600D01*
X36105850Y-41319681D01*
X35745789Y-41170171D01*
X35355921Y-41169831D01*
X34995600Y-41318712D01*
X34719681Y-41594150D01*
X34570171Y-41954211D01*
X34569831Y-42344079D01*
X30560000Y-42344079D01*
X30560000Y-39970000D01*
X35658388Y-39970000D01*
X35738712Y-40164400D01*
X36014150Y-40440319D01*
X36374211Y-40589829D01*
X36764079Y-40590169D01*
X37124400Y-40441288D01*
X37189639Y-40376162D01*
X38084255Y-40376162D01*
X38168781Y-40506507D01*
X38545445Y-40607112D01*
X38931937Y-40555915D01*
X39051219Y-40506507D01*
X39135745Y-40376162D01*
X38610000Y-39850416D01*
X38084255Y-40376162D01*
X37189639Y-40376162D01*
X37400319Y-40165850D01*
X37549829Y-39805789D01*
X37550056Y-39545445D01*
X37612888Y-39545445D01*
X37664085Y-39931937D01*
X37713493Y-40051219D01*
X37843838Y-40135745D01*
X38369584Y-39610000D01*
X38850416Y-39610000D01*
X39376162Y-40135745D01*
X39506507Y-40051219D01*
X39572516Y-39804079D01*
X39669831Y-39804079D01*
X39818712Y-40164400D01*
X40094150Y-40440319D01*
X40454211Y-40589829D01*
X40844079Y-40590169D01*
X41204400Y-40441288D01*
X41480319Y-40165850D01*
X41629829Y-39805789D01*
X41630169Y-39415921D01*
X41481288Y-39055600D01*
X41205850Y-38779681D01*
X40845789Y-38630171D01*
X40455921Y-38629831D01*
X40095600Y-38778712D01*
X39819681Y-39054150D01*
X39670171Y-39414211D01*
X39669831Y-39804079D01*
X39572516Y-39804079D01*
X39607112Y-39674555D01*
X39555915Y-39288063D01*
X39506507Y-39168781D01*
X39376162Y-39084255D01*
X38850416Y-39610000D01*
X38369584Y-39610000D01*
X37843838Y-39084255D01*
X37713493Y-39168781D01*
X37612888Y-39545445D01*
X37550056Y-39545445D01*
X37550169Y-39415921D01*
X37401288Y-39055600D01*
X37189896Y-38843838D01*
X38084255Y-38843838D01*
X38610000Y-39369584D01*
X39135745Y-38843838D01*
X39051219Y-38713493D01*
X38674555Y-38612888D01*
X38288063Y-38664085D01*
X38168781Y-38713493D01*
X38084255Y-38843838D01*
X37189896Y-38843838D01*
X37125850Y-38779681D01*
X36765789Y-38630171D01*
X36375921Y-38629831D01*
X36015600Y-38778712D01*
X35739681Y-39054150D01*
X35658357Y-39250000D01*
X30560000Y-39250000D01*
X30560000Y-37190000D01*
X42522884Y-37190000D01*
X44830441Y-39497558D01*
X44947233Y-39575597D01*
X44970090Y-39580143D01*
X45085000Y-39603000D01*
X55095884Y-39603000D01*
X59943442Y-44450559D01*
X60060234Y-44528597D01*
X60198000Y-44556000D01*
X62984000Y-44556000D01*
X63121766Y-44528597D01*
X63238558Y-44450558D01*
X64639951Y-43049165D01*
X64834211Y-43129829D01*
X65224079Y-43130169D01*
X65584400Y-42981288D01*
X65860319Y-42705850D01*
X66009829Y-42345789D01*
X66010169Y-41955921D01*
X65861288Y-41595600D01*
X65585850Y-41319681D01*
X65225789Y-41170171D01*
X64835921Y-41169831D01*
X64475600Y-41318712D01*
X64199681Y-41594150D01*
X64050171Y-41954211D01*
X64049831Y-42344079D01*
X64130813Y-42540071D01*
X62834884Y-43836000D01*
X60347117Y-43836000D01*
X58855196Y-42344079D01*
X59969831Y-42344079D01*
X60118712Y-42704400D01*
X60394150Y-42980319D01*
X60754211Y-43129829D01*
X61144079Y-43130169D01*
X61504400Y-42981288D01*
X61780319Y-42705850D01*
X61929829Y-42345789D01*
X61929830Y-42344079D01*
X62009831Y-42344079D01*
X62158712Y-42704400D01*
X62434150Y-42980319D01*
X62794211Y-43129829D01*
X63184079Y-43130169D01*
X63544400Y-42981288D01*
X63820319Y-42705850D01*
X63969829Y-42345789D01*
X63970169Y-41955921D01*
X63821288Y-41595600D01*
X63545850Y-41319681D01*
X63185789Y-41170171D01*
X62795921Y-41169831D01*
X62435600Y-41318712D01*
X62159681Y-41594150D01*
X62010171Y-41954211D01*
X62009831Y-42344079D01*
X61929830Y-42344079D01*
X61930169Y-41955921D01*
X61781288Y-41595600D01*
X61505850Y-41319681D01*
X61145789Y-41170171D01*
X60755921Y-41169831D01*
X60395600Y-41318712D01*
X60119681Y-41594150D01*
X59970171Y-41954211D01*
X59969831Y-42344079D01*
X58855196Y-42344079D01*
X55499558Y-38988442D01*
X55382766Y-38910403D01*
X55245000Y-38883000D01*
X45234117Y-38883000D01*
X42926558Y-36575442D01*
X42895965Y-36555000D01*
X43411884Y-36555000D01*
X45451441Y-38594558D01*
X45555495Y-38664085D01*
X45568234Y-38672597D01*
X45706000Y-38700000D01*
X60550884Y-38700000D01*
X61070835Y-39219951D01*
X60990171Y-39414211D01*
X60989831Y-39804079D01*
X61138712Y-40164400D01*
X61414150Y-40440319D01*
X61774211Y-40589829D01*
X62164079Y-40590169D01*
X62524400Y-40441288D01*
X62589639Y-40376162D01*
X63484255Y-40376162D01*
X63568781Y-40506507D01*
X63945445Y-40607112D01*
X64331937Y-40555915D01*
X64451219Y-40506507D01*
X64535745Y-40376162D01*
X64010000Y-39850416D01*
X63484255Y-40376162D01*
X62589639Y-40376162D01*
X62800319Y-40165850D01*
X62949829Y-39805789D01*
X62950056Y-39545445D01*
X63012888Y-39545445D01*
X63064085Y-39931937D01*
X63113493Y-40051219D01*
X63243838Y-40135745D01*
X63769584Y-39610000D01*
X64250416Y-39610000D01*
X64776162Y-40135745D01*
X64906507Y-40051219D01*
X64972516Y-39804079D01*
X65069831Y-39804079D01*
X65218712Y-40164400D01*
X65494150Y-40440319D01*
X65854211Y-40589829D01*
X66244079Y-40590169D01*
X66604400Y-40441288D01*
X66880319Y-40165850D01*
X67029829Y-39805789D01*
X67030169Y-39415921D01*
X66881288Y-39055600D01*
X66605850Y-38779681D01*
X66245789Y-38630171D01*
X65855921Y-38629831D01*
X65495600Y-38778712D01*
X65219681Y-39054150D01*
X65070171Y-39414211D01*
X65069831Y-39804079D01*
X64972516Y-39804079D01*
X65007112Y-39674555D01*
X64955915Y-39288063D01*
X64906507Y-39168781D01*
X64776162Y-39084255D01*
X64250416Y-39610000D01*
X63769584Y-39610000D01*
X63243838Y-39084255D01*
X63113493Y-39168781D01*
X63012888Y-39545445D01*
X62950056Y-39545445D01*
X62950169Y-39415921D01*
X62801288Y-39055600D01*
X62589896Y-38843838D01*
X63484255Y-38843838D01*
X64010000Y-39369584D01*
X64535745Y-38843838D01*
X64451219Y-38713493D01*
X64074555Y-38612888D01*
X63688063Y-38664085D01*
X63568781Y-38713493D01*
X63484255Y-38843838D01*
X62589896Y-38843838D01*
X62525850Y-38779681D01*
X62165789Y-38630171D01*
X61775921Y-38629831D01*
X61579929Y-38710813D01*
X60954558Y-38085442D01*
X60837766Y-38007403D01*
X60700000Y-37980000D01*
X45855117Y-37980000D01*
X43815558Y-35940442D01*
X43698766Y-35862403D01*
X43561000Y-35835000D01*
X30560000Y-35835000D01*
X30560000Y-35640000D01*
X43815000Y-35640000D01*
X43846124Y-35633697D01*
X43872345Y-35615782D01*
X43889529Y-35589077D01*
X43895000Y-35560000D01*
X43895000Y-34793028D01*
X44080125Y-34869899D01*
X44310863Y-34870101D01*
X44524114Y-34781987D01*
X44656332Y-34650000D01*
X46529843Y-34650000D01*
X46661027Y-34781413D01*
X46874125Y-34869899D01*
X47104863Y-34870101D01*
X47318114Y-34781987D01*
X47481413Y-34618973D01*
X47569899Y-34405875D01*
X47570101Y-34175137D01*
X47481987Y-33961886D01*
X47343139Y-33822795D01*
X47697621Y-33822795D01*
X47788394Y-33958330D01*
X48183376Y-34067379D01*
X48590024Y-34016975D01*
X48731606Y-33958330D01*
X48822379Y-33822795D01*
X60397621Y-33822795D01*
X60488394Y-33958330D01*
X60883376Y-34067379D01*
X61290024Y-34016975D01*
X61431606Y-33958330D01*
X61522379Y-33822795D01*
X62937621Y-33822795D01*
X63028394Y-33958330D01*
X63423376Y-34067379D01*
X63830024Y-34016975D01*
X63971606Y-33958330D01*
X64062379Y-33822795D01*
X63500000Y-33260416D01*
X62937621Y-33822795D01*
X61522379Y-33822795D01*
X60960000Y-33260416D01*
X60397621Y-33822795D01*
X48822379Y-33822795D01*
X48260000Y-33260416D01*
X47697621Y-33822795D01*
X47343139Y-33822795D01*
X47318973Y-33798587D01*
X47105875Y-33710101D01*
X46875137Y-33709899D01*
X46661886Y-33798013D01*
X46529668Y-33930000D01*
X46210580Y-33930000D01*
X46282379Y-33822795D01*
X45720000Y-33260416D01*
X45157621Y-33822795D01*
X45229420Y-33930000D01*
X44656157Y-33930000D01*
X44524973Y-33798587D01*
X44311875Y-33710101D01*
X44081137Y-33709899D01*
X43895000Y-33786810D01*
X43895000Y-32943376D01*
X44672621Y-32943376D01*
X44723025Y-33350024D01*
X44781670Y-33491606D01*
X44917205Y-33582379D01*
X45479584Y-33020000D01*
X45960416Y-33020000D01*
X46522795Y-33582379D01*
X46658330Y-33491606D01*
X46767379Y-33096624D01*
X46748384Y-32943376D01*
X47212621Y-32943376D01*
X47263025Y-33350024D01*
X47321670Y-33491606D01*
X47457205Y-33582379D01*
X48019584Y-33020000D01*
X48500416Y-33020000D01*
X49062795Y-33582379D01*
X49198330Y-33491606D01*
X49307379Y-33096624D01*
X49288384Y-32943376D01*
X59912621Y-32943376D01*
X59963025Y-33350024D01*
X60021670Y-33491606D01*
X60157205Y-33582379D01*
X60719584Y-33020000D01*
X61200416Y-33020000D01*
X61762795Y-33582379D01*
X61898330Y-33491606D01*
X62007379Y-33096624D01*
X61988384Y-32943376D01*
X62452621Y-32943376D01*
X62503025Y-33350024D01*
X62561670Y-33491606D01*
X62697205Y-33582379D01*
X63259584Y-33020000D01*
X63740416Y-33020000D01*
X64302795Y-33582379D01*
X64438330Y-33491606D01*
X64547379Y-33096624D01*
X64496975Y-32689976D01*
X64438330Y-32548394D01*
X64302795Y-32457621D01*
X63740416Y-33020000D01*
X63259584Y-33020000D01*
X62697205Y-32457621D01*
X62561670Y-32548394D01*
X62452621Y-32943376D01*
X61988384Y-32943376D01*
X61956975Y-32689976D01*
X61898330Y-32548394D01*
X61762795Y-32457621D01*
X61200416Y-33020000D01*
X60719584Y-33020000D01*
X60157205Y-32457621D01*
X60021670Y-32548394D01*
X59912621Y-32943376D01*
X49288384Y-32943376D01*
X49256975Y-32689976D01*
X49198330Y-32548394D01*
X49062795Y-32457621D01*
X48500416Y-33020000D01*
X48019584Y-33020000D01*
X47457205Y-32457621D01*
X47321670Y-32548394D01*
X47212621Y-32943376D01*
X46748384Y-32943376D01*
X46716975Y-32689976D01*
X46658330Y-32548394D01*
X46522795Y-32457621D01*
X45960416Y-33020000D01*
X45479584Y-33020000D01*
X44917205Y-32457621D01*
X44781670Y-32548394D01*
X44672621Y-32943376D01*
X43895000Y-32943376D01*
X43895000Y-32217205D01*
X45157621Y-32217205D01*
X45720000Y-32779584D01*
X46282379Y-32217205D01*
X47697621Y-32217205D01*
X48260000Y-32779584D01*
X48822379Y-32217205D01*
X60397621Y-32217205D01*
X60960000Y-32779584D01*
X61522379Y-32217205D01*
X62937621Y-32217205D01*
X63500000Y-32779584D01*
X64062379Y-32217205D01*
X63971606Y-32081670D01*
X63576624Y-31972621D01*
X63169976Y-32023025D01*
X63028394Y-32081670D01*
X62937621Y-32217205D01*
X61522379Y-32217205D01*
X61431606Y-32081670D01*
X61036624Y-31972621D01*
X60629976Y-32023025D01*
X60488394Y-32081670D01*
X60397621Y-32217205D01*
X48822379Y-32217205D01*
X48731606Y-32081670D01*
X48336624Y-31972621D01*
X47929976Y-32023025D01*
X47788394Y-32081670D01*
X47697621Y-32217205D01*
X46282379Y-32217205D01*
X46191606Y-32081670D01*
X45796624Y-31972621D01*
X45389976Y-32023025D01*
X45248394Y-32081670D01*
X45157621Y-32217205D01*
X43895000Y-32217205D01*
X43895000Y-31195000D01*
X44978383Y-31195000D01*
X45135790Y-31352682D01*
X45514221Y-31509821D01*
X45923981Y-31510179D01*
X46302686Y-31353701D01*
X46461664Y-31195000D01*
X47518383Y-31195000D01*
X47675790Y-31352682D01*
X48054221Y-31509821D01*
X48463981Y-31510179D01*
X48842686Y-31353701D01*
X49001664Y-31195000D01*
X60218383Y-31195000D01*
X60375790Y-31352682D01*
X60754221Y-31509821D01*
X61163981Y-31510179D01*
X61542686Y-31353701D01*
X61701664Y-31195000D01*
X62758383Y-31195000D01*
X62915790Y-31352682D01*
X63294221Y-31509821D01*
X63703981Y-31510179D01*
X64082686Y-31353701D01*
X64241664Y-31195000D01*
X68580000Y-31195000D01*
X68611124Y-31188697D01*
X68637345Y-31170782D01*
X68654529Y-31144077D01*
X68660000Y-31115000D01*
X68660000Y-19685000D01*
X68653697Y-19653876D01*
X68635782Y-19627655D01*
X68609077Y-19610471D01*
X68580000Y-19605000D01*
X67264116Y-19605000D01*
X68001178Y-18867938D01*
X68186863Y-18868101D01*
X68400114Y-18779987D01*
X68563413Y-18616973D01*
X68651899Y-18403875D01*
X68652101Y-18173137D01*
X68563987Y-17959886D01*
X68400973Y-17796587D01*
X68187875Y-17708101D01*
X67957137Y-17707899D01*
X67743886Y-17796013D01*
X67580587Y-17959027D01*
X67492101Y-18172125D01*
X67491937Y-18358947D01*
X66468304Y-19382580D01*
X66245779Y-19290179D01*
X65836019Y-19289821D01*
X65457314Y-19446299D01*
X65298336Y-19605000D01*
X64241617Y-19605000D01*
X64084210Y-19447318D01*
X63705779Y-19290179D01*
X63296019Y-19289821D01*
X62917314Y-19446299D01*
X62758336Y-19605000D01*
X41864116Y-19605000D01*
X41966178Y-19502938D01*
X42151863Y-19503101D01*
X42365114Y-19414987D01*
X42528413Y-19251973D01*
X42616899Y-19038875D01*
X42617101Y-18808137D01*
X42528987Y-18594886D01*
X42516918Y-18582795D01*
X62937621Y-18582795D01*
X63028394Y-18718330D01*
X63423376Y-18827379D01*
X63830024Y-18776975D01*
X63971606Y-18718330D01*
X64062379Y-18582795D01*
X65477621Y-18582795D01*
X65568394Y-18718330D01*
X65963376Y-18827379D01*
X66370024Y-18776975D01*
X66511606Y-18718330D01*
X66602379Y-18582795D01*
X66040000Y-18020416D01*
X65477621Y-18582795D01*
X64062379Y-18582795D01*
X63500000Y-18020416D01*
X62937621Y-18582795D01*
X42516918Y-18582795D01*
X42365973Y-18431587D01*
X42152875Y-18343101D01*
X41922137Y-18342899D01*
X41708886Y-18431013D01*
X41545587Y-18594027D01*
X41457101Y-18807125D01*
X41456937Y-18993946D01*
X41068304Y-19382580D01*
X40845779Y-19290179D01*
X40436019Y-19289821D01*
X40057314Y-19446299D01*
X39898336Y-19605000D01*
X38841617Y-19605000D01*
X38684210Y-19447318D01*
X38305779Y-19290179D01*
X37896019Y-19289821D01*
X37671647Y-19382530D01*
X36871912Y-18582795D01*
X37537621Y-18582795D01*
X37628394Y-18718330D01*
X38023376Y-18827379D01*
X38430024Y-18776975D01*
X38571606Y-18718330D01*
X38662379Y-18582795D01*
X40077621Y-18582795D01*
X40168394Y-18718330D01*
X40563376Y-18827379D01*
X40970024Y-18776975D01*
X41111606Y-18718330D01*
X41202379Y-18582795D01*
X40640000Y-18020416D01*
X40077621Y-18582795D01*
X38662379Y-18582795D01*
X38100000Y-18020416D01*
X37537621Y-18582795D01*
X36871912Y-18582795D01*
X36393938Y-18104822D01*
X36394101Y-17919137D01*
X36305987Y-17705886D01*
X36303482Y-17703376D01*
X37052621Y-17703376D01*
X37103025Y-18110024D01*
X37161670Y-18251606D01*
X37297205Y-18342379D01*
X37859584Y-17780000D01*
X38340416Y-17780000D01*
X38902795Y-18342379D01*
X39038330Y-18251606D01*
X39147379Y-17856624D01*
X39128384Y-17703376D01*
X39592621Y-17703376D01*
X39643025Y-18110024D01*
X39701670Y-18251606D01*
X39837205Y-18342379D01*
X40399584Y-17780000D01*
X40880416Y-17780000D01*
X41442795Y-18342379D01*
X41578330Y-18251606D01*
X41687379Y-17856624D01*
X41676378Y-17767863D01*
X56569899Y-17767863D01*
X56658013Y-17981114D01*
X56821027Y-18144413D01*
X57034125Y-18232899D01*
X57264863Y-18233101D01*
X57478114Y-18144987D01*
X57610332Y-18013000D01*
X59483843Y-18013000D01*
X59615027Y-18144413D01*
X59828125Y-18232899D01*
X60058863Y-18233101D01*
X60272114Y-18144987D01*
X60435413Y-17981973D01*
X60523899Y-17768875D01*
X60523956Y-17703376D01*
X62452621Y-17703376D01*
X62503025Y-18110024D01*
X62561670Y-18251606D01*
X62697205Y-18342379D01*
X63259584Y-17780000D01*
X63740416Y-17780000D01*
X64302795Y-18342379D01*
X64438330Y-18251606D01*
X64547379Y-17856624D01*
X64528384Y-17703376D01*
X64992621Y-17703376D01*
X65043025Y-18110024D01*
X65101670Y-18251606D01*
X65237205Y-18342379D01*
X65799584Y-17780000D01*
X66280416Y-17780000D01*
X66842795Y-18342379D01*
X66978330Y-18251606D01*
X67087379Y-17856624D01*
X67036975Y-17449976D01*
X66978330Y-17308394D01*
X66842795Y-17217621D01*
X66280416Y-17780000D01*
X65799584Y-17780000D01*
X65237205Y-17217621D01*
X65101670Y-17308394D01*
X64992621Y-17703376D01*
X64528384Y-17703376D01*
X64496975Y-17449976D01*
X64438330Y-17308394D01*
X64302795Y-17217621D01*
X63740416Y-17780000D01*
X63259584Y-17780000D01*
X62697205Y-17217621D01*
X62561670Y-17308394D01*
X62452621Y-17703376D01*
X60523956Y-17703376D01*
X60524101Y-17538137D01*
X60435987Y-17324886D01*
X60272973Y-17161587D01*
X60059875Y-17073101D01*
X59829137Y-17072899D01*
X59615886Y-17161013D01*
X59483668Y-17293000D01*
X57610157Y-17293000D01*
X57478973Y-17161587D01*
X57265875Y-17073101D01*
X57035137Y-17072899D01*
X56821886Y-17161013D01*
X56658587Y-17324027D01*
X56570101Y-17537125D01*
X56569899Y-17767863D01*
X41676378Y-17767863D01*
X41636975Y-17449976D01*
X41578330Y-17308394D01*
X41442795Y-17217621D01*
X40880416Y-17780000D01*
X40399584Y-17780000D01*
X39837205Y-17217621D01*
X39701670Y-17308394D01*
X39592621Y-17703376D01*
X39128384Y-17703376D01*
X39096975Y-17449976D01*
X39038330Y-17308394D01*
X38902795Y-17217621D01*
X38340416Y-17780000D01*
X37859584Y-17780000D01*
X37297205Y-17217621D01*
X37161670Y-17308394D01*
X37052621Y-17703376D01*
X36303482Y-17703376D01*
X36142973Y-17542587D01*
X35929875Y-17454101D01*
X35699137Y-17453899D01*
X35485886Y-17542013D01*
X35322587Y-17705027D01*
X35234101Y-17918125D01*
X35233899Y-18148863D01*
X35322013Y-18362114D01*
X35485027Y-18525413D01*
X35698125Y-18613899D01*
X35884946Y-18614063D01*
X36875884Y-19605000D01*
X33920213Y-19605000D01*
X34019413Y-19505973D01*
X34107899Y-19292875D01*
X34108101Y-19062137D01*
X34019987Y-18848886D01*
X33856973Y-18685587D01*
X33654829Y-18601649D01*
X33892682Y-18364210D01*
X34049821Y-17985779D01*
X34050179Y-17576019D01*
X33893701Y-17197314D01*
X33673976Y-16977205D01*
X37537621Y-16977205D01*
X38100000Y-17539584D01*
X38662379Y-16977205D01*
X40077621Y-16977205D01*
X40640000Y-17539584D01*
X41202379Y-16977205D01*
X62937621Y-16977205D01*
X63500000Y-17539584D01*
X64062379Y-16977205D01*
X65477621Y-16977205D01*
X66040000Y-17539584D01*
X66602379Y-16977205D01*
X66511606Y-16841670D01*
X66116624Y-16732621D01*
X65709976Y-16783025D01*
X65568394Y-16841670D01*
X65477621Y-16977205D01*
X64062379Y-16977205D01*
X63971606Y-16841670D01*
X63576624Y-16732621D01*
X63169976Y-16783025D01*
X63028394Y-16841670D01*
X62937621Y-16977205D01*
X41202379Y-16977205D01*
X41111606Y-16841670D01*
X40716624Y-16732621D01*
X40309976Y-16783025D01*
X40168394Y-16841670D01*
X40077621Y-16977205D01*
X38662379Y-16977205D01*
X38571606Y-16841670D01*
X38176624Y-16732621D01*
X37769976Y-16783025D01*
X37628394Y-16841670D01*
X37537621Y-16977205D01*
X33673976Y-16977205D01*
X33604210Y-16907318D01*
X33225779Y-16750179D01*
X32816019Y-16749821D01*
X32437314Y-16906299D01*
X32147318Y-17195790D01*
X31990179Y-17574221D01*
X31989821Y-17983981D01*
X32146299Y-18362686D01*
X32435790Y-18652682D01*
X32525661Y-18690000D01*
X31899117Y-18690000D01*
X31417420Y-18208304D01*
X31509821Y-17985779D01*
X31510179Y-17576019D01*
X31353701Y-17197314D01*
X31064210Y-16907318D01*
X30685779Y-16750179D01*
X30276019Y-16749821D01*
X29897314Y-16906299D01*
X29607318Y-17195790D01*
X29450179Y-17574221D01*
X29449821Y-17983981D01*
X29606299Y-18362686D01*
X29895790Y-18652682D01*
X30274221Y-18809821D01*
X30683981Y-18810179D01*
X30908353Y-18717470D01*
X30939739Y-18748855D01*
X30786886Y-18812013D01*
X30654668Y-18944000D01*
X29797157Y-18944000D01*
X29665973Y-18812587D01*
X29452875Y-18724101D01*
X29222137Y-18723899D01*
X29008886Y-18812013D01*
X28845587Y-18975027D01*
X28757101Y-19188125D01*
X28756899Y-19418863D01*
X28833810Y-19605000D01*
X15981617Y-19605000D01*
X15824210Y-19447318D01*
X15445779Y-19290179D01*
X15036019Y-19289821D01*
X14657314Y-19446299D01*
X14498336Y-19605000D01*
X13441617Y-19605000D01*
X13284210Y-19447318D01*
X12905779Y-19290179D01*
X12496019Y-19289821D01*
X12117314Y-19446299D01*
X11958336Y-19605000D01*
X7620000Y-19605000D01*
X7588876Y-19611303D01*
X7562655Y-19629218D01*
X7545471Y-19655923D01*
X7540000Y-19685000D01*
X7540000Y-29845000D01*
X7546303Y-29876124D01*
X7564218Y-29902345D01*
X7590923Y-29919529D01*
X7620000Y-29925000D01*
X19605000Y-29925000D01*
X19605000Y-37358383D01*
X19447318Y-37515790D01*
X19290179Y-37894221D01*
X19289821Y-38303981D01*
X19446299Y-38682686D01*
X19605000Y-38841664D01*
X19605000Y-46910000D01*
X5056008Y-46910000D01*
X5319516Y-46275402D01*
X5320481Y-45169450D01*
X4898143Y-44147314D01*
X4116799Y-43364605D01*
X3095402Y-42940484D01*
X1989450Y-42939519D01*
X1350000Y-43203734D01*
X1350000Y-38340000D01*
X16750000Y-38340000D01*
X16750000Y-38905695D01*
X16792627Y-39008607D01*
X16871392Y-39087372D01*
X16974304Y-39130000D01*
X17540000Y-39130000D01*
X17610000Y-39060000D01*
X17610000Y-38270000D01*
X17950000Y-38270000D01*
X17950000Y-39060000D01*
X18020000Y-39130000D01*
X18585696Y-39130000D01*
X18688608Y-39087372D01*
X18767373Y-39008607D01*
X18810000Y-38905695D01*
X18810000Y-38340000D01*
X18740000Y-38270000D01*
X17950000Y-38270000D01*
X17610000Y-38270000D01*
X16820000Y-38270000D01*
X16750000Y-38340000D01*
X1350000Y-38340000D01*
X1350000Y-37294305D01*
X16750000Y-37294305D01*
X16750000Y-37860000D01*
X16820000Y-37930000D01*
X17610000Y-37930000D01*
X17610000Y-37140000D01*
X17950000Y-37140000D01*
X17950000Y-37930000D01*
X18740000Y-37930000D01*
X18810000Y-37860000D01*
X18810000Y-37294305D01*
X18767373Y-37191393D01*
X18688608Y-37112628D01*
X18585696Y-37070000D01*
X18020000Y-37070000D01*
X17950000Y-37140000D01*
X17610000Y-37140000D01*
X17540000Y-37070000D01*
X16974304Y-37070000D01*
X16871392Y-37112628D01*
X16792627Y-37191393D01*
X16750000Y-37294305D01*
X1350000Y-37294305D01*
X1350000Y-36454373D01*
X5189856Y-36454373D01*
X5315950Y-36759543D01*
X5549229Y-36993230D01*
X5854178Y-37119856D01*
X6184373Y-37120144D01*
X6489543Y-36994050D01*
X6723230Y-36760771D01*
X6849856Y-36455822D01*
X6850144Y-36125627D01*
X6724050Y-35820457D01*
X6490771Y-35586770D01*
X6185822Y-35460144D01*
X5855627Y-35459856D01*
X5550457Y-35585950D01*
X5316770Y-35819229D01*
X5190144Y-36124178D01*
X5189856Y-36454373D01*
X1350000Y-36454373D01*
X1350000Y-34530000D01*
X6590000Y-34530000D01*
X6590000Y-35095695D01*
X6632627Y-35198607D01*
X6711392Y-35277372D01*
X6814304Y-35320000D01*
X7380000Y-35320000D01*
X7450000Y-35250000D01*
X7450000Y-34460000D01*
X7790000Y-34460000D01*
X7790000Y-35250000D01*
X7860000Y-35320000D01*
X8425696Y-35320000D01*
X8528608Y-35277372D01*
X8607373Y-35198607D01*
X8650000Y-35095695D01*
X8650000Y-34530000D01*
X8613981Y-34493981D01*
X9089821Y-34493981D01*
X9246299Y-34872686D01*
X9535790Y-35162682D01*
X9914221Y-35319821D01*
X10323981Y-35320179D01*
X10702686Y-35163701D01*
X10992682Y-34874210D01*
X11149821Y-34495779D01*
X11150179Y-34086019D01*
X10993701Y-33707314D01*
X10704210Y-33417318D01*
X10325779Y-33260179D01*
X9916019Y-33259821D01*
X9537314Y-33416299D01*
X9247318Y-33705790D01*
X9090179Y-34084221D01*
X9089821Y-34493981D01*
X8613981Y-34493981D01*
X8580000Y-34460000D01*
X7790000Y-34460000D01*
X7450000Y-34460000D01*
X6660000Y-34460000D01*
X6590000Y-34530000D01*
X1350000Y-34530000D01*
X1350000Y-33484305D01*
X6590000Y-33484305D01*
X6590000Y-34050000D01*
X6660000Y-34120000D01*
X7450000Y-34120000D01*
X7450000Y-33330000D01*
X7790000Y-33330000D01*
X7790000Y-34120000D01*
X8580000Y-34120000D01*
X8650000Y-34050000D01*
X8650000Y-33484305D01*
X8607373Y-33381393D01*
X8528608Y-33302628D01*
X8425696Y-33260000D01*
X7860000Y-33260000D01*
X7790000Y-33330000D01*
X7450000Y-33330000D01*
X7380000Y-33260000D01*
X6814304Y-33260000D01*
X6711392Y-33302628D01*
X6632627Y-33381393D01*
X6590000Y-33484305D01*
X1350000Y-33484305D01*
X1350000Y-18582795D01*
X12137621Y-18582795D01*
X12228394Y-18718330D01*
X12623376Y-18827379D01*
X13030024Y-18776975D01*
X13171606Y-18718330D01*
X13262379Y-18582795D01*
X14677621Y-18582795D01*
X14768394Y-18718330D01*
X15163376Y-18827379D01*
X15570024Y-18776975D01*
X15711606Y-18718330D01*
X15802379Y-18582795D01*
X15240000Y-18020416D01*
X14677621Y-18582795D01*
X13262379Y-18582795D01*
X12700000Y-18020416D01*
X12137621Y-18582795D01*
X1350000Y-18582795D01*
X1350000Y-17703376D01*
X11652621Y-17703376D01*
X11703025Y-18110024D01*
X11761670Y-18251606D01*
X11897205Y-18342379D01*
X12459584Y-17780000D01*
X12940416Y-17780000D01*
X13502795Y-18342379D01*
X13638330Y-18251606D01*
X13747379Y-17856624D01*
X13728384Y-17703376D01*
X14192621Y-17703376D01*
X14243025Y-18110024D01*
X14301670Y-18251606D01*
X14437205Y-18342379D01*
X14999584Y-17780000D01*
X15480416Y-17780000D01*
X16042795Y-18342379D01*
X16178330Y-18251606D01*
X16287379Y-17856624D01*
X16236975Y-17449976D01*
X16178330Y-17308394D01*
X16042795Y-17217621D01*
X15480416Y-17780000D01*
X14999584Y-17780000D01*
X14437205Y-17217621D01*
X14301670Y-17308394D01*
X14192621Y-17703376D01*
X13728384Y-17703376D01*
X13696975Y-17449976D01*
X13638330Y-17308394D01*
X13502795Y-17217621D01*
X12940416Y-17780000D01*
X12459584Y-17780000D01*
X11897205Y-17217621D01*
X11761670Y-17308394D01*
X11652621Y-17703376D01*
X1350000Y-17703376D01*
X1350000Y-16977205D01*
X12137621Y-16977205D01*
X12700000Y-17539584D01*
X13262379Y-16977205D01*
X14677621Y-16977205D01*
X15240000Y-17539584D01*
X15749584Y-17030000D01*
X26904515Y-17030000D01*
X26904515Y-18530000D01*
X26924039Y-18633762D01*
X26985362Y-18729060D01*
X27078930Y-18792993D01*
X27190000Y-18815485D01*
X28690000Y-18815485D01*
X28793762Y-18795961D01*
X28889060Y-18734638D01*
X28952993Y-18641070D01*
X28975485Y-18530000D01*
X28975485Y-17030000D01*
X28955961Y-16926238D01*
X28894638Y-16830940D01*
X28801070Y-16767007D01*
X28690000Y-16744515D01*
X27190000Y-16744515D01*
X27086238Y-16764039D01*
X26990940Y-16825362D01*
X26927007Y-16918930D01*
X26904515Y-17030000D01*
X15749584Y-17030000D01*
X15802379Y-16977205D01*
X15711606Y-16841670D01*
X15316624Y-16732621D01*
X14909976Y-16783025D01*
X14768394Y-16841670D01*
X14677621Y-16977205D01*
X13262379Y-16977205D01*
X13171606Y-16841670D01*
X12776624Y-16732621D01*
X12369976Y-16783025D01*
X12228394Y-16841670D01*
X12137621Y-16977205D01*
X1350000Y-16977205D01*
X1350000Y-14490000D01*
X26904515Y-14490000D01*
X26904515Y-15990000D01*
X26924039Y-16093762D01*
X26985362Y-16189060D01*
X27078930Y-16252993D01*
X27190000Y-16275485D01*
X28690000Y-16275485D01*
X28793762Y-16255961D01*
X28889060Y-16194638D01*
X28952993Y-16101070D01*
X28975485Y-15990000D01*
X28975485Y-15443981D01*
X29449821Y-15443981D01*
X29606299Y-15822686D01*
X29895790Y-16112682D01*
X30274221Y-16269821D01*
X30683981Y-16270179D01*
X31062686Y-16113701D01*
X31352682Y-15824210D01*
X31509821Y-15445779D01*
X31509822Y-15443981D01*
X31989821Y-15443981D01*
X32146299Y-15822686D01*
X32435790Y-16112682D01*
X32814221Y-16269821D01*
X33223981Y-16270179D01*
X33602686Y-16113701D01*
X33892682Y-15824210D01*
X34049821Y-15445779D01*
X34049900Y-15354863D01*
X57839899Y-15354863D01*
X57928013Y-15568114D01*
X58091027Y-15731413D01*
X58304125Y-15819899D01*
X58534863Y-15820101D01*
X58748114Y-15731987D01*
X58880332Y-15600000D01*
X63547843Y-15600000D01*
X63679027Y-15731413D01*
X63892125Y-15819899D01*
X64122863Y-15820101D01*
X64336114Y-15731987D01*
X64499413Y-15568973D01*
X64587899Y-15355875D01*
X64588101Y-15125137D01*
X64499987Y-14911886D01*
X64336973Y-14748587D01*
X64123875Y-14660101D01*
X63893137Y-14659899D01*
X63679886Y-14748013D01*
X63547668Y-14880000D01*
X58880157Y-14880000D01*
X58748973Y-14748587D01*
X58535875Y-14660101D01*
X58305137Y-14659899D01*
X58091886Y-14748013D01*
X57928587Y-14911027D01*
X57840101Y-15124125D01*
X57839899Y-15354863D01*
X34049900Y-15354863D01*
X34050179Y-15036019D01*
X33893701Y-14657314D01*
X33604210Y-14367318D01*
X33225779Y-14210179D01*
X32816019Y-14209821D01*
X32437314Y-14366299D01*
X32147318Y-14655790D01*
X31990179Y-15034221D01*
X31989821Y-15443981D01*
X31509822Y-15443981D01*
X31510179Y-15036019D01*
X31353701Y-14657314D01*
X31064210Y-14367318D01*
X30685779Y-14210179D01*
X30276019Y-14209821D01*
X29897314Y-14366299D01*
X29607318Y-14655790D01*
X29450179Y-15034221D01*
X29449821Y-15443981D01*
X28975485Y-15443981D01*
X28975485Y-14490000D01*
X28955961Y-14386238D01*
X28894638Y-14290940D01*
X28801070Y-14227007D01*
X28690000Y-14204515D01*
X27190000Y-14204515D01*
X27086238Y-14224039D01*
X26990940Y-14285362D01*
X26927007Y-14378930D01*
X26904515Y-14490000D01*
X1350000Y-14490000D01*
X1350000Y-13322863D01*
X23803899Y-13322863D01*
X23892013Y-13536114D01*
X24055027Y-13699413D01*
X24268125Y-13787899D01*
X24498863Y-13788101D01*
X24712114Y-13699987D01*
X24844332Y-13568000D01*
X35353843Y-13568000D01*
X35485027Y-13699413D01*
X35698125Y-13787899D01*
X35928863Y-13788101D01*
X36142114Y-13699987D01*
X36305413Y-13536973D01*
X36393899Y-13323875D01*
X36394101Y-13093137D01*
X36305987Y-12879886D01*
X36142973Y-12716587D01*
X35929875Y-12628101D01*
X35699137Y-12627899D01*
X35485886Y-12716013D01*
X35353668Y-12848000D01*
X24844157Y-12848000D01*
X24712973Y-12716587D01*
X24499875Y-12628101D01*
X24269137Y-12627899D01*
X24055886Y-12716013D01*
X23892587Y-12879027D01*
X23804101Y-13092125D01*
X23803899Y-13322863D01*
X1350000Y-13322863D01*
X1350000Y-11798863D01*
X25073899Y-11798863D01*
X25162013Y-12012114D01*
X25325027Y-12175413D01*
X25538125Y-12263899D01*
X25768863Y-12264101D01*
X25982114Y-12175987D01*
X26114332Y-12044000D01*
X36596000Y-12044000D01*
X36733766Y-12016597D01*
X36850558Y-11938558D01*
X39239951Y-9549165D01*
X39418502Y-9623306D01*
X39355442Y-9665442D01*
X39277403Y-9782234D01*
X39250000Y-9920000D01*
X39277403Y-10057766D01*
X39355442Y-10174558D01*
X39472234Y-10252597D01*
X39610000Y-10280000D01*
X39630000Y-10280000D01*
X39767766Y-10252597D01*
X39884558Y-10174558D01*
X39962597Y-10057766D01*
X39990000Y-9920000D01*
X39962597Y-9782234D01*
X39884558Y-9665442D01*
X39828831Y-9628206D01*
X40184400Y-9481288D01*
X40460319Y-9205850D01*
X40609829Y-8845789D01*
X40609830Y-8844079D01*
X59969831Y-8844079D01*
X60118712Y-9204400D01*
X60394150Y-9480319D01*
X60754211Y-9629829D01*
X61144079Y-9630169D01*
X61504400Y-9481288D01*
X61569639Y-9416162D01*
X62464255Y-9416162D01*
X62548781Y-9546507D01*
X62925445Y-9647112D01*
X63311937Y-9595915D01*
X63431219Y-9546507D01*
X63515745Y-9416162D01*
X62990000Y-8890416D01*
X62464255Y-9416162D01*
X61569639Y-9416162D01*
X61780319Y-9205850D01*
X61929829Y-8845789D01*
X61930056Y-8585445D01*
X61992888Y-8585445D01*
X62044085Y-8971937D01*
X62093493Y-9091219D01*
X62223838Y-9175745D01*
X62749584Y-8650000D01*
X63230416Y-8650000D01*
X63756162Y-9175745D01*
X63886507Y-9091219D01*
X63952516Y-8844079D01*
X64049831Y-8844079D01*
X64198712Y-9204400D01*
X64474150Y-9480319D01*
X64834211Y-9629829D01*
X65224079Y-9630169D01*
X65584400Y-9481288D01*
X65860319Y-9205850D01*
X66009829Y-8845789D01*
X66010169Y-8455921D01*
X65861288Y-8095600D01*
X65585850Y-7819681D01*
X65225789Y-7670171D01*
X64835921Y-7669831D01*
X64475600Y-7818712D01*
X64199681Y-8094150D01*
X64050171Y-8454211D01*
X64049831Y-8844079D01*
X63952516Y-8844079D01*
X63987112Y-8714555D01*
X63935915Y-8328063D01*
X63886507Y-8208781D01*
X63756162Y-8124255D01*
X63230416Y-8650000D01*
X62749584Y-8650000D01*
X62223838Y-8124255D01*
X62093493Y-8208781D01*
X61992888Y-8585445D01*
X61930056Y-8585445D01*
X61930169Y-8455921D01*
X61781288Y-8095600D01*
X61569896Y-7883838D01*
X62464255Y-7883838D01*
X62990000Y-8409584D01*
X63515745Y-7883838D01*
X63431219Y-7753493D01*
X63054555Y-7652888D01*
X62668063Y-7704085D01*
X62548781Y-7753493D01*
X62464255Y-7883838D01*
X61569896Y-7883838D01*
X61505850Y-7819681D01*
X61145789Y-7670171D01*
X60755921Y-7669831D01*
X60395600Y-7818712D01*
X60119681Y-8094150D01*
X59970171Y-8454211D01*
X59969831Y-8844079D01*
X40609830Y-8844079D01*
X40610169Y-8455921D01*
X40461288Y-8095600D01*
X40185850Y-7819681D01*
X39825789Y-7670171D01*
X39435921Y-7669831D01*
X39075600Y-7818712D01*
X38799681Y-8094150D01*
X38650171Y-8454211D01*
X38649831Y-8844079D01*
X38730813Y-9040071D01*
X36446884Y-11324000D01*
X26114157Y-11324000D01*
X25982973Y-11192587D01*
X25769875Y-11104101D01*
X25539137Y-11103899D01*
X25325886Y-11192013D01*
X25162587Y-11355027D01*
X25074101Y-11568125D01*
X25073899Y-11798863D01*
X1350000Y-11798863D01*
X1350000Y-8844079D01*
X9169831Y-8844079D01*
X9318712Y-9204400D01*
X9594150Y-9480319D01*
X9954211Y-9629829D01*
X10344079Y-9630169D01*
X10704400Y-9481288D01*
X10769639Y-9416162D01*
X11664255Y-9416162D01*
X11748781Y-9546507D01*
X12125445Y-9647112D01*
X12511937Y-9595915D01*
X12631219Y-9546507D01*
X12715745Y-9416162D01*
X12190000Y-8890416D01*
X11664255Y-9416162D01*
X10769639Y-9416162D01*
X10980319Y-9205850D01*
X11129829Y-8845789D01*
X11130056Y-8585445D01*
X11192888Y-8585445D01*
X11244085Y-8971937D01*
X11293493Y-9091219D01*
X11423838Y-9175745D01*
X11949584Y-8650000D01*
X12430416Y-8650000D01*
X12956162Y-9175745D01*
X13086507Y-9091219D01*
X13152516Y-8844079D01*
X13249831Y-8844079D01*
X13398712Y-9204400D01*
X13674150Y-9480319D01*
X14034211Y-9629829D01*
X14424079Y-9630169D01*
X14784400Y-9481288D01*
X15060319Y-9205850D01*
X15209829Y-8845789D01*
X15209830Y-8844079D01*
X34569831Y-8844079D01*
X34718712Y-9204400D01*
X34994150Y-9480319D01*
X35354211Y-9629829D01*
X35744079Y-9630169D01*
X36104400Y-9481288D01*
X36169639Y-9416162D01*
X37064255Y-9416162D01*
X37148781Y-9546507D01*
X37525445Y-9647112D01*
X37911937Y-9595915D01*
X38031219Y-9546507D01*
X38115745Y-9416162D01*
X37590000Y-8890416D01*
X37064255Y-9416162D01*
X36169639Y-9416162D01*
X36380319Y-9205850D01*
X36529829Y-8845789D01*
X36530056Y-8585445D01*
X36592888Y-8585445D01*
X36644085Y-8971937D01*
X36693493Y-9091219D01*
X36823838Y-9175745D01*
X37349584Y-8650000D01*
X37830416Y-8650000D01*
X38356162Y-9175745D01*
X38486507Y-9091219D01*
X38587112Y-8714555D01*
X38535915Y-8328063D01*
X38486507Y-8208781D01*
X38356162Y-8124255D01*
X37830416Y-8650000D01*
X37349584Y-8650000D01*
X36823838Y-8124255D01*
X36693493Y-8208781D01*
X36592888Y-8585445D01*
X36530056Y-8585445D01*
X36530169Y-8455921D01*
X36381288Y-8095600D01*
X36169896Y-7883838D01*
X37064255Y-7883838D01*
X37590000Y-8409584D01*
X38115745Y-7883838D01*
X38031219Y-7753493D01*
X37654555Y-7652888D01*
X37268063Y-7704085D01*
X37148781Y-7753493D01*
X37064255Y-7883838D01*
X36169896Y-7883838D01*
X36105850Y-7819681D01*
X35745789Y-7670171D01*
X35355921Y-7669831D01*
X34995600Y-7818712D01*
X34719681Y-8094150D01*
X34570171Y-8454211D01*
X34569831Y-8844079D01*
X15209830Y-8844079D01*
X15210169Y-8455921D01*
X15061288Y-8095600D01*
X14785850Y-7819681D01*
X14425789Y-7670171D01*
X14035921Y-7669831D01*
X13675600Y-7818712D01*
X13399681Y-8094150D01*
X13250171Y-8454211D01*
X13249831Y-8844079D01*
X13152516Y-8844079D01*
X13187112Y-8714555D01*
X13135915Y-8328063D01*
X13086507Y-8208781D01*
X12956162Y-8124255D01*
X12430416Y-8650000D01*
X11949584Y-8650000D01*
X11423838Y-8124255D01*
X11293493Y-8208781D01*
X11192888Y-8585445D01*
X11130056Y-8585445D01*
X11130169Y-8455921D01*
X10981288Y-8095600D01*
X10769896Y-7883838D01*
X11664255Y-7883838D01*
X12190000Y-8409584D01*
X12715745Y-7883838D01*
X12631219Y-7753493D01*
X12254555Y-7652888D01*
X11868063Y-7704085D01*
X11748781Y-7753493D01*
X11664255Y-7883838D01*
X10769896Y-7883838D01*
X10705850Y-7819681D01*
X10345789Y-7670171D01*
X9955921Y-7669831D01*
X9595600Y-7818712D01*
X9319681Y-8094150D01*
X9170171Y-8454211D01*
X9169831Y-8844079D01*
X1350000Y-8844079D01*
X1350000Y-6304079D01*
X10189831Y-6304079D01*
X10338712Y-6664400D01*
X10614150Y-6940319D01*
X10974211Y-7089829D01*
X11364079Y-7090169D01*
X11724400Y-6941288D01*
X12000319Y-6665850D01*
X12149829Y-6305789D01*
X12149830Y-6304079D01*
X12229831Y-6304079D01*
X12378712Y-6664400D01*
X12654150Y-6940319D01*
X13014211Y-7089829D01*
X13404079Y-7090169D01*
X13764400Y-6941288D01*
X14040319Y-6665850D01*
X14189829Y-6305789D01*
X14189830Y-6304079D01*
X14269831Y-6304079D01*
X14418712Y-6664400D01*
X14694150Y-6940319D01*
X15054211Y-7089829D01*
X15444079Y-7090169D01*
X15804400Y-6941288D01*
X16080319Y-6665850D01*
X16229829Y-6305789D01*
X16229830Y-6304079D01*
X35589831Y-6304079D01*
X35738712Y-6664400D01*
X36014150Y-6940319D01*
X36374211Y-7089829D01*
X36764079Y-7090169D01*
X37124400Y-6941288D01*
X37400319Y-6665850D01*
X37549829Y-6305789D01*
X37549830Y-6304079D01*
X37629831Y-6304079D01*
X37778712Y-6664400D01*
X38054150Y-6940319D01*
X38414211Y-7089829D01*
X38804079Y-7090169D01*
X39164400Y-6941288D01*
X39440319Y-6665850D01*
X39589829Y-6305789D01*
X39589830Y-6304079D01*
X39669831Y-6304079D01*
X39818712Y-6664400D01*
X40094150Y-6940319D01*
X40454211Y-7089829D01*
X40844079Y-7090169D01*
X41204400Y-6941288D01*
X41480319Y-6665850D01*
X41629829Y-6305789D01*
X41629830Y-6304079D01*
X60989831Y-6304079D01*
X61138712Y-6664400D01*
X61414150Y-6940319D01*
X61774211Y-7089829D01*
X62164079Y-7090169D01*
X62524400Y-6941288D01*
X62800319Y-6665850D01*
X62949829Y-6305789D01*
X62949830Y-6304079D01*
X63029831Y-6304079D01*
X63178712Y-6664400D01*
X63454150Y-6940319D01*
X63814211Y-7089829D01*
X64204079Y-7090169D01*
X64564400Y-6941288D01*
X64840319Y-6665850D01*
X64989829Y-6305789D01*
X64989830Y-6304079D01*
X65069831Y-6304079D01*
X65218712Y-6664400D01*
X65494150Y-6940319D01*
X65854211Y-7089829D01*
X66244079Y-7090169D01*
X66604400Y-6941288D01*
X66880319Y-6665850D01*
X67029829Y-6305789D01*
X67030169Y-5915921D01*
X66881288Y-5555600D01*
X66605850Y-5279681D01*
X66245789Y-5130171D01*
X65855921Y-5129831D01*
X65495600Y-5278712D01*
X65219681Y-5554150D01*
X65070171Y-5914211D01*
X65069831Y-6304079D01*
X64989830Y-6304079D01*
X64990169Y-5915921D01*
X64841288Y-5555600D01*
X64565850Y-5279681D01*
X64205789Y-5130171D01*
X63815921Y-5129831D01*
X63455600Y-5278712D01*
X63179681Y-5554150D01*
X63030171Y-5914211D01*
X63029831Y-6304079D01*
X62949830Y-6304079D01*
X62950169Y-5915921D01*
X62801288Y-5555600D01*
X62525850Y-5279681D01*
X62165789Y-5130171D01*
X61775921Y-5129831D01*
X61415600Y-5278712D01*
X61139681Y-5554150D01*
X60990171Y-5914211D01*
X60989831Y-6304079D01*
X41629830Y-6304079D01*
X41630169Y-5915921D01*
X41481288Y-5555600D01*
X41205850Y-5279681D01*
X40845789Y-5130171D01*
X40455921Y-5129831D01*
X40095600Y-5278712D01*
X39819681Y-5554150D01*
X39670171Y-5914211D01*
X39669831Y-6304079D01*
X39589830Y-6304079D01*
X39590169Y-5915921D01*
X39441288Y-5555600D01*
X39165850Y-5279681D01*
X38805789Y-5130171D01*
X38415921Y-5129831D01*
X38055600Y-5278712D01*
X37779681Y-5554150D01*
X37630171Y-5914211D01*
X37629831Y-6304079D01*
X37549830Y-6304079D01*
X37550169Y-5915921D01*
X37401288Y-5555600D01*
X37125850Y-5279681D01*
X36765789Y-5130171D01*
X36375921Y-5129831D01*
X36015600Y-5278712D01*
X35739681Y-5554150D01*
X35590171Y-5914211D01*
X35589831Y-6304079D01*
X16229830Y-6304079D01*
X16230169Y-5915921D01*
X16081288Y-5555600D01*
X15805850Y-5279681D01*
X15445789Y-5130171D01*
X15055921Y-5129831D01*
X14695600Y-5278712D01*
X14419681Y-5554150D01*
X14270171Y-5914211D01*
X14269831Y-6304079D01*
X14189830Y-6304079D01*
X14190169Y-5915921D01*
X14041288Y-5555600D01*
X13765850Y-5279681D01*
X13405789Y-5130171D01*
X13015921Y-5129831D01*
X12655600Y-5278712D01*
X12379681Y-5554150D01*
X12230171Y-5914211D01*
X12229831Y-6304079D01*
X12149830Y-6304079D01*
X12150169Y-5915921D01*
X12001288Y-5555600D01*
X11725850Y-5279681D01*
X11365789Y-5130171D01*
X10975921Y-5129831D01*
X10615600Y-5278712D01*
X10339681Y-5554150D01*
X10190171Y-5914211D01*
X10189831Y-6304079D01*
X1350000Y-6304079D01*
X1350000Y-5056008D01*
X1984598Y-5319516D01*
X3090550Y-5320481D01*
X4112686Y-4898143D01*
X4895395Y-4116799D01*
X4901083Y-4103099D01*
X5219744Y-4103099D01*
X5444585Y-4647257D01*
X5860553Y-5063951D01*
X6404318Y-5289743D01*
X6993099Y-5290256D01*
X7537257Y-5065415D01*
X7953951Y-4649447D01*
X8179743Y-4105682D01*
X8179745Y-4103099D01*
X17219744Y-4103099D01*
X17444585Y-4647257D01*
X17860553Y-5063951D01*
X18404318Y-5289743D01*
X18993099Y-5290256D01*
X19537257Y-5065415D01*
X19953951Y-4649447D01*
X20179743Y-4105682D01*
X20180256Y-3516901D01*
X19955415Y-2972743D01*
X19539447Y-2556049D01*
X18995682Y-2330257D01*
X18406901Y-2329744D01*
X17862743Y-2554585D01*
X17446049Y-2970553D01*
X17220257Y-3514318D01*
X17219744Y-4103099D01*
X8179745Y-4103099D01*
X8180256Y-3516901D01*
X7955415Y-2972743D01*
X7539447Y-2556049D01*
X6995682Y-2330257D01*
X6406901Y-2329744D01*
X5862743Y-2554585D01*
X5446049Y-2970553D01*
X5220257Y-3514318D01*
X5219744Y-4103099D01*
X4901083Y-4103099D01*
X5319516Y-3095402D01*
X5320481Y-1989450D01*
X5056266Y-1350000D01*
X20343992Y-1350000D01*
X20080484Y-1984598D01*
X20080484Y-1984598D01*
G37*
X20080484Y-1984598D02*
X20079519Y-3090550D01*
X20501857Y-4112686D01*
X21283201Y-4895395D01*
X22304598Y-5319516D01*
X23410550Y-5320481D01*
X24432686Y-4898143D01*
X25215395Y-4116799D01*
X25399930Y-3672389D01*
X25581857Y-4112686D01*
X26363201Y-4895395D01*
X27384598Y-5319516D01*
X28490550Y-5320481D01*
X29512686Y-4898143D01*
X30295395Y-4116799D01*
X30301083Y-4103099D01*
X30619744Y-4103099D01*
X30844585Y-4647257D01*
X31260553Y-5063951D01*
X31804318Y-5289743D01*
X32393099Y-5290256D01*
X32937257Y-5065415D01*
X33353951Y-4649447D01*
X33579743Y-4105682D01*
X33579745Y-4103099D01*
X42619744Y-4103099D01*
X42844585Y-4647257D01*
X43260553Y-5063951D01*
X43804318Y-5289743D01*
X44393099Y-5290256D01*
X44937257Y-5065415D01*
X45353951Y-4649447D01*
X45579743Y-4105682D01*
X45580256Y-3516901D01*
X45355415Y-2972743D01*
X44939447Y-2556049D01*
X44395682Y-2330257D01*
X43806901Y-2329744D01*
X43262743Y-2554585D01*
X42846049Y-2970553D01*
X42620257Y-3514318D01*
X42619744Y-4103099D01*
X33579745Y-4103099D01*
X33580256Y-3516901D01*
X33355415Y-2972743D01*
X32939447Y-2556049D01*
X32395682Y-2330257D01*
X31806901Y-2329744D01*
X31262743Y-2554585D01*
X30846049Y-2970553D01*
X30620257Y-3514318D01*
X30619744Y-4103099D01*
X30301083Y-4103099D01*
X30719516Y-3095402D01*
X30720481Y-1989450D01*
X30456266Y-1350000D01*
X45743992Y-1350000D01*
X45480484Y-1984598D01*
X45479519Y-3090550D01*
X45901857Y-4112686D01*
X46683201Y-4895395D01*
X47704598Y-5319516D01*
X48810550Y-5320481D01*
X49832686Y-4898143D01*
X50615395Y-4116799D01*
X50799930Y-3672389D01*
X50981857Y-4112686D01*
X51763201Y-4895395D01*
X52784598Y-5319516D01*
X53890550Y-5320481D01*
X54912686Y-4898143D01*
X55695395Y-4116799D01*
X55701083Y-4103099D01*
X56019744Y-4103099D01*
X56244585Y-4647257D01*
X56660553Y-5063951D01*
X57204318Y-5289743D01*
X57793099Y-5290256D01*
X58337257Y-5065415D01*
X58753951Y-4649447D01*
X58979743Y-4105682D01*
X58979745Y-4103099D01*
X68019744Y-4103099D01*
X68244585Y-4647257D01*
X68660553Y-5063951D01*
X69204318Y-5289743D01*
X69793099Y-5290256D01*
X70337257Y-5065415D01*
X70753951Y-4649447D01*
X70979743Y-4105682D01*
X70980256Y-3516901D01*
X70755415Y-2972743D01*
X70339447Y-2556049D01*
X69795682Y-2330257D01*
X69206901Y-2329744D01*
X68662743Y-2554585D01*
X68246049Y-2970553D01*
X68020257Y-3514318D01*
X68019744Y-4103099D01*
X58979745Y-4103099D01*
X58980256Y-3516901D01*
X58755415Y-2972743D01*
X58339447Y-2556049D01*
X57795682Y-2330257D01*
X57206901Y-2329744D01*
X56662743Y-2554585D01*
X56246049Y-2970553D01*
X56020257Y-3514318D01*
X56019744Y-4103099D01*
X55701083Y-4103099D01*
X56119516Y-3095402D01*
X56120481Y-1989450D01*
X55856266Y-1350000D01*
X71143992Y-1350000D01*
X70880484Y-1984598D01*
X70879519Y-3090550D01*
X71301857Y-4112686D01*
X72083201Y-4895395D01*
X73104598Y-5319516D01*
X74210550Y-5320481D01*
X74850000Y-5056266D01*
X74850000Y-43203992D01*
X74215402Y-42940484D01*
X73109450Y-42939519D01*
X72087314Y-43361857D01*
X71304605Y-44143201D01*
X70880484Y-45164598D01*
X70879519Y-46270550D01*
X71143734Y-46910000D01*
X55856008Y-46910000D01*
X56119516Y-46275402D01*
X56120481Y-45169450D01*
X55944317Y-44743099D01*
X56019744Y-44743099D01*
X56244585Y-45287257D01*
X56660553Y-45703951D01*
X57204318Y-45929743D01*
X57793099Y-45930256D01*
X58337257Y-45705415D01*
X58753951Y-45289447D01*
X58979743Y-44745682D01*
X58979745Y-44743099D01*
X68019744Y-44743099D01*
X68244585Y-45287257D01*
X68660553Y-45703951D01*
X69204318Y-45929743D01*
X69793099Y-45930256D01*
X70337257Y-45705415D01*
X70753951Y-45289447D01*
X70979743Y-44745682D01*
X70980256Y-44156901D01*
X70755415Y-43612743D01*
X70339447Y-43196049D01*
X69795682Y-42970257D01*
X69206901Y-42969744D01*
X68662743Y-43194585D01*
X68246049Y-43610553D01*
X68020257Y-44154318D01*
X68019744Y-44743099D01*
X58979745Y-44743099D01*
X58980256Y-44156901D01*
X58755415Y-43612743D01*
X58339447Y-43196049D01*
X57795682Y-42970257D01*
X57206901Y-42969744D01*
X56662743Y-43194585D01*
X56246049Y-43610553D01*
X56020257Y-44154318D01*
X56019744Y-44743099D01*
X55944317Y-44743099D01*
X55698143Y-44147314D01*
X54916799Y-43364605D01*
X53895402Y-42940484D01*
X52789450Y-42939519D01*
X51767314Y-43361857D01*
X50984605Y-44143201D01*
X50800070Y-44587611D01*
X50618143Y-44147314D01*
X49836799Y-43364605D01*
X48815402Y-42940484D01*
X47709450Y-42939519D01*
X46687314Y-43361857D01*
X45904605Y-44143201D01*
X45480484Y-45164598D01*
X45479519Y-46270550D01*
X45743734Y-46910000D01*
X30560000Y-46910000D01*
X30560000Y-46659559D01*
X30719516Y-46275402D01*
X30720481Y-45169450D01*
X30560000Y-44781056D01*
X30560000Y-44743099D01*
X30619744Y-44743099D01*
X30844585Y-45287257D01*
X31260553Y-45703951D01*
X31804318Y-45929743D01*
X32393099Y-45930256D01*
X32937257Y-45705415D01*
X33353951Y-45289447D01*
X33579743Y-44745682D01*
X33579745Y-44743099D01*
X42619744Y-44743099D01*
X42844585Y-45287257D01*
X43260553Y-45703951D01*
X43804318Y-45929743D01*
X44393099Y-45930256D01*
X44937257Y-45705415D01*
X45353951Y-45289447D01*
X45579743Y-44745682D01*
X45580256Y-44156901D01*
X45355415Y-43612743D01*
X44939447Y-43196049D01*
X44395682Y-42970257D01*
X43806901Y-42969744D01*
X43262743Y-43194585D01*
X42846049Y-43610553D01*
X42620257Y-44154318D01*
X42619744Y-44743099D01*
X33579745Y-44743099D01*
X33580256Y-44156901D01*
X33355415Y-43612743D01*
X32939447Y-43196049D01*
X32395682Y-42970257D01*
X31806901Y-42969744D01*
X31262743Y-43194585D01*
X30846049Y-43610553D01*
X30620257Y-44154318D01*
X30619744Y-44743099D01*
X30560000Y-44743099D01*
X30560000Y-42344079D01*
X34569831Y-42344079D01*
X34718712Y-42704400D01*
X34994150Y-42980319D01*
X35354211Y-43129829D01*
X35744079Y-43130169D01*
X36104400Y-42981288D01*
X36380319Y-42705850D01*
X36529829Y-42345789D01*
X36529830Y-42344079D01*
X36609831Y-42344079D01*
X36758712Y-42704400D01*
X37034150Y-42980319D01*
X37394211Y-43129829D01*
X37784079Y-43130169D01*
X38144400Y-42981288D01*
X38420319Y-42705850D01*
X38569829Y-42345789D01*
X38569830Y-42344079D01*
X38649831Y-42344079D01*
X38798712Y-42704400D01*
X39074150Y-42980319D01*
X39434211Y-43129829D01*
X39824079Y-43130169D01*
X40184400Y-42981288D01*
X40460319Y-42705850D01*
X40609829Y-42345789D01*
X40610169Y-41955921D01*
X40461288Y-41595600D01*
X40185850Y-41319681D01*
X39825789Y-41170171D01*
X39435921Y-41169831D01*
X39075600Y-41318712D01*
X38799681Y-41594150D01*
X38650171Y-41954211D01*
X38649831Y-42344079D01*
X38569830Y-42344079D01*
X38570169Y-41955921D01*
X38421288Y-41595600D01*
X38145850Y-41319681D01*
X37785789Y-41170171D01*
X37395921Y-41169831D01*
X37035600Y-41318712D01*
X36759681Y-41594150D01*
X36610171Y-41954211D01*
X36609831Y-42344079D01*
X36529830Y-42344079D01*
X36530169Y-41955921D01*
X36381288Y-41595600D01*
X36105850Y-41319681D01*
X35745789Y-41170171D01*
X35355921Y-41169831D01*
X34995600Y-41318712D01*
X34719681Y-41594150D01*
X34570171Y-41954211D01*
X34569831Y-42344079D01*
X30560000Y-42344079D01*
X30560000Y-39970000D01*
X35658388Y-39970000D01*
X35738712Y-40164400D01*
X36014150Y-40440319D01*
X36374211Y-40589829D01*
X36764079Y-40590169D01*
X37124400Y-40441288D01*
X37189639Y-40376162D01*
X38084255Y-40376162D01*
X38168781Y-40506507D01*
X38545445Y-40607112D01*
X38931937Y-40555915D01*
X39051219Y-40506507D01*
X39135745Y-40376162D01*
X38610000Y-39850416D01*
X38084255Y-40376162D01*
X37189639Y-40376162D01*
X37400319Y-40165850D01*
X37549829Y-39805789D01*
X37550056Y-39545445D01*
X37612888Y-39545445D01*
X37664085Y-39931937D01*
X37713493Y-40051219D01*
X37843838Y-40135745D01*
X38369584Y-39610000D01*
X38850416Y-39610000D01*
X39376162Y-40135745D01*
X39506507Y-40051219D01*
X39572516Y-39804079D01*
X39669831Y-39804079D01*
X39818712Y-40164400D01*
X40094150Y-40440319D01*
X40454211Y-40589829D01*
X40844079Y-40590169D01*
X41204400Y-40441288D01*
X41480319Y-40165850D01*
X41629829Y-39805789D01*
X41630169Y-39415921D01*
X41481288Y-39055600D01*
X41205850Y-38779681D01*
X40845789Y-38630171D01*
X40455921Y-38629831D01*
X40095600Y-38778712D01*
X39819681Y-39054150D01*
X39670171Y-39414211D01*
X39669831Y-39804079D01*
X39572516Y-39804079D01*
X39607112Y-39674555D01*
X39555915Y-39288063D01*
X39506507Y-39168781D01*
X39376162Y-39084255D01*
X38850416Y-39610000D01*
X38369584Y-39610000D01*
X37843838Y-39084255D01*
X37713493Y-39168781D01*
X37612888Y-39545445D01*
X37550056Y-39545445D01*
X37550169Y-39415921D01*
X37401288Y-39055600D01*
X37189896Y-38843838D01*
X38084255Y-38843838D01*
X38610000Y-39369584D01*
X39135745Y-38843838D01*
X39051219Y-38713493D01*
X38674555Y-38612888D01*
X38288063Y-38664085D01*
X38168781Y-38713493D01*
X38084255Y-38843838D01*
X37189896Y-38843838D01*
X37125850Y-38779681D01*
X36765789Y-38630171D01*
X36375921Y-38629831D01*
X36015600Y-38778712D01*
X35739681Y-39054150D01*
X35658357Y-39250000D01*
X30560000Y-39250000D01*
X30560000Y-37190000D01*
X42522884Y-37190000D01*
X44830441Y-39497558D01*
X44947233Y-39575597D01*
X44970090Y-39580143D01*
X45085000Y-39603000D01*
X55095884Y-39603000D01*
X59943442Y-44450559D01*
X60060234Y-44528597D01*
X60198000Y-44556000D01*
X62984000Y-44556000D01*
X63121766Y-44528597D01*
X63238558Y-44450558D01*
X64639951Y-43049165D01*
X64834211Y-43129829D01*
X65224079Y-43130169D01*
X65584400Y-42981288D01*
X65860319Y-42705850D01*
X66009829Y-42345789D01*
X66010169Y-41955921D01*
X65861288Y-41595600D01*
X65585850Y-41319681D01*
X65225789Y-41170171D01*
X64835921Y-41169831D01*
X64475600Y-41318712D01*
X64199681Y-41594150D01*
X64050171Y-41954211D01*
X64049831Y-42344079D01*
X64130813Y-42540071D01*
X62834884Y-43836000D01*
X60347117Y-43836000D01*
X58855196Y-42344079D01*
X59969831Y-42344079D01*
X60118712Y-42704400D01*
X60394150Y-42980319D01*
X60754211Y-43129829D01*
X61144079Y-43130169D01*
X61504400Y-42981288D01*
X61780319Y-42705850D01*
X61929829Y-42345789D01*
X61929830Y-42344079D01*
X62009831Y-42344079D01*
X62158712Y-42704400D01*
X62434150Y-42980319D01*
X62794211Y-43129829D01*
X63184079Y-43130169D01*
X63544400Y-42981288D01*
X63820319Y-42705850D01*
X63969829Y-42345789D01*
X63970169Y-41955921D01*
X63821288Y-41595600D01*
X63545850Y-41319681D01*
X63185789Y-41170171D01*
X62795921Y-41169831D01*
X62435600Y-41318712D01*
X62159681Y-41594150D01*
X62010171Y-41954211D01*
X62009831Y-42344079D01*
X61929830Y-42344079D01*
X61930169Y-41955921D01*
X61781288Y-41595600D01*
X61505850Y-41319681D01*
X61145789Y-41170171D01*
X60755921Y-41169831D01*
X60395600Y-41318712D01*
X60119681Y-41594150D01*
X59970171Y-41954211D01*
X59969831Y-42344079D01*
X58855196Y-42344079D01*
X55499558Y-38988442D01*
X55382766Y-38910403D01*
X55245000Y-38883000D01*
X45234117Y-38883000D01*
X42926558Y-36575442D01*
X42895965Y-36555000D01*
X43411884Y-36555000D01*
X45451441Y-38594558D01*
X45555495Y-38664085D01*
X45568234Y-38672597D01*
X45706000Y-38700000D01*
X60550884Y-38700000D01*
X61070835Y-39219951D01*
X60990171Y-39414211D01*
X60989831Y-39804079D01*
X61138712Y-40164400D01*
X61414150Y-40440319D01*
X61774211Y-40589829D01*
X62164079Y-40590169D01*
X62524400Y-40441288D01*
X62589639Y-40376162D01*
X63484255Y-40376162D01*
X63568781Y-40506507D01*
X63945445Y-40607112D01*
X64331937Y-40555915D01*
X64451219Y-40506507D01*
X64535745Y-40376162D01*
X64010000Y-39850416D01*
X63484255Y-40376162D01*
X62589639Y-40376162D01*
X62800319Y-40165850D01*
X62949829Y-39805789D01*
X62950056Y-39545445D01*
X63012888Y-39545445D01*
X63064085Y-39931937D01*
X63113493Y-40051219D01*
X63243838Y-40135745D01*
X63769584Y-39610000D01*
X64250416Y-39610000D01*
X64776162Y-40135745D01*
X64906507Y-40051219D01*
X64972516Y-39804079D01*
X65069831Y-39804079D01*
X65218712Y-40164400D01*
X65494150Y-40440319D01*
X65854211Y-40589829D01*
X66244079Y-40590169D01*
X66604400Y-40441288D01*
X66880319Y-40165850D01*
X67029829Y-39805789D01*
X67030169Y-39415921D01*
X66881288Y-39055600D01*
X66605850Y-38779681D01*
X66245789Y-38630171D01*
X65855921Y-38629831D01*
X65495600Y-38778712D01*
X65219681Y-39054150D01*
X65070171Y-39414211D01*
X65069831Y-39804079D01*
X64972516Y-39804079D01*
X65007112Y-39674555D01*
X64955915Y-39288063D01*
X64906507Y-39168781D01*
X64776162Y-39084255D01*
X64250416Y-39610000D01*
X63769584Y-39610000D01*
X63243838Y-39084255D01*
X63113493Y-39168781D01*
X63012888Y-39545445D01*
X62950056Y-39545445D01*
X62950169Y-39415921D01*
X62801288Y-39055600D01*
X62589896Y-38843838D01*
X63484255Y-38843838D01*
X64010000Y-39369584D01*
X64535745Y-38843838D01*
X64451219Y-38713493D01*
X64074555Y-38612888D01*
X63688063Y-38664085D01*
X63568781Y-38713493D01*
X63484255Y-38843838D01*
X62589896Y-38843838D01*
X62525850Y-38779681D01*
X62165789Y-38630171D01*
X61775921Y-38629831D01*
X61579929Y-38710813D01*
X60954558Y-38085442D01*
X60837766Y-38007403D01*
X60700000Y-37980000D01*
X45855117Y-37980000D01*
X43815558Y-35940442D01*
X43698766Y-35862403D01*
X43561000Y-35835000D01*
X30560000Y-35835000D01*
X30560000Y-35640000D01*
X43815000Y-35640000D01*
X43846124Y-35633697D01*
X43872345Y-35615782D01*
X43889529Y-35589077D01*
X43895000Y-35560000D01*
X43895000Y-34793028D01*
X44080125Y-34869899D01*
X44310863Y-34870101D01*
X44524114Y-34781987D01*
X44656332Y-34650000D01*
X46529843Y-34650000D01*
X46661027Y-34781413D01*
X46874125Y-34869899D01*
X47104863Y-34870101D01*
X47318114Y-34781987D01*
X47481413Y-34618973D01*
X47569899Y-34405875D01*
X47570101Y-34175137D01*
X47481987Y-33961886D01*
X47343139Y-33822795D01*
X47697621Y-33822795D01*
X47788394Y-33958330D01*
X48183376Y-34067379D01*
X48590024Y-34016975D01*
X48731606Y-33958330D01*
X48822379Y-33822795D01*
X60397621Y-33822795D01*
X60488394Y-33958330D01*
X60883376Y-34067379D01*
X61290024Y-34016975D01*
X61431606Y-33958330D01*
X61522379Y-33822795D01*
X62937621Y-33822795D01*
X63028394Y-33958330D01*
X63423376Y-34067379D01*
X63830024Y-34016975D01*
X63971606Y-33958330D01*
X64062379Y-33822795D01*
X63500000Y-33260416D01*
X62937621Y-33822795D01*
X61522379Y-33822795D01*
X60960000Y-33260416D01*
X60397621Y-33822795D01*
X48822379Y-33822795D01*
X48260000Y-33260416D01*
X47697621Y-33822795D01*
X47343139Y-33822795D01*
X47318973Y-33798587D01*
X47105875Y-33710101D01*
X46875137Y-33709899D01*
X46661886Y-33798013D01*
X46529668Y-33930000D01*
X46210580Y-33930000D01*
X46282379Y-33822795D01*
X45720000Y-33260416D01*
X45157621Y-33822795D01*
X45229420Y-33930000D01*
X44656157Y-33930000D01*
X44524973Y-33798587D01*
X44311875Y-33710101D01*
X44081137Y-33709899D01*
X43895000Y-33786810D01*
X43895000Y-32943376D01*
X44672621Y-32943376D01*
X44723025Y-33350024D01*
X44781670Y-33491606D01*
X44917205Y-33582379D01*
X45479584Y-33020000D01*
X45960416Y-33020000D01*
X46522795Y-33582379D01*
X46658330Y-33491606D01*
X46767379Y-33096624D01*
X46748384Y-32943376D01*
X47212621Y-32943376D01*
X47263025Y-33350024D01*
X47321670Y-33491606D01*
X47457205Y-33582379D01*
X48019584Y-33020000D01*
X48500416Y-33020000D01*
X49062795Y-33582379D01*
X49198330Y-33491606D01*
X49307379Y-33096624D01*
X49288384Y-32943376D01*
X59912621Y-32943376D01*
X59963025Y-33350024D01*
X60021670Y-33491606D01*
X60157205Y-33582379D01*
X60719584Y-33020000D01*
X61200416Y-33020000D01*
X61762795Y-33582379D01*
X61898330Y-33491606D01*
X62007379Y-33096624D01*
X61988384Y-32943376D01*
X62452621Y-32943376D01*
X62503025Y-33350024D01*
X62561670Y-33491606D01*
X62697205Y-33582379D01*
X63259584Y-33020000D01*
X63740416Y-33020000D01*
X64302795Y-33582379D01*
X64438330Y-33491606D01*
X64547379Y-33096624D01*
X64496975Y-32689976D01*
X64438330Y-32548394D01*
X64302795Y-32457621D01*
X63740416Y-33020000D01*
X63259584Y-33020000D01*
X62697205Y-32457621D01*
X62561670Y-32548394D01*
X62452621Y-32943376D01*
X61988384Y-32943376D01*
X61956975Y-32689976D01*
X61898330Y-32548394D01*
X61762795Y-32457621D01*
X61200416Y-33020000D01*
X60719584Y-33020000D01*
X60157205Y-32457621D01*
X60021670Y-32548394D01*
X59912621Y-32943376D01*
X49288384Y-32943376D01*
X49256975Y-32689976D01*
X49198330Y-32548394D01*
X49062795Y-32457621D01*
X48500416Y-33020000D01*
X48019584Y-33020000D01*
X47457205Y-32457621D01*
X47321670Y-32548394D01*
X47212621Y-32943376D01*
X46748384Y-32943376D01*
X46716975Y-32689976D01*
X46658330Y-32548394D01*
X46522795Y-32457621D01*
X45960416Y-33020000D01*
X45479584Y-33020000D01*
X44917205Y-32457621D01*
X44781670Y-32548394D01*
X44672621Y-32943376D01*
X43895000Y-32943376D01*
X43895000Y-32217205D01*
X45157621Y-32217205D01*
X45720000Y-32779584D01*
X46282379Y-32217205D01*
X47697621Y-32217205D01*
X48260000Y-32779584D01*
X48822379Y-32217205D01*
X60397621Y-32217205D01*
X60960000Y-32779584D01*
X61522379Y-32217205D01*
X62937621Y-32217205D01*
X63500000Y-32779584D01*
X64062379Y-32217205D01*
X63971606Y-32081670D01*
X63576624Y-31972621D01*
X63169976Y-32023025D01*
X63028394Y-32081670D01*
X62937621Y-32217205D01*
X61522379Y-32217205D01*
X61431606Y-32081670D01*
X61036624Y-31972621D01*
X60629976Y-32023025D01*
X60488394Y-32081670D01*
X60397621Y-32217205D01*
X48822379Y-32217205D01*
X48731606Y-32081670D01*
X48336624Y-31972621D01*
X47929976Y-32023025D01*
X47788394Y-32081670D01*
X47697621Y-32217205D01*
X46282379Y-32217205D01*
X46191606Y-32081670D01*
X45796624Y-31972621D01*
X45389976Y-32023025D01*
X45248394Y-32081670D01*
X45157621Y-32217205D01*
X43895000Y-32217205D01*
X43895000Y-31195000D01*
X44978383Y-31195000D01*
X45135790Y-31352682D01*
X45514221Y-31509821D01*
X45923981Y-31510179D01*
X46302686Y-31353701D01*
X46461664Y-31195000D01*
X47518383Y-31195000D01*
X47675790Y-31352682D01*
X48054221Y-31509821D01*
X48463981Y-31510179D01*
X48842686Y-31353701D01*
X49001664Y-31195000D01*
X60218383Y-31195000D01*
X60375790Y-31352682D01*
X60754221Y-31509821D01*
X61163981Y-31510179D01*
X61542686Y-31353701D01*
X61701664Y-31195000D01*
X62758383Y-31195000D01*
X62915790Y-31352682D01*
X63294221Y-31509821D01*
X63703981Y-31510179D01*
X64082686Y-31353701D01*
X64241664Y-31195000D01*
X68580000Y-31195000D01*
X68611124Y-31188697D01*
X68637345Y-31170782D01*
X68654529Y-31144077D01*
X68660000Y-31115000D01*
X68660000Y-19685000D01*
X68653697Y-19653876D01*
X68635782Y-19627655D01*
X68609077Y-19610471D01*
X68580000Y-19605000D01*
X67264116Y-19605000D01*
X68001178Y-18867938D01*
X68186863Y-18868101D01*
X68400114Y-18779987D01*
X68563413Y-18616973D01*
X68651899Y-18403875D01*
X68652101Y-18173137D01*
X68563987Y-17959886D01*
X68400973Y-17796587D01*
X68187875Y-17708101D01*
X67957137Y-17707899D01*
X67743886Y-17796013D01*
X67580587Y-17959027D01*
X67492101Y-18172125D01*
X67491937Y-18358947D01*
X66468304Y-19382580D01*
X66245779Y-19290179D01*
X65836019Y-19289821D01*
X65457314Y-19446299D01*
X65298336Y-19605000D01*
X64241617Y-19605000D01*
X64084210Y-19447318D01*
X63705779Y-19290179D01*
X63296019Y-19289821D01*
X62917314Y-19446299D01*
X62758336Y-19605000D01*
X41864116Y-19605000D01*
X41966178Y-19502938D01*
X42151863Y-19503101D01*
X42365114Y-19414987D01*
X42528413Y-19251973D01*
X42616899Y-19038875D01*
X42617101Y-18808137D01*
X42528987Y-18594886D01*
X42516918Y-18582795D01*
X62937621Y-18582795D01*
X63028394Y-18718330D01*
X63423376Y-18827379D01*
X63830024Y-18776975D01*
X63971606Y-18718330D01*
X64062379Y-18582795D01*
X65477621Y-18582795D01*
X65568394Y-18718330D01*
X65963376Y-18827379D01*
X66370024Y-18776975D01*
X66511606Y-18718330D01*
X66602379Y-18582795D01*
X66040000Y-18020416D01*
X65477621Y-18582795D01*
X64062379Y-18582795D01*
X63500000Y-18020416D01*
X62937621Y-18582795D01*
X42516918Y-18582795D01*
X42365973Y-18431587D01*
X42152875Y-18343101D01*
X41922137Y-18342899D01*
X41708886Y-18431013D01*
X41545587Y-18594027D01*
X41457101Y-18807125D01*
X41456937Y-18993946D01*
X41068304Y-19382580D01*
X40845779Y-19290179D01*
X40436019Y-19289821D01*
X40057314Y-19446299D01*
X39898336Y-19605000D01*
X38841617Y-19605000D01*
X38684210Y-19447318D01*
X38305779Y-19290179D01*
X37896019Y-19289821D01*
X37671647Y-19382530D01*
X36871912Y-18582795D01*
X37537621Y-18582795D01*
X37628394Y-18718330D01*
X38023376Y-18827379D01*
X38430024Y-18776975D01*
X38571606Y-18718330D01*
X38662379Y-18582795D01*
X40077621Y-18582795D01*
X40168394Y-18718330D01*
X40563376Y-18827379D01*
X40970024Y-18776975D01*
X41111606Y-18718330D01*
X41202379Y-18582795D01*
X40640000Y-18020416D01*
X40077621Y-18582795D01*
X38662379Y-18582795D01*
X38100000Y-18020416D01*
X37537621Y-18582795D01*
X36871912Y-18582795D01*
X36393938Y-18104822D01*
X36394101Y-17919137D01*
X36305987Y-17705886D01*
X36303482Y-17703376D01*
X37052621Y-17703376D01*
X37103025Y-18110024D01*
X37161670Y-18251606D01*
X37297205Y-18342379D01*
X37859584Y-17780000D01*
X38340416Y-17780000D01*
X38902795Y-18342379D01*
X39038330Y-18251606D01*
X39147379Y-17856624D01*
X39128384Y-17703376D01*
X39592621Y-17703376D01*
X39643025Y-18110024D01*
X39701670Y-18251606D01*
X39837205Y-18342379D01*
X40399584Y-17780000D01*
X40880416Y-17780000D01*
X41442795Y-18342379D01*
X41578330Y-18251606D01*
X41687379Y-17856624D01*
X41676378Y-17767863D01*
X56569899Y-17767863D01*
X56658013Y-17981114D01*
X56821027Y-18144413D01*
X57034125Y-18232899D01*
X57264863Y-18233101D01*
X57478114Y-18144987D01*
X57610332Y-18013000D01*
X59483843Y-18013000D01*
X59615027Y-18144413D01*
X59828125Y-18232899D01*
X60058863Y-18233101D01*
X60272114Y-18144987D01*
X60435413Y-17981973D01*
X60523899Y-17768875D01*
X60523956Y-17703376D01*
X62452621Y-17703376D01*
X62503025Y-18110024D01*
X62561670Y-18251606D01*
X62697205Y-18342379D01*
X63259584Y-17780000D01*
X63740416Y-17780000D01*
X64302795Y-18342379D01*
X64438330Y-18251606D01*
X64547379Y-17856624D01*
X64528384Y-17703376D01*
X64992621Y-17703376D01*
X65043025Y-18110024D01*
X65101670Y-18251606D01*
X65237205Y-18342379D01*
X65799584Y-17780000D01*
X66280416Y-17780000D01*
X66842795Y-18342379D01*
X66978330Y-18251606D01*
X67087379Y-17856624D01*
X67036975Y-17449976D01*
X66978330Y-17308394D01*
X66842795Y-17217621D01*
X66280416Y-17780000D01*
X65799584Y-17780000D01*
X65237205Y-17217621D01*
X65101670Y-17308394D01*
X64992621Y-17703376D01*
X64528384Y-17703376D01*
X64496975Y-17449976D01*
X64438330Y-17308394D01*
X64302795Y-17217621D01*
X63740416Y-17780000D01*
X63259584Y-17780000D01*
X62697205Y-17217621D01*
X62561670Y-17308394D01*
X62452621Y-17703376D01*
X60523956Y-17703376D01*
X60524101Y-17538137D01*
X60435987Y-17324886D01*
X60272973Y-17161587D01*
X60059875Y-17073101D01*
X59829137Y-17072899D01*
X59615886Y-17161013D01*
X59483668Y-17293000D01*
X57610157Y-17293000D01*
X57478973Y-17161587D01*
X57265875Y-17073101D01*
X57035137Y-17072899D01*
X56821886Y-17161013D01*
X56658587Y-17324027D01*
X56570101Y-17537125D01*
X56569899Y-17767863D01*
X41676378Y-17767863D01*
X41636975Y-17449976D01*
X41578330Y-17308394D01*
X41442795Y-17217621D01*
X40880416Y-17780000D01*
X40399584Y-17780000D01*
X39837205Y-17217621D01*
X39701670Y-17308394D01*
X39592621Y-17703376D01*
X39128384Y-17703376D01*
X39096975Y-17449976D01*
X39038330Y-17308394D01*
X38902795Y-17217621D01*
X38340416Y-17780000D01*
X37859584Y-17780000D01*
X37297205Y-17217621D01*
X37161670Y-17308394D01*
X37052621Y-17703376D01*
X36303482Y-17703376D01*
X36142973Y-17542587D01*
X35929875Y-17454101D01*
X35699137Y-17453899D01*
X35485886Y-17542013D01*
X35322587Y-17705027D01*
X35234101Y-17918125D01*
X35233899Y-18148863D01*
X35322013Y-18362114D01*
X35485027Y-18525413D01*
X35698125Y-18613899D01*
X35884946Y-18614063D01*
X36875884Y-19605000D01*
X33920213Y-19605000D01*
X34019413Y-19505973D01*
X34107899Y-19292875D01*
X34108101Y-19062137D01*
X34019987Y-18848886D01*
X33856973Y-18685587D01*
X33654829Y-18601649D01*
X33892682Y-18364210D01*
X34049821Y-17985779D01*
X34050179Y-17576019D01*
X33893701Y-17197314D01*
X33673976Y-16977205D01*
X37537621Y-16977205D01*
X38100000Y-17539584D01*
X38662379Y-16977205D01*
X40077621Y-16977205D01*
X40640000Y-17539584D01*
X41202379Y-16977205D01*
X62937621Y-16977205D01*
X63500000Y-17539584D01*
X64062379Y-16977205D01*
X65477621Y-16977205D01*
X66040000Y-17539584D01*
X66602379Y-16977205D01*
X66511606Y-16841670D01*
X66116624Y-16732621D01*
X65709976Y-16783025D01*
X65568394Y-16841670D01*
X65477621Y-16977205D01*
X64062379Y-16977205D01*
X63971606Y-16841670D01*
X63576624Y-16732621D01*
X63169976Y-16783025D01*
X63028394Y-16841670D01*
X62937621Y-16977205D01*
X41202379Y-16977205D01*
X41111606Y-16841670D01*
X40716624Y-16732621D01*
X40309976Y-16783025D01*
X40168394Y-16841670D01*
X40077621Y-16977205D01*
X38662379Y-16977205D01*
X38571606Y-16841670D01*
X38176624Y-16732621D01*
X37769976Y-16783025D01*
X37628394Y-16841670D01*
X37537621Y-16977205D01*
X33673976Y-16977205D01*
X33604210Y-16907318D01*
X33225779Y-16750179D01*
X32816019Y-16749821D01*
X32437314Y-16906299D01*
X32147318Y-17195790D01*
X31990179Y-17574221D01*
X31989821Y-17983981D01*
X32146299Y-18362686D01*
X32435790Y-18652682D01*
X32525661Y-18690000D01*
X31899117Y-18690000D01*
X31417420Y-18208304D01*
X31509821Y-17985779D01*
X31510179Y-17576019D01*
X31353701Y-17197314D01*
X31064210Y-16907318D01*
X30685779Y-16750179D01*
X30276019Y-16749821D01*
X29897314Y-16906299D01*
X29607318Y-17195790D01*
X29450179Y-17574221D01*
X29449821Y-17983981D01*
X29606299Y-18362686D01*
X29895790Y-18652682D01*
X30274221Y-18809821D01*
X30683981Y-18810179D01*
X30908353Y-18717470D01*
X30939739Y-18748855D01*
X30786886Y-18812013D01*
X30654668Y-18944000D01*
X29797157Y-18944000D01*
X29665973Y-18812587D01*
X29452875Y-18724101D01*
X29222137Y-18723899D01*
X29008886Y-18812013D01*
X28845587Y-18975027D01*
X28757101Y-19188125D01*
X28756899Y-19418863D01*
X28833810Y-19605000D01*
X15981617Y-19605000D01*
X15824210Y-19447318D01*
X15445779Y-19290179D01*
X15036019Y-19289821D01*
X14657314Y-19446299D01*
X14498336Y-19605000D01*
X13441617Y-19605000D01*
X13284210Y-19447318D01*
X12905779Y-19290179D01*
X12496019Y-19289821D01*
X12117314Y-19446299D01*
X11958336Y-19605000D01*
X7620000Y-19605000D01*
X7588876Y-19611303D01*
X7562655Y-19629218D01*
X7545471Y-19655923D01*
X7540000Y-19685000D01*
X7540000Y-29845000D01*
X7546303Y-29876124D01*
X7564218Y-29902345D01*
X7590923Y-29919529D01*
X7620000Y-29925000D01*
X19605000Y-29925000D01*
X19605000Y-37358383D01*
X19447318Y-37515790D01*
X19290179Y-37894221D01*
X19289821Y-38303981D01*
X19446299Y-38682686D01*
X19605000Y-38841664D01*
X19605000Y-46910000D01*
X5056008Y-46910000D01*
X5319516Y-46275402D01*
X5320481Y-45169450D01*
X4898143Y-44147314D01*
X4116799Y-43364605D01*
X3095402Y-42940484D01*
X1989450Y-42939519D01*
X1350000Y-43203734D01*
X1350000Y-38340000D01*
X16750000Y-38340000D01*
X16750000Y-38905695D01*
X16792627Y-39008607D01*
X16871392Y-39087372D01*
X16974304Y-39130000D01*
X17540000Y-39130000D01*
X17610000Y-39060000D01*
X17610000Y-38270000D01*
X17950000Y-38270000D01*
X17950000Y-39060000D01*
X18020000Y-39130000D01*
X18585696Y-39130000D01*
X18688608Y-39087372D01*
X18767373Y-39008607D01*
X18810000Y-38905695D01*
X18810000Y-38340000D01*
X18740000Y-38270000D01*
X17950000Y-38270000D01*
X17610000Y-38270000D01*
X16820000Y-38270000D01*
X16750000Y-38340000D01*
X1350000Y-38340000D01*
X1350000Y-37294305D01*
X16750000Y-37294305D01*
X16750000Y-37860000D01*
X16820000Y-37930000D01*
X17610000Y-37930000D01*
X17610000Y-37140000D01*
X17950000Y-37140000D01*
X17950000Y-37930000D01*
X18740000Y-37930000D01*
X18810000Y-37860000D01*
X18810000Y-37294305D01*
X18767373Y-37191393D01*
X18688608Y-37112628D01*
X18585696Y-37070000D01*
X18020000Y-37070000D01*
X17950000Y-37140000D01*
X17610000Y-37140000D01*
X17540000Y-37070000D01*
X16974304Y-37070000D01*
X16871392Y-37112628D01*
X16792627Y-37191393D01*
X16750000Y-37294305D01*
X1350000Y-37294305D01*
X1350000Y-36454373D01*
X5189856Y-36454373D01*
X5315950Y-36759543D01*
X5549229Y-36993230D01*
X5854178Y-37119856D01*
X6184373Y-37120144D01*
X6489543Y-36994050D01*
X6723230Y-36760771D01*
X6849856Y-36455822D01*
X6850144Y-36125627D01*
X6724050Y-35820457D01*
X6490771Y-35586770D01*
X6185822Y-35460144D01*
X5855627Y-35459856D01*
X5550457Y-35585950D01*
X5316770Y-35819229D01*
X5190144Y-36124178D01*
X5189856Y-36454373D01*
X1350000Y-36454373D01*
X1350000Y-34530000D01*
X6590000Y-34530000D01*
X6590000Y-35095695D01*
X6632627Y-35198607D01*
X6711392Y-35277372D01*
X6814304Y-35320000D01*
X7380000Y-35320000D01*
X7450000Y-35250000D01*
X7450000Y-34460000D01*
X7790000Y-34460000D01*
X7790000Y-35250000D01*
X7860000Y-35320000D01*
X8425696Y-35320000D01*
X8528608Y-35277372D01*
X8607373Y-35198607D01*
X8650000Y-35095695D01*
X8650000Y-34530000D01*
X8613981Y-34493981D01*
X9089821Y-34493981D01*
X9246299Y-34872686D01*
X9535790Y-35162682D01*
X9914221Y-35319821D01*
X10323981Y-35320179D01*
X10702686Y-35163701D01*
X10992682Y-34874210D01*
X11149821Y-34495779D01*
X11150179Y-34086019D01*
X10993701Y-33707314D01*
X10704210Y-33417318D01*
X10325779Y-33260179D01*
X9916019Y-33259821D01*
X9537314Y-33416299D01*
X9247318Y-33705790D01*
X9090179Y-34084221D01*
X9089821Y-34493981D01*
X8613981Y-34493981D01*
X8580000Y-34460000D01*
X7790000Y-34460000D01*
X7450000Y-34460000D01*
X6660000Y-34460000D01*
X6590000Y-34530000D01*
X1350000Y-34530000D01*
X1350000Y-33484305D01*
X6590000Y-33484305D01*
X6590000Y-34050000D01*
X6660000Y-34120000D01*
X7450000Y-34120000D01*
X7450000Y-33330000D01*
X7790000Y-33330000D01*
X7790000Y-34120000D01*
X8580000Y-34120000D01*
X8650000Y-34050000D01*
X8650000Y-33484305D01*
X8607373Y-33381393D01*
X8528608Y-33302628D01*
X8425696Y-33260000D01*
X7860000Y-33260000D01*
X7790000Y-33330000D01*
X7450000Y-33330000D01*
X7380000Y-33260000D01*
X6814304Y-33260000D01*
X6711392Y-33302628D01*
X6632627Y-33381393D01*
X6590000Y-33484305D01*
X1350000Y-33484305D01*
X1350000Y-18582795D01*
X12137621Y-18582795D01*
X12228394Y-18718330D01*
X12623376Y-18827379D01*
X13030024Y-18776975D01*
X13171606Y-18718330D01*
X13262379Y-18582795D01*
X14677621Y-18582795D01*
X14768394Y-18718330D01*
X15163376Y-18827379D01*
X15570024Y-18776975D01*
X15711606Y-18718330D01*
X15802379Y-18582795D01*
X15240000Y-18020416D01*
X14677621Y-18582795D01*
X13262379Y-18582795D01*
X12700000Y-18020416D01*
X12137621Y-18582795D01*
X1350000Y-18582795D01*
X1350000Y-17703376D01*
X11652621Y-17703376D01*
X11703025Y-18110024D01*
X11761670Y-18251606D01*
X11897205Y-18342379D01*
X12459584Y-17780000D01*
X12940416Y-17780000D01*
X13502795Y-18342379D01*
X13638330Y-18251606D01*
X13747379Y-17856624D01*
X13728384Y-17703376D01*
X14192621Y-17703376D01*
X14243025Y-18110024D01*
X14301670Y-18251606D01*
X14437205Y-18342379D01*
X14999584Y-17780000D01*
X15480416Y-17780000D01*
X16042795Y-18342379D01*
X16178330Y-18251606D01*
X16287379Y-17856624D01*
X16236975Y-17449976D01*
X16178330Y-17308394D01*
X16042795Y-17217621D01*
X15480416Y-17780000D01*
X14999584Y-17780000D01*
X14437205Y-17217621D01*
X14301670Y-17308394D01*
X14192621Y-17703376D01*
X13728384Y-17703376D01*
X13696975Y-17449976D01*
X13638330Y-17308394D01*
X13502795Y-17217621D01*
X12940416Y-17780000D01*
X12459584Y-17780000D01*
X11897205Y-17217621D01*
X11761670Y-17308394D01*
X11652621Y-17703376D01*
X1350000Y-17703376D01*
X1350000Y-16977205D01*
X12137621Y-16977205D01*
X12700000Y-17539584D01*
X13262379Y-16977205D01*
X14677621Y-16977205D01*
X15240000Y-17539584D01*
X15749584Y-17030000D01*
X26904515Y-17030000D01*
X26904515Y-18530000D01*
X26924039Y-18633762D01*
X26985362Y-18729060D01*
X27078930Y-18792993D01*
X27190000Y-18815485D01*
X28690000Y-18815485D01*
X28793762Y-18795961D01*
X28889060Y-18734638D01*
X28952993Y-18641070D01*
X28975485Y-18530000D01*
X28975485Y-17030000D01*
X28955961Y-16926238D01*
X28894638Y-16830940D01*
X28801070Y-16767007D01*
X28690000Y-16744515D01*
X27190000Y-16744515D01*
X27086238Y-16764039D01*
X26990940Y-16825362D01*
X26927007Y-16918930D01*
X26904515Y-17030000D01*
X15749584Y-17030000D01*
X15802379Y-16977205D01*
X15711606Y-16841670D01*
X15316624Y-16732621D01*
X14909976Y-16783025D01*
X14768394Y-16841670D01*
X14677621Y-16977205D01*
X13262379Y-16977205D01*
X13171606Y-16841670D01*
X12776624Y-16732621D01*
X12369976Y-16783025D01*
X12228394Y-16841670D01*
X12137621Y-16977205D01*
X1350000Y-16977205D01*
X1350000Y-14490000D01*
X26904515Y-14490000D01*
X26904515Y-15990000D01*
X26924039Y-16093762D01*
X26985362Y-16189060D01*
X27078930Y-16252993D01*
X27190000Y-16275485D01*
X28690000Y-16275485D01*
X28793762Y-16255961D01*
X28889060Y-16194638D01*
X28952993Y-16101070D01*
X28975485Y-15990000D01*
X28975485Y-15443981D01*
X29449821Y-15443981D01*
X29606299Y-15822686D01*
X29895790Y-16112682D01*
X30274221Y-16269821D01*
X30683981Y-16270179D01*
X31062686Y-16113701D01*
X31352682Y-15824210D01*
X31509821Y-15445779D01*
X31509822Y-15443981D01*
X31989821Y-15443981D01*
X32146299Y-15822686D01*
X32435790Y-16112682D01*
X32814221Y-16269821D01*
X33223981Y-16270179D01*
X33602686Y-16113701D01*
X33892682Y-15824210D01*
X34049821Y-15445779D01*
X34049900Y-15354863D01*
X57839899Y-15354863D01*
X57928013Y-15568114D01*
X58091027Y-15731413D01*
X58304125Y-15819899D01*
X58534863Y-15820101D01*
X58748114Y-15731987D01*
X58880332Y-15600000D01*
X63547843Y-15600000D01*
X63679027Y-15731413D01*
X63892125Y-15819899D01*
X64122863Y-15820101D01*
X64336114Y-15731987D01*
X64499413Y-15568973D01*
X64587899Y-15355875D01*
X64588101Y-15125137D01*
X64499987Y-14911886D01*
X64336973Y-14748587D01*
X64123875Y-14660101D01*
X63893137Y-14659899D01*
X63679886Y-14748013D01*
X63547668Y-14880000D01*
X58880157Y-14880000D01*
X58748973Y-14748587D01*
X58535875Y-14660101D01*
X58305137Y-14659899D01*
X58091886Y-14748013D01*
X57928587Y-14911027D01*
X57840101Y-15124125D01*
X57839899Y-15354863D01*
X34049900Y-15354863D01*
X34050179Y-15036019D01*
X33893701Y-14657314D01*
X33604210Y-14367318D01*
X33225779Y-14210179D01*
X32816019Y-14209821D01*
X32437314Y-14366299D01*
X32147318Y-14655790D01*
X31990179Y-15034221D01*
X31989821Y-15443981D01*
X31509822Y-15443981D01*
X31510179Y-15036019D01*
X31353701Y-14657314D01*
X31064210Y-14367318D01*
X30685779Y-14210179D01*
X30276019Y-14209821D01*
X29897314Y-14366299D01*
X29607318Y-14655790D01*
X29450179Y-15034221D01*
X29449821Y-15443981D01*
X28975485Y-15443981D01*
X28975485Y-14490000D01*
X28955961Y-14386238D01*
X28894638Y-14290940D01*
X28801070Y-14227007D01*
X28690000Y-14204515D01*
X27190000Y-14204515D01*
X27086238Y-14224039D01*
X26990940Y-14285362D01*
X26927007Y-14378930D01*
X26904515Y-14490000D01*
X1350000Y-14490000D01*
X1350000Y-13322863D01*
X23803899Y-13322863D01*
X23892013Y-13536114D01*
X24055027Y-13699413D01*
X24268125Y-13787899D01*
X24498863Y-13788101D01*
X24712114Y-13699987D01*
X24844332Y-13568000D01*
X35353843Y-13568000D01*
X35485027Y-13699413D01*
X35698125Y-13787899D01*
X35928863Y-13788101D01*
X36142114Y-13699987D01*
X36305413Y-13536973D01*
X36393899Y-13323875D01*
X36394101Y-13093137D01*
X36305987Y-12879886D01*
X36142973Y-12716587D01*
X35929875Y-12628101D01*
X35699137Y-12627899D01*
X35485886Y-12716013D01*
X35353668Y-12848000D01*
X24844157Y-12848000D01*
X24712973Y-12716587D01*
X24499875Y-12628101D01*
X24269137Y-12627899D01*
X24055886Y-12716013D01*
X23892587Y-12879027D01*
X23804101Y-13092125D01*
X23803899Y-13322863D01*
X1350000Y-13322863D01*
X1350000Y-11798863D01*
X25073899Y-11798863D01*
X25162013Y-12012114D01*
X25325027Y-12175413D01*
X25538125Y-12263899D01*
X25768863Y-12264101D01*
X25982114Y-12175987D01*
X26114332Y-12044000D01*
X36596000Y-12044000D01*
X36733766Y-12016597D01*
X36850558Y-11938558D01*
X39239951Y-9549165D01*
X39418502Y-9623306D01*
X39355442Y-9665442D01*
X39277403Y-9782234D01*
X39250000Y-9920000D01*
X39277403Y-10057766D01*
X39355442Y-10174558D01*
X39472234Y-10252597D01*
X39610000Y-10280000D01*
X39630000Y-10280000D01*
X39767766Y-10252597D01*
X39884558Y-10174558D01*
X39962597Y-10057766D01*
X39990000Y-9920000D01*
X39962597Y-9782234D01*
X39884558Y-9665442D01*
X39828831Y-9628206D01*
X40184400Y-9481288D01*
X40460319Y-9205850D01*
X40609829Y-8845789D01*
X40609830Y-8844079D01*
X59969831Y-8844079D01*
X60118712Y-9204400D01*
X60394150Y-9480319D01*
X60754211Y-9629829D01*
X61144079Y-9630169D01*
X61504400Y-9481288D01*
X61569639Y-9416162D01*
X62464255Y-9416162D01*
X62548781Y-9546507D01*
X62925445Y-9647112D01*
X63311937Y-9595915D01*
X63431219Y-9546507D01*
X63515745Y-9416162D01*
X62990000Y-8890416D01*
X62464255Y-9416162D01*
X61569639Y-9416162D01*
X61780319Y-9205850D01*
X61929829Y-8845789D01*
X61930056Y-8585445D01*
X61992888Y-8585445D01*
X62044085Y-8971937D01*
X62093493Y-9091219D01*
X62223838Y-9175745D01*
X62749584Y-8650000D01*
X63230416Y-8650000D01*
X63756162Y-9175745D01*
X63886507Y-9091219D01*
X63952516Y-8844079D01*
X64049831Y-8844079D01*
X64198712Y-9204400D01*
X64474150Y-9480319D01*
X64834211Y-9629829D01*
X65224079Y-9630169D01*
X65584400Y-9481288D01*
X65860319Y-9205850D01*
X66009829Y-8845789D01*
X66010169Y-8455921D01*
X65861288Y-8095600D01*
X65585850Y-7819681D01*
X65225789Y-7670171D01*
X64835921Y-7669831D01*
X64475600Y-7818712D01*
X64199681Y-8094150D01*
X64050171Y-8454211D01*
X64049831Y-8844079D01*
X63952516Y-8844079D01*
X63987112Y-8714555D01*
X63935915Y-8328063D01*
X63886507Y-8208781D01*
X63756162Y-8124255D01*
X63230416Y-8650000D01*
X62749584Y-8650000D01*
X62223838Y-8124255D01*
X62093493Y-8208781D01*
X61992888Y-8585445D01*
X61930056Y-8585445D01*
X61930169Y-8455921D01*
X61781288Y-8095600D01*
X61569896Y-7883838D01*
X62464255Y-7883838D01*
X62990000Y-8409584D01*
X63515745Y-7883838D01*
X63431219Y-7753493D01*
X63054555Y-7652888D01*
X62668063Y-7704085D01*
X62548781Y-7753493D01*
X62464255Y-7883838D01*
X61569896Y-7883838D01*
X61505850Y-7819681D01*
X61145789Y-7670171D01*
X60755921Y-7669831D01*
X60395600Y-7818712D01*
X60119681Y-8094150D01*
X59970171Y-8454211D01*
X59969831Y-8844079D01*
X40609830Y-8844079D01*
X40610169Y-8455921D01*
X40461288Y-8095600D01*
X40185850Y-7819681D01*
X39825789Y-7670171D01*
X39435921Y-7669831D01*
X39075600Y-7818712D01*
X38799681Y-8094150D01*
X38650171Y-8454211D01*
X38649831Y-8844079D01*
X38730813Y-9040071D01*
X36446884Y-11324000D01*
X26114157Y-11324000D01*
X25982973Y-11192587D01*
X25769875Y-11104101D01*
X25539137Y-11103899D01*
X25325886Y-11192013D01*
X25162587Y-11355027D01*
X25074101Y-11568125D01*
X25073899Y-11798863D01*
X1350000Y-11798863D01*
X1350000Y-8844079D01*
X9169831Y-8844079D01*
X9318712Y-9204400D01*
X9594150Y-9480319D01*
X9954211Y-9629829D01*
X10344079Y-9630169D01*
X10704400Y-9481288D01*
X10769639Y-9416162D01*
X11664255Y-9416162D01*
X11748781Y-9546507D01*
X12125445Y-9647112D01*
X12511937Y-9595915D01*
X12631219Y-9546507D01*
X12715745Y-9416162D01*
X12190000Y-8890416D01*
X11664255Y-9416162D01*
X10769639Y-9416162D01*
X10980319Y-9205850D01*
X11129829Y-8845789D01*
X11130056Y-8585445D01*
X11192888Y-8585445D01*
X11244085Y-8971937D01*
X11293493Y-9091219D01*
X11423838Y-9175745D01*
X11949584Y-8650000D01*
X12430416Y-8650000D01*
X12956162Y-9175745D01*
X13086507Y-9091219D01*
X13152516Y-8844079D01*
X13249831Y-8844079D01*
X13398712Y-9204400D01*
X13674150Y-9480319D01*
X14034211Y-9629829D01*
X14424079Y-9630169D01*
X14784400Y-9481288D01*
X15060319Y-9205850D01*
X15209829Y-8845789D01*
X15209830Y-8844079D01*
X34569831Y-8844079D01*
X34718712Y-9204400D01*
X34994150Y-9480319D01*
X35354211Y-9629829D01*
X35744079Y-9630169D01*
X36104400Y-9481288D01*
X36169639Y-9416162D01*
X37064255Y-9416162D01*
X37148781Y-9546507D01*
X37525445Y-9647112D01*
X37911937Y-9595915D01*
X38031219Y-9546507D01*
X38115745Y-9416162D01*
X37590000Y-8890416D01*
X37064255Y-9416162D01*
X36169639Y-9416162D01*
X36380319Y-9205850D01*
X36529829Y-8845789D01*
X36530056Y-8585445D01*
X36592888Y-8585445D01*
X36644085Y-8971937D01*
X36693493Y-9091219D01*
X36823838Y-9175745D01*
X37349584Y-8650000D01*
X37830416Y-8650000D01*
X38356162Y-9175745D01*
X38486507Y-9091219D01*
X38587112Y-8714555D01*
X38535915Y-8328063D01*
X38486507Y-8208781D01*
X38356162Y-8124255D01*
X37830416Y-8650000D01*
X37349584Y-8650000D01*
X36823838Y-8124255D01*
X36693493Y-8208781D01*
X36592888Y-8585445D01*
X36530056Y-8585445D01*
X36530169Y-8455921D01*
X36381288Y-8095600D01*
X36169896Y-7883838D01*
X37064255Y-7883838D01*
X37590000Y-8409584D01*
X38115745Y-7883838D01*
X38031219Y-7753493D01*
X37654555Y-7652888D01*
X37268063Y-7704085D01*
X37148781Y-7753493D01*
X37064255Y-7883838D01*
X36169896Y-7883838D01*
X36105850Y-7819681D01*
X35745789Y-7670171D01*
X35355921Y-7669831D01*
X34995600Y-7818712D01*
X34719681Y-8094150D01*
X34570171Y-8454211D01*
X34569831Y-8844079D01*
X15209830Y-8844079D01*
X15210169Y-8455921D01*
X15061288Y-8095600D01*
X14785850Y-7819681D01*
X14425789Y-7670171D01*
X14035921Y-7669831D01*
X13675600Y-7818712D01*
X13399681Y-8094150D01*
X13250171Y-8454211D01*
X13249831Y-8844079D01*
X13152516Y-8844079D01*
X13187112Y-8714555D01*
X13135915Y-8328063D01*
X13086507Y-8208781D01*
X12956162Y-8124255D01*
X12430416Y-8650000D01*
X11949584Y-8650000D01*
X11423838Y-8124255D01*
X11293493Y-8208781D01*
X11192888Y-8585445D01*
X11130056Y-8585445D01*
X11130169Y-8455921D01*
X10981288Y-8095600D01*
X10769896Y-7883838D01*
X11664255Y-7883838D01*
X12190000Y-8409584D01*
X12715745Y-7883838D01*
X12631219Y-7753493D01*
X12254555Y-7652888D01*
X11868063Y-7704085D01*
X11748781Y-7753493D01*
X11664255Y-7883838D01*
X10769896Y-7883838D01*
X10705850Y-7819681D01*
X10345789Y-7670171D01*
X9955921Y-7669831D01*
X9595600Y-7818712D01*
X9319681Y-8094150D01*
X9170171Y-8454211D01*
X9169831Y-8844079D01*
X1350000Y-8844079D01*
X1350000Y-6304079D01*
X10189831Y-6304079D01*
X10338712Y-6664400D01*
X10614150Y-6940319D01*
X10974211Y-7089829D01*
X11364079Y-7090169D01*
X11724400Y-6941288D01*
X12000319Y-6665850D01*
X12149829Y-6305789D01*
X12149830Y-6304079D01*
X12229831Y-6304079D01*
X12378712Y-6664400D01*
X12654150Y-6940319D01*
X13014211Y-7089829D01*
X13404079Y-7090169D01*
X13764400Y-6941288D01*
X14040319Y-6665850D01*
X14189829Y-6305789D01*
X14189830Y-6304079D01*
X14269831Y-6304079D01*
X14418712Y-6664400D01*
X14694150Y-6940319D01*
X15054211Y-7089829D01*
X15444079Y-7090169D01*
X15804400Y-6941288D01*
X16080319Y-6665850D01*
X16229829Y-6305789D01*
X16229830Y-6304079D01*
X35589831Y-6304079D01*
X35738712Y-6664400D01*
X36014150Y-6940319D01*
X36374211Y-7089829D01*
X36764079Y-7090169D01*
X37124400Y-6941288D01*
X37400319Y-6665850D01*
X37549829Y-6305789D01*
X37549830Y-6304079D01*
X37629831Y-6304079D01*
X37778712Y-6664400D01*
X38054150Y-6940319D01*
X38414211Y-7089829D01*
X38804079Y-7090169D01*
X39164400Y-6941288D01*
X39440319Y-6665850D01*
X39589829Y-6305789D01*
X39589830Y-6304079D01*
X39669831Y-6304079D01*
X39818712Y-6664400D01*
X40094150Y-6940319D01*
X40454211Y-7089829D01*
X40844079Y-7090169D01*
X41204400Y-6941288D01*
X41480319Y-6665850D01*
X41629829Y-6305789D01*
X41629830Y-6304079D01*
X60989831Y-6304079D01*
X61138712Y-6664400D01*
X61414150Y-6940319D01*
X61774211Y-7089829D01*
X62164079Y-7090169D01*
X62524400Y-6941288D01*
X62800319Y-6665850D01*
X62949829Y-6305789D01*
X62949830Y-6304079D01*
X63029831Y-6304079D01*
X63178712Y-6664400D01*
X63454150Y-6940319D01*
X63814211Y-7089829D01*
X64204079Y-7090169D01*
X64564400Y-6941288D01*
X64840319Y-6665850D01*
X64989829Y-6305789D01*
X64989830Y-6304079D01*
X65069831Y-6304079D01*
X65218712Y-6664400D01*
X65494150Y-6940319D01*
X65854211Y-7089829D01*
X66244079Y-7090169D01*
X66604400Y-6941288D01*
X66880319Y-6665850D01*
X67029829Y-6305789D01*
X67030169Y-5915921D01*
X66881288Y-5555600D01*
X66605850Y-5279681D01*
X66245789Y-5130171D01*
X65855921Y-5129831D01*
X65495600Y-5278712D01*
X65219681Y-5554150D01*
X65070171Y-5914211D01*
X65069831Y-6304079D01*
X64989830Y-6304079D01*
X64990169Y-5915921D01*
X64841288Y-5555600D01*
X64565850Y-5279681D01*
X64205789Y-5130171D01*
X63815921Y-5129831D01*
X63455600Y-5278712D01*
X63179681Y-5554150D01*
X63030171Y-5914211D01*
X63029831Y-6304079D01*
X62949830Y-6304079D01*
X62950169Y-5915921D01*
X62801288Y-5555600D01*
X62525850Y-5279681D01*
X62165789Y-5130171D01*
X61775921Y-5129831D01*
X61415600Y-5278712D01*
X61139681Y-5554150D01*
X60990171Y-5914211D01*
X60989831Y-6304079D01*
X41629830Y-6304079D01*
X41630169Y-5915921D01*
X41481288Y-5555600D01*
X41205850Y-5279681D01*
X40845789Y-5130171D01*
X40455921Y-5129831D01*
X40095600Y-5278712D01*
X39819681Y-5554150D01*
X39670171Y-5914211D01*
X39669831Y-6304079D01*
X39589830Y-6304079D01*
X39590169Y-5915921D01*
X39441288Y-5555600D01*
X39165850Y-5279681D01*
X38805789Y-5130171D01*
X38415921Y-5129831D01*
X38055600Y-5278712D01*
X37779681Y-5554150D01*
X37630171Y-5914211D01*
X37629831Y-6304079D01*
X37549830Y-6304079D01*
X37550169Y-5915921D01*
X37401288Y-5555600D01*
X37125850Y-5279681D01*
X36765789Y-5130171D01*
X36375921Y-5129831D01*
X36015600Y-5278712D01*
X35739681Y-5554150D01*
X35590171Y-5914211D01*
X35589831Y-6304079D01*
X16229830Y-6304079D01*
X16230169Y-5915921D01*
X16081288Y-5555600D01*
X15805850Y-5279681D01*
X15445789Y-5130171D01*
X15055921Y-5129831D01*
X14695600Y-5278712D01*
X14419681Y-5554150D01*
X14270171Y-5914211D01*
X14269831Y-6304079D01*
X14189830Y-6304079D01*
X14190169Y-5915921D01*
X14041288Y-5555600D01*
X13765850Y-5279681D01*
X13405789Y-5130171D01*
X13015921Y-5129831D01*
X12655600Y-5278712D01*
X12379681Y-5554150D01*
X12230171Y-5914211D01*
X12229831Y-6304079D01*
X12149830Y-6304079D01*
X12150169Y-5915921D01*
X12001288Y-5555600D01*
X11725850Y-5279681D01*
X11365789Y-5130171D01*
X10975921Y-5129831D01*
X10615600Y-5278712D01*
X10339681Y-5554150D01*
X10190171Y-5914211D01*
X10189831Y-6304079D01*
X1350000Y-6304079D01*
X1350000Y-5056008D01*
X1984598Y-5319516D01*
X3090550Y-5320481D01*
X4112686Y-4898143D01*
X4895395Y-4116799D01*
X4901083Y-4103099D01*
X5219744Y-4103099D01*
X5444585Y-4647257D01*
X5860553Y-5063951D01*
X6404318Y-5289743D01*
X6993099Y-5290256D01*
X7537257Y-5065415D01*
X7953951Y-4649447D01*
X8179743Y-4105682D01*
X8179745Y-4103099D01*
X17219744Y-4103099D01*
X17444585Y-4647257D01*
X17860553Y-5063951D01*
X18404318Y-5289743D01*
X18993099Y-5290256D01*
X19537257Y-5065415D01*
X19953951Y-4649447D01*
X20179743Y-4105682D01*
X20180256Y-3516901D01*
X19955415Y-2972743D01*
X19539447Y-2556049D01*
X18995682Y-2330257D01*
X18406901Y-2329744D01*
X17862743Y-2554585D01*
X17446049Y-2970553D01*
X17220257Y-3514318D01*
X17219744Y-4103099D01*
X8179745Y-4103099D01*
X8180256Y-3516901D01*
X7955415Y-2972743D01*
X7539447Y-2556049D01*
X6995682Y-2330257D01*
X6406901Y-2329744D01*
X5862743Y-2554585D01*
X5446049Y-2970553D01*
X5220257Y-3514318D01*
X5219744Y-4103099D01*
X4901083Y-4103099D01*
X5319516Y-3095402D01*
X5320481Y-1989450D01*
X5056266Y-1350000D01*
X20343992Y-1350000D01*
X20080484Y-1984598D01*
G36*
X11669821Y-20523981D02*
X11826299Y-20902686D01*
X12115790Y-21192682D01*
X12494221Y-21349821D01*
X12903981Y-21350179D01*
X13282686Y-21193701D01*
X13572682Y-20904210D01*
X13729821Y-20525779D01*
X13729931Y-20400000D01*
X14209929Y-20400000D01*
X14209821Y-20523981D01*
X14366299Y-20902686D01*
X14655790Y-21192682D01*
X15034221Y-21349821D01*
X15443981Y-21350179D01*
X15822686Y-21193701D01*
X16112682Y-20904210D01*
X16269821Y-20525779D01*
X16269931Y-20400000D01*
X37069929Y-20400000D01*
X37069821Y-20523981D01*
X37226299Y-20902686D01*
X37515790Y-21192682D01*
X37894221Y-21349821D01*
X38303981Y-21350179D01*
X38682686Y-21193701D01*
X38972682Y-20904210D01*
X39129821Y-20525779D01*
X39129931Y-20400000D01*
X39609929Y-20400000D01*
X39609821Y-20523981D01*
X39766299Y-20902686D01*
X40055790Y-21192682D01*
X40434221Y-21349821D01*
X40843981Y-21350179D01*
X41222686Y-21193701D01*
X41512682Y-20904210D01*
X41669821Y-20525779D01*
X41669931Y-20400000D01*
X60252930Y-20400000D01*
X60252899Y-20434863D01*
X60341013Y-20648114D01*
X60504027Y-20811413D01*
X60717125Y-20899899D01*
X60947863Y-20900101D01*
X61161114Y-20811987D01*
X61293332Y-20680000D01*
X62534287Y-20680000D01*
X62626299Y-20902686D01*
X62915790Y-21192682D01*
X63294221Y-21349821D01*
X63703981Y-21350179D01*
X64082686Y-21193701D01*
X64372682Y-20904210D01*
X64529821Y-20525779D01*
X64529931Y-20400000D01*
X65009929Y-20400000D01*
X65009821Y-20523981D01*
X65166299Y-20902686D01*
X65455790Y-21192682D01*
X65834221Y-21349821D01*
X66243981Y-21350179D01*
X66622686Y-21193701D01*
X66912682Y-20904210D01*
X67069821Y-20525779D01*
X67069931Y-20400000D01*
X67865000Y-20400000D01*
X67865000Y-30400000D01*
X64530071Y-30400000D01*
X64530179Y-30276019D01*
X64373701Y-29897314D01*
X64084210Y-29607318D01*
X63705779Y-29450179D01*
X63296019Y-29449821D01*
X62917314Y-29606299D01*
X62627318Y-29895790D01*
X62470179Y-30274221D01*
X62470069Y-30400000D01*
X61990071Y-30400000D01*
X61990179Y-30276019D01*
X61833701Y-29897314D01*
X61544210Y-29607318D01*
X61165779Y-29450179D01*
X60756019Y-29449821D01*
X60377314Y-29606299D01*
X60087318Y-29895790D01*
X59930179Y-30274221D01*
X59930069Y-30400000D01*
X49290071Y-30400000D01*
X49290179Y-30276019D01*
X49133701Y-29897314D01*
X48844210Y-29607318D01*
X48465779Y-29450179D01*
X48056019Y-29449821D01*
X47677314Y-29606299D01*
X47387318Y-29895790D01*
X47230179Y-30274221D01*
X47230069Y-30400000D01*
X46750071Y-30400000D01*
X46750179Y-30276019D01*
X46593701Y-29897314D01*
X46304210Y-29607318D01*
X45925779Y-29450179D01*
X45516019Y-29449821D01*
X45137314Y-29606299D01*
X44847318Y-29895790D01*
X44754217Y-30120000D01*
X42497157Y-30120000D01*
X42365973Y-29988587D01*
X42152875Y-29900101D01*
X41922137Y-29899899D01*
X41708886Y-29988013D01*
X41545587Y-30151027D01*
X41457101Y-30364125D01*
X41456899Y-30594863D01*
X41545013Y-30808114D01*
X41708027Y-30971413D01*
X41921125Y-31059899D01*
X42151863Y-31060101D01*
X42365114Y-30971987D01*
X42497332Y-30840000D01*
X43100000Y-30840000D01*
X43100000Y-34845000D01*
X39291612Y-34845000D01*
X39444114Y-34781987D01*
X39607413Y-34618973D01*
X39695899Y-34405875D01*
X39696101Y-34175137D01*
X39607987Y-33961886D01*
X39444973Y-33798587D01*
X39231875Y-33710101D01*
X39001137Y-33709899D01*
X38787886Y-33798013D01*
X38655668Y-33930000D01*
X28400157Y-33930000D01*
X28268973Y-33798587D01*
X28055875Y-33710101D01*
X27825137Y-33709899D01*
X27611886Y-33798013D01*
X27448587Y-33961027D01*
X27360101Y-34174125D01*
X27359899Y-34404863D01*
X27448013Y-34618114D01*
X27611027Y-34781413D01*
X27824125Y-34869899D01*
X28054863Y-34870101D01*
X28268114Y-34781987D01*
X28400332Y-34650000D01*
X38655843Y-34650000D01*
X38787027Y-34781413D01*
X38940162Y-34845000D01*
X29845000Y-34845000D01*
X29813876Y-34851303D01*
X29787655Y-34869218D01*
X29770471Y-34895923D01*
X29765000Y-34925000D01*
X29765000Y-35835000D01*
X24590157Y-35835000D01*
X24458973Y-35703587D01*
X24245875Y-35615101D01*
X24015137Y-35614899D01*
X23801886Y-35703013D01*
X23638587Y-35866027D01*
X23550101Y-36079125D01*
X23549899Y-36309863D01*
X23638013Y-36523114D01*
X23801027Y-36686413D01*
X24014125Y-36774899D01*
X24244863Y-36775101D01*
X24458114Y-36686987D01*
X24590332Y-36555000D01*
X24886175Y-36555000D01*
X24820101Y-36714125D01*
X24819899Y-36944863D01*
X24908013Y-37158114D01*
X25071027Y-37321413D01*
X25284125Y-37409899D01*
X25514863Y-37410101D01*
X25728114Y-37321987D01*
X25860332Y-37190000D01*
X29765000Y-37190000D01*
X29765000Y-39250000D01*
X27116181Y-39250000D01*
X26998973Y-39132587D01*
X26785875Y-39044101D01*
X26555137Y-39043899D01*
X26341886Y-39132013D01*
X26178587Y-39295027D01*
X26090101Y-39508125D01*
X26089899Y-39738863D01*
X26178013Y-39952114D01*
X26341027Y-40115413D01*
X26554125Y-40203899D01*
X26784863Y-40204101D01*
X26998114Y-40115987D01*
X27144356Y-39970000D01*
X29765000Y-39970000D01*
X29765000Y-43613240D01*
X29516799Y-43364605D01*
X28495402Y-42940484D01*
X27389450Y-42939519D01*
X26367314Y-43361857D01*
X25584605Y-44143201D01*
X25400070Y-44587611D01*
X25218143Y-44147314D01*
X24436799Y-43364605D01*
X23415402Y-42940484D01*
X22309450Y-42939519D01*
X21287314Y-43361857D01*
X20504605Y-44143201D01*
X20400000Y-44395118D01*
X20400000Y-39130071D01*
X20523981Y-39130179D01*
X20902686Y-38973701D01*
X20973715Y-38902795D01*
X22297621Y-38902795D01*
X22388394Y-39038330D01*
X22783376Y-39147379D01*
X23190024Y-39096975D01*
X23331606Y-39038330D01*
X23422379Y-38902795D01*
X22860000Y-38340416D01*
X22297621Y-38902795D01*
X20973715Y-38902795D01*
X21192682Y-38684210D01*
X21349821Y-38305779D01*
X21350067Y-38023376D01*
X21812621Y-38023376D01*
X21863025Y-38430024D01*
X21921670Y-38571606D01*
X22057205Y-38662379D01*
X22619584Y-38100000D01*
X23100416Y-38100000D01*
X23662795Y-38662379D01*
X23798330Y-38571606D01*
X23907379Y-38176624D01*
X23856975Y-37769976D01*
X23798330Y-37628394D01*
X23662795Y-37537621D01*
X23100416Y-38100000D01*
X22619584Y-38100000D01*
X22057205Y-37537621D01*
X21921670Y-37628394D01*
X21812621Y-38023376D01*
X21350067Y-38023376D01*
X21350179Y-37896019D01*
X21193701Y-37517314D01*
X20973976Y-37297205D01*
X22297621Y-37297205D01*
X22860000Y-37859584D01*
X23422379Y-37297205D01*
X23331606Y-37161670D01*
X22936624Y-37052621D01*
X22529976Y-37103025D01*
X22388394Y-37161670D01*
X22297621Y-37297205D01*
X20973976Y-37297205D01*
X20904210Y-37227318D01*
X20525779Y-37070179D01*
X20400000Y-37070069D01*
X20400000Y-29570000D01*
X30019843Y-29570000D01*
X30151027Y-29701413D01*
X30364125Y-29789899D01*
X30594863Y-29790101D01*
X30808114Y-29701987D01*
X30971413Y-29538973D01*
X31059899Y-29325875D01*
X31060101Y-29095137D01*
X30993933Y-28935000D01*
X31289843Y-28935000D01*
X31421027Y-29066413D01*
X31634125Y-29154899D01*
X31864863Y-29155101D01*
X32078114Y-29066987D01*
X32241413Y-28903973D01*
X32308339Y-28742795D01*
X45157621Y-28742795D01*
X45248394Y-28878330D01*
X45643376Y-28987379D01*
X46050024Y-28936975D01*
X46191606Y-28878330D01*
X46282379Y-28742795D01*
X45720000Y-28180416D01*
X45157621Y-28742795D01*
X32308339Y-28742795D01*
X32329899Y-28690875D01*
X32330101Y-28460137D01*
X32241987Y-28246886D01*
X32078973Y-28083587D01*
X31865875Y-27995101D01*
X31635137Y-27994899D01*
X31421886Y-28083013D01*
X31289668Y-28215000D01*
X20018157Y-28215000D01*
X19886973Y-28083587D01*
X19673875Y-27995101D01*
X19443137Y-27994899D01*
X19229886Y-28083013D01*
X19066587Y-28246027D01*
X18978101Y-28459125D01*
X18977899Y-28689863D01*
X19044067Y-28850000D01*
X9477157Y-28850000D01*
X9345973Y-28718587D01*
X9132875Y-28630101D01*
X8902137Y-28629899D01*
X8688886Y-28718013D01*
X8525587Y-28881027D01*
X8437101Y-29094125D01*
X8437070Y-29130000D01*
X8335000Y-29130000D01*
X8335000Y-27419863D01*
X24819899Y-27419863D01*
X24908013Y-27633114D01*
X25071027Y-27796413D01*
X25284125Y-27884899D01*
X25514863Y-27885101D01*
X25567441Y-27863376D01*
X44672621Y-27863376D01*
X44723025Y-28270024D01*
X44781670Y-28411606D01*
X44917205Y-28502379D01*
X45479584Y-27940000D01*
X45960416Y-27940000D01*
X46522795Y-28502379D01*
X46658330Y-28411606D01*
X46722273Y-28180000D01*
X47230000Y-28180000D01*
X47230000Y-28745696D01*
X47272628Y-28848608D01*
X47351393Y-28927373D01*
X47454305Y-28970000D01*
X48020000Y-28970000D01*
X48090000Y-28900000D01*
X48090000Y-28110000D01*
X48430000Y-28110000D01*
X48430000Y-28900000D01*
X48500000Y-28970000D01*
X49065695Y-28970000D01*
X49168607Y-28927373D01*
X49247372Y-28848608D01*
X49290000Y-28745696D01*
X49290000Y-28742795D01*
X60397621Y-28742795D01*
X60488394Y-28878330D01*
X60883376Y-28987379D01*
X61290024Y-28936975D01*
X61431606Y-28878330D01*
X61522379Y-28742795D01*
X60960000Y-28180416D01*
X60397621Y-28742795D01*
X49290000Y-28742795D01*
X49290000Y-28180000D01*
X49220000Y-28110000D01*
X48430000Y-28110000D01*
X48090000Y-28110000D01*
X47300000Y-28110000D01*
X47230000Y-28180000D01*
X46722273Y-28180000D01*
X46767379Y-28016624D01*
X46748384Y-27863376D01*
X59912621Y-27863376D01*
X59963025Y-28270024D01*
X60021670Y-28411606D01*
X60157205Y-28502379D01*
X60719584Y-27940000D01*
X61200416Y-27940000D01*
X61762795Y-28502379D01*
X61898330Y-28411606D01*
X61962273Y-28180000D01*
X62470000Y-28180000D01*
X62470000Y-28745696D01*
X62512628Y-28848608D01*
X62591393Y-28927373D01*
X62694305Y-28970000D01*
X63260000Y-28970000D01*
X63330000Y-28900000D01*
X63330000Y-28110000D01*
X63670000Y-28110000D01*
X63670000Y-28900000D01*
X63740000Y-28970000D01*
X64305695Y-28970000D01*
X64408607Y-28927373D01*
X64487372Y-28848608D01*
X64530000Y-28745696D01*
X64530000Y-28180000D01*
X64460000Y-28110000D01*
X63670000Y-28110000D01*
X63330000Y-28110000D01*
X62540000Y-28110000D01*
X62470000Y-28180000D01*
X61962273Y-28180000D01*
X62007379Y-28016624D01*
X61956975Y-27609976D01*
X61898330Y-27468394D01*
X61762795Y-27377621D01*
X61200416Y-27940000D01*
X60719584Y-27940000D01*
X60157205Y-27377621D01*
X60021670Y-27468394D01*
X59912621Y-27863376D01*
X46748384Y-27863376D01*
X46716975Y-27609976D01*
X46658330Y-27468394D01*
X46522795Y-27377621D01*
X45960416Y-27940000D01*
X45479584Y-27940000D01*
X44917205Y-27377621D01*
X44781670Y-27468394D01*
X44672621Y-27863376D01*
X25567441Y-27863376D01*
X25728114Y-27796987D01*
X25860332Y-27665000D01*
X42799000Y-27665000D01*
X42936766Y-27637597D01*
X43053558Y-27559558D01*
X43475911Y-27137205D01*
X45157621Y-27137205D01*
X45720000Y-27699584D01*
X46282379Y-27137205D01*
X46280437Y-27134304D01*
X47230000Y-27134304D01*
X47230000Y-27700000D01*
X47300000Y-27770000D01*
X48090000Y-27770000D01*
X48090000Y-26980000D01*
X48430000Y-26980000D01*
X48430000Y-27770000D01*
X49220000Y-27770000D01*
X49290000Y-27700000D01*
X49290000Y-27137205D01*
X60397621Y-27137205D01*
X60960000Y-27699584D01*
X61522379Y-27137205D01*
X61520437Y-27134304D01*
X62470000Y-27134304D01*
X62470000Y-27700000D01*
X62540000Y-27770000D01*
X63330000Y-27770000D01*
X63330000Y-26980000D01*
X63670000Y-26980000D01*
X63670000Y-27770000D01*
X64460000Y-27770000D01*
X64530000Y-27700000D01*
X64530000Y-27134304D01*
X64487372Y-27031392D01*
X64408607Y-26952627D01*
X64305695Y-26910000D01*
X63740000Y-26910000D01*
X63670000Y-26980000D01*
X63330000Y-26980000D01*
X63260000Y-26910000D01*
X62694305Y-26910000D01*
X62591393Y-26952627D01*
X62512628Y-27031392D01*
X62470000Y-27134304D01*
X61520437Y-27134304D01*
X61431606Y-27001670D01*
X61036624Y-26892621D01*
X60629976Y-26943025D01*
X60488394Y-27001670D01*
X60397621Y-27137205D01*
X49290000Y-27137205D01*
X49290000Y-27134304D01*
X49247372Y-27031392D01*
X49168607Y-26952627D01*
X49065695Y-26910000D01*
X48500000Y-26910000D01*
X48430000Y-26980000D01*
X48090000Y-26980000D01*
X48020000Y-26910000D01*
X47454305Y-26910000D01*
X47351393Y-26952627D01*
X47272628Y-27031392D01*
X47230000Y-27134304D01*
X46280437Y-27134304D01*
X46191606Y-27001670D01*
X45796624Y-26892621D01*
X45389976Y-26943025D01*
X45248394Y-27001670D01*
X45157621Y-27137205D01*
X43475911Y-27137205D01*
X44472117Y-26141000D01*
X56689843Y-26141000D01*
X56821027Y-26272413D01*
X57034125Y-26360899D01*
X57264863Y-26361101D01*
X57478114Y-26272987D01*
X57641413Y-26109973D01*
X57729899Y-25896875D01*
X57730101Y-25666137D01*
X57663933Y-25506000D01*
X57959843Y-25506000D01*
X58091027Y-25637413D01*
X58304125Y-25725899D01*
X58534863Y-25726101D01*
X58748114Y-25637987D01*
X58911413Y-25474973D01*
X58999899Y-25261875D01*
X59000101Y-25031137D01*
X58911987Y-24817886D01*
X58748973Y-24654587D01*
X58535875Y-24566101D01*
X58305137Y-24565899D01*
X58091886Y-24654013D01*
X57959668Y-24786000D01*
X43942000Y-24786000D01*
X43827090Y-24808857D01*
X43804233Y-24813403D01*
X43687441Y-24891442D01*
X42268884Y-26310000D01*
X27130157Y-26310000D01*
X26998973Y-26178587D01*
X26785875Y-26090101D01*
X26555137Y-26089899D01*
X26341886Y-26178013D01*
X26178587Y-26341027D01*
X26090101Y-26554125D01*
X26089899Y-26784863D01*
X26156067Y-26945000D01*
X25860157Y-26945000D01*
X25728973Y-26813587D01*
X25515875Y-26725101D01*
X25285137Y-26724899D01*
X25071886Y-26813013D01*
X24908587Y-26976027D01*
X24820101Y-27189125D01*
X24819899Y-27419863D01*
X8335000Y-27419863D01*
X8335000Y-23100000D01*
X11670000Y-23100000D01*
X11670000Y-23665696D01*
X11712628Y-23768608D01*
X11791393Y-23847373D01*
X11894305Y-23890000D01*
X12460000Y-23890000D01*
X12530000Y-23820000D01*
X12530000Y-23030000D01*
X12870000Y-23030000D01*
X12870000Y-23820000D01*
X12940000Y-23890000D01*
X13505695Y-23890000D01*
X13608607Y-23847373D01*
X13687372Y-23768608D01*
X13730000Y-23665696D01*
X13730000Y-23662795D01*
X14677621Y-23662795D01*
X14768394Y-23798330D01*
X15163376Y-23907379D01*
X15570024Y-23856975D01*
X15711606Y-23798330D01*
X15802379Y-23662795D01*
X15240000Y-23100416D01*
X14677621Y-23662795D01*
X13730000Y-23662795D01*
X13730000Y-23100000D01*
X13660000Y-23030000D01*
X12870000Y-23030000D01*
X12530000Y-23030000D01*
X11740000Y-23030000D01*
X11670000Y-23100000D01*
X8335000Y-23100000D01*
X8335000Y-22783376D01*
X14192621Y-22783376D01*
X14243025Y-23190024D01*
X14301670Y-23331606D01*
X14437205Y-23422379D01*
X14999584Y-22860000D01*
X15480416Y-22860000D01*
X16042795Y-23422379D01*
X16178330Y-23331606D01*
X16242273Y-23100000D01*
X37070000Y-23100000D01*
X37070000Y-23665696D01*
X37112628Y-23768608D01*
X37191393Y-23847373D01*
X37294305Y-23890000D01*
X37860000Y-23890000D01*
X37930000Y-23820000D01*
X37930000Y-23030000D01*
X38270000Y-23030000D01*
X38270000Y-23820000D01*
X38340000Y-23890000D01*
X38905695Y-23890000D01*
X39008607Y-23847373D01*
X39087372Y-23768608D01*
X39130000Y-23665696D01*
X39130000Y-23662795D01*
X40077621Y-23662795D01*
X40168394Y-23798330D01*
X40563376Y-23907379D01*
X40970024Y-23856975D01*
X41111606Y-23798330D01*
X41202379Y-23662795D01*
X40640000Y-23100416D01*
X40077621Y-23662795D01*
X39130000Y-23662795D01*
X39130000Y-23100000D01*
X39060000Y-23030000D01*
X38270000Y-23030000D01*
X37930000Y-23030000D01*
X37140000Y-23030000D01*
X37070000Y-23100000D01*
X16242273Y-23100000D01*
X16287379Y-22936624D01*
X16268384Y-22783376D01*
X39592621Y-22783376D01*
X39643025Y-23190024D01*
X39701670Y-23331606D01*
X39837205Y-23422379D01*
X40399584Y-22860000D01*
X40880416Y-22860000D01*
X41442795Y-23422379D01*
X41578330Y-23331606D01*
X41642273Y-23100000D01*
X62470000Y-23100000D01*
X62470000Y-23665696D01*
X62512628Y-23768608D01*
X62591393Y-23847373D01*
X62694305Y-23890000D01*
X63260000Y-23890000D01*
X63330000Y-23820000D01*
X63330000Y-23030000D01*
X63670000Y-23030000D01*
X63670000Y-23820000D01*
X63740000Y-23890000D01*
X64305695Y-23890000D01*
X64408607Y-23847373D01*
X64487372Y-23768608D01*
X64530000Y-23665696D01*
X64530000Y-23662795D01*
X65477621Y-23662795D01*
X65568394Y-23798330D01*
X65963376Y-23907379D01*
X66370024Y-23856975D01*
X66511606Y-23798330D01*
X66602379Y-23662795D01*
X66040000Y-23100416D01*
X65477621Y-23662795D01*
X64530000Y-23662795D01*
X64530000Y-23100000D01*
X64460000Y-23030000D01*
X63670000Y-23030000D01*
X63330000Y-23030000D01*
X62540000Y-23030000D01*
X62470000Y-23100000D01*
X41642273Y-23100000D01*
X41687379Y-22936624D01*
X41668384Y-22783376D01*
X64992621Y-22783376D01*
X65043025Y-23190024D01*
X65101670Y-23331606D01*
X65237205Y-23422379D01*
X65799584Y-22860000D01*
X66280416Y-22860000D01*
X66842795Y-23422379D01*
X66978330Y-23331606D01*
X67087379Y-22936624D01*
X67036975Y-22529976D01*
X66978330Y-22388394D01*
X66842795Y-22297621D01*
X66280416Y-22860000D01*
X65799584Y-22860000D01*
X65237205Y-22297621D01*
X65101670Y-22388394D01*
X64992621Y-22783376D01*
X41668384Y-22783376D01*
X41636975Y-22529976D01*
X41578330Y-22388394D01*
X41442795Y-22297621D01*
X40880416Y-22860000D01*
X40399584Y-22860000D01*
X39837205Y-22297621D01*
X39701670Y-22388394D01*
X39592621Y-22783376D01*
X16268384Y-22783376D01*
X16236975Y-22529976D01*
X16178330Y-22388394D01*
X16042795Y-22297621D01*
X15480416Y-22860000D01*
X14999584Y-22860000D01*
X14437205Y-22297621D01*
X14301670Y-22388394D01*
X14192621Y-22783376D01*
X8335000Y-22783376D01*
X8335000Y-22054304D01*
X11670000Y-22054304D01*
X11670000Y-22620000D01*
X11740000Y-22690000D01*
X12530000Y-22690000D01*
X12530000Y-21900000D01*
X12870000Y-21900000D01*
X12870000Y-22690000D01*
X13660000Y-22690000D01*
X13730000Y-22620000D01*
X13730000Y-22057205D01*
X14677621Y-22057205D01*
X15240000Y-22619584D01*
X15802379Y-22057205D01*
X15800437Y-22054304D01*
X37070000Y-22054304D01*
X37070000Y-22620000D01*
X37140000Y-22690000D01*
X37930000Y-22690000D01*
X37930000Y-21900000D01*
X38270000Y-21900000D01*
X38270000Y-22690000D01*
X39060000Y-22690000D01*
X39130000Y-22620000D01*
X39130000Y-22057205D01*
X40077621Y-22057205D01*
X40640000Y-22619584D01*
X41202379Y-22057205D01*
X41200437Y-22054304D01*
X62470000Y-22054304D01*
X62470000Y-22620000D01*
X62540000Y-22690000D01*
X63330000Y-22690000D01*
X63330000Y-21900000D01*
X63670000Y-21900000D01*
X63670000Y-22690000D01*
X64460000Y-22690000D01*
X64530000Y-22620000D01*
X64530000Y-22057205D01*
X65477621Y-22057205D01*
X66040000Y-22619584D01*
X66602379Y-22057205D01*
X66511606Y-21921670D01*
X66116624Y-21812621D01*
X65709976Y-21863025D01*
X65568394Y-21921670D01*
X65477621Y-22057205D01*
X64530000Y-22057205D01*
X64530000Y-22054304D01*
X64487372Y-21951392D01*
X64408607Y-21872627D01*
X64305695Y-21830000D01*
X63740000Y-21830000D01*
X63670000Y-21900000D01*
X63330000Y-21900000D01*
X63260000Y-21830000D01*
X62694305Y-21830000D01*
X62591393Y-21872627D01*
X62512628Y-21951392D01*
X62470000Y-22054304D01*
X41200437Y-22054304D01*
X41111606Y-21921670D01*
X40716624Y-21812621D01*
X40309976Y-21863025D01*
X40168394Y-21921670D01*
X40077621Y-22057205D01*
X39130000Y-22057205D01*
X39130000Y-22054304D01*
X39087372Y-21951392D01*
X39008607Y-21872627D01*
X38905695Y-21830000D01*
X38340000Y-21830000D01*
X38270000Y-21900000D01*
X37930000Y-21900000D01*
X37860000Y-21830000D01*
X37294305Y-21830000D01*
X37191393Y-21872627D01*
X37112628Y-21951392D01*
X37070000Y-22054304D01*
X15800437Y-22054304D01*
X15711606Y-21921670D01*
X15316624Y-21812621D01*
X14909976Y-21863025D01*
X14768394Y-21921670D01*
X14677621Y-22057205D01*
X13730000Y-22057205D01*
X13730000Y-22054304D01*
X13687372Y-21951392D01*
X13608607Y-21872627D01*
X13505695Y-21830000D01*
X12940000Y-21830000D01*
X12870000Y-21900000D01*
X12530000Y-21900000D01*
X12460000Y-21830000D01*
X11894305Y-21830000D01*
X11791393Y-21872627D01*
X11712628Y-21951392D01*
X11670000Y-22054304D01*
X8335000Y-22054304D01*
X8335000Y-20400000D01*
X11669929Y-20400000D01*
X11669821Y-20523981D01*
X11669821Y-20523981D01*
G37*
X11669821Y-20523981D02*
X11826299Y-20902686D01*
X12115790Y-21192682D01*
X12494221Y-21349821D01*
X12903981Y-21350179D01*
X13282686Y-21193701D01*
X13572682Y-20904210D01*
X13729821Y-20525779D01*
X13729931Y-20400000D01*
X14209929Y-20400000D01*
X14209821Y-20523981D01*
X14366299Y-20902686D01*
X14655790Y-21192682D01*
X15034221Y-21349821D01*
X15443981Y-21350179D01*
X15822686Y-21193701D01*
X16112682Y-20904210D01*
X16269821Y-20525779D01*
X16269931Y-20400000D01*
X37069929Y-20400000D01*
X37069821Y-20523981D01*
X37226299Y-20902686D01*
X37515790Y-21192682D01*
X37894221Y-21349821D01*
X38303981Y-21350179D01*
X38682686Y-21193701D01*
X38972682Y-20904210D01*
X39129821Y-20525779D01*
X39129931Y-20400000D01*
X39609929Y-20400000D01*
X39609821Y-20523981D01*
X39766299Y-20902686D01*
X40055790Y-21192682D01*
X40434221Y-21349821D01*
X40843981Y-21350179D01*
X41222686Y-21193701D01*
X41512682Y-20904210D01*
X41669821Y-20525779D01*
X41669931Y-20400000D01*
X60252930Y-20400000D01*
X60252899Y-20434863D01*
X60341013Y-20648114D01*
X60504027Y-20811413D01*
X60717125Y-20899899D01*
X60947863Y-20900101D01*
X61161114Y-20811987D01*
X61293332Y-20680000D01*
X62534287Y-20680000D01*
X62626299Y-20902686D01*
X62915790Y-21192682D01*
X63294221Y-21349821D01*
X63703981Y-21350179D01*
X64082686Y-21193701D01*
X64372682Y-20904210D01*
X64529821Y-20525779D01*
X64529931Y-20400000D01*
X65009929Y-20400000D01*
X65009821Y-20523981D01*
X65166299Y-20902686D01*
X65455790Y-21192682D01*
X65834221Y-21349821D01*
X66243981Y-21350179D01*
X66622686Y-21193701D01*
X66912682Y-20904210D01*
X67069821Y-20525779D01*
X67069931Y-20400000D01*
X67865000Y-20400000D01*
X67865000Y-30400000D01*
X64530071Y-30400000D01*
X64530179Y-30276019D01*
X64373701Y-29897314D01*
X64084210Y-29607318D01*
X63705779Y-29450179D01*
X63296019Y-29449821D01*
X62917314Y-29606299D01*
X62627318Y-29895790D01*
X62470179Y-30274221D01*
X62470069Y-30400000D01*
X61990071Y-30400000D01*
X61990179Y-30276019D01*
X61833701Y-29897314D01*
X61544210Y-29607318D01*
X61165779Y-29450179D01*
X60756019Y-29449821D01*
X60377314Y-29606299D01*
X60087318Y-29895790D01*
X59930179Y-30274221D01*
X59930069Y-30400000D01*
X49290071Y-30400000D01*
X49290179Y-30276019D01*
X49133701Y-29897314D01*
X48844210Y-29607318D01*
X48465779Y-29450179D01*
X48056019Y-29449821D01*
X47677314Y-29606299D01*
X47387318Y-29895790D01*
X47230179Y-30274221D01*
X47230069Y-30400000D01*
X46750071Y-30400000D01*
X46750179Y-30276019D01*
X46593701Y-29897314D01*
X46304210Y-29607318D01*
X45925779Y-29450179D01*
X45516019Y-29449821D01*
X45137314Y-29606299D01*
X44847318Y-29895790D01*
X44754217Y-30120000D01*
X42497157Y-30120000D01*
X42365973Y-29988587D01*
X42152875Y-29900101D01*
X41922137Y-29899899D01*
X41708886Y-29988013D01*
X41545587Y-30151027D01*
X41457101Y-30364125D01*
X41456899Y-30594863D01*
X41545013Y-30808114D01*
X41708027Y-30971413D01*
X41921125Y-31059899D01*
X42151863Y-31060101D01*
X42365114Y-30971987D01*
X42497332Y-30840000D01*
X43100000Y-30840000D01*
X43100000Y-34845000D01*
X39291612Y-34845000D01*
X39444114Y-34781987D01*
X39607413Y-34618973D01*
X39695899Y-34405875D01*
X39696101Y-34175137D01*
X39607987Y-33961886D01*
X39444973Y-33798587D01*
X39231875Y-33710101D01*
X39001137Y-33709899D01*
X38787886Y-33798013D01*
X38655668Y-33930000D01*
X28400157Y-33930000D01*
X28268973Y-33798587D01*
X28055875Y-33710101D01*
X27825137Y-33709899D01*
X27611886Y-33798013D01*
X27448587Y-33961027D01*
X27360101Y-34174125D01*
X27359899Y-34404863D01*
X27448013Y-34618114D01*
X27611027Y-34781413D01*
X27824125Y-34869899D01*
X28054863Y-34870101D01*
X28268114Y-34781987D01*
X28400332Y-34650000D01*
X38655843Y-34650000D01*
X38787027Y-34781413D01*
X38940162Y-34845000D01*
X29845000Y-34845000D01*
X29813876Y-34851303D01*
X29787655Y-34869218D01*
X29770471Y-34895923D01*
X29765000Y-34925000D01*
X29765000Y-35835000D01*
X24590157Y-35835000D01*
X24458973Y-35703587D01*
X24245875Y-35615101D01*
X24015137Y-35614899D01*
X23801886Y-35703013D01*
X23638587Y-35866027D01*
X23550101Y-36079125D01*
X23549899Y-36309863D01*
X23638013Y-36523114D01*
X23801027Y-36686413D01*
X24014125Y-36774899D01*
X24244863Y-36775101D01*
X24458114Y-36686987D01*
X24590332Y-36555000D01*
X24886175Y-36555000D01*
X24820101Y-36714125D01*
X24819899Y-36944863D01*
X24908013Y-37158114D01*
X25071027Y-37321413D01*
X25284125Y-37409899D01*
X25514863Y-37410101D01*
X25728114Y-37321987D01*
X25860332Y-37190000D01*
X29765000Y-37190000D01*
X29765000Y-39250000D01*
X27116181Y-39250000D01*
X26998973Y-39132587D01*
X26785875Y-39044101D01*
X26555137Y-39043899D01*
X26341886Y-39132013D01*
X26178587Y-39295027D01*
X26090101Y-39508125D01*
X26089899Y-39738863D01*
X26178013Y-39952114D01*
X26341027Y-40115413D01*
X26554125Y-40203899D01*
X26784863Y-40204101D01*
X26998114Y-40115987D01*
X27144356Y-39970000D01*
X29765000Y-39970000D01*
X29765000Y-43613240D01*
X29516799Y-43364605D01*
X28495402Y-42940484D01*
X27389450Y-42939519D01*
X26367314Y-43361857D01*
X25584605Y-44143201D01*
X25400070Y-44587611D01*
X25218143Y-44147314D01*
X24436799Y-43364605D01*
X23415402Y-42940484D01*
X22309450Y-42939519D01*
X21287314Y-43361857D01*
X20504605Y-44143201D01*
X20400000Y-44395118D01*
X20400000Y-39130071D01*
X20523981Y-39130179D01*
X20902686Y-38973701D01*
X20973715Y-38902795D01*
X22297621Y-38902795D01*
X22388394Y-39038330D01*
X22783376Y-39147379D01*
X23190024Y-39096975D01*
X23331606Y-39038330D01*
X23422379Y-38902795D01*
X22860000Y-38340416D01*
X22297621Y-38902795D01*
X20973715Y-38902795D01*
X21192682Y-38684210D01*
X21349821Y-38305779D01*
X21350067Y-38023376D01*
X21812621Y-38023376D01*
X21863025Y-38430024D01*
X21921670Y-38571606D01*
X22057205Y-38662379D01*
X22619584Y-38100000D01*
X23100416Y-38100000D01*
X23662795Y-38662379D01*
X23798330Y-38571606D01*
X23907379Y-38176624D01*
X23856975Y-37769976D01*
X23798330Y-37628394D01*
X23662795Y-37537621D01*
X23100416Y-38100000D01*
X22619584Y-38100000D01*
X22057205Y-37537621D01*
X21921670Y-37628394D01*
X21812621Y-38023376D01*
X21350067Y-38023376D01*
X21350179Y-37896019D01*
X21193701Y-37517314D01*
X20973976Y-37297205D01*
X22297621Y-37297205D01*
X22860000Y-37859584D01*
X23422379Y-37297205D01*
X23331606Y-37161670D01*
X22936624Y-37052621D01*
X22529976Y-37103025D01*
X22388394Y-37161670D01*
X22297621Y-37297205D01*
X20973976Y-37297205D01*
X20904210Y-37227318D01*
X20525779Y-37070179D01*
X20400000Y-37070069D01*
X20400000Y-29570000D01*
X30019843Y-29570000D01*
X30151027Y-29701413D01*
X30364125Y-29789899D01*
X30594863Y-29790101D01*
X30808114Y-29701987D01*
X30971413Y-29538973D01*
X31059899Y-29325875D01*
X31060101Y-29095137D01*
X30993933Y-28935000D01*
X31289843Y-28935000D01*
X31421027Y-29066413D01*
X31634125Y-29154899D01*
X31864863Y-29155101D01*
X32078114Y-29066987D01*
X32241413Y-28903973D01*
X32308339Y-28742795D01*
X45157621Y-28742795D01*
X45248394Y-28878330D01*
X45643376Y-28987379D01*
X46050024Y-28936975D01*
X46191606Y-28878330D01*
X46282379Y-28742795D01*
X45720000Y-28180416D01*
X45157621Y-28742795D01*
X32308339Y-28742795D01*
X32329899Y-28690875D01*
X32330101Y-28460137D01*
X32241987Y-28246886D01*
X32078973Y-28083587D01*
X31865875Y-27995101D01*
X31635137Y-27994899D01*
X31421886Y-28083013D01*
X31289668Y-28215000D01*
X20018157Y-28215000D01*
X19886973Y-28083587D01*
X19673875Y-27995101D01*
X19443137Y-27994899D01*
X19229886Y-28083013D01*
X19066587Y-28246027D01*
X18978101Y-28459125D01*
X18977899Y-28689863D01*
X19044067Y-28850000D01*
X9477157Y-28850000D01*
X9345973Y-28718587D01*
X9132875Y-28630101D01*
X8902137Y-28629899D01*
X8688886Y-28718013D01*
X8525587Y-28881027D01*
X8437101Y-29094125D01*
X8437070Y-29130000D01*
X8335000Y-29130000D01*
X8335000Y-27419863D01*
X24819899Y-27419863D01*
X24908013Y-27633114D01*
X25071027Y-27796413D01*
X25284125Y-27884899D01*
X25514863Y-27885101D01*
X25567441Y-27863376D01*
X44672621Y-27863376D01*
X44723025Y-28270024D01*
X44781670Y-28411606D01*
X44917205Y-28502379D01*
X45479584Y-27940000D01*
X45960416Y-27940000D01*
X46522795Y-28502379D01*
X46658330Y-28411606D01*
X46722273Y-28180000D01*
X47230000Y-28180000D01*
X47230000Y-28745696D01*
X47272628Y-28848608D01*
X47351393Y-28927373D01*
X47454305Y-28970000D01*
X48020000Y-28970000D01*
X48090000Y-28900000D01*
X48090000Y-28110000D01*
X48430000Y-28110000D01*
X48430000Y-28900000D01*
X48500000Y-28970000D01*
X49065695Y-28970000D01*
X49168607Y-28927373D01*
X49247372Y-28848608D01*
X49290000Y-28745696D01*
X49290000Y-28742795D01*
X60397621Y-28742795D01*
X60488394Y-28878330D01*
X60883376Y-28987379D01*
X61290024Y-28936975D01*
X61431606Y-28878330D01*
X61522379Y-28742795D01*
X60960000Y-28180416D01*
X60397621Y-28742795D01*
X49290000Y-28742795D01*
X49290000Y-28180000D01*
X49220000Y-28110000D01*
X48430000Y-28110000D01*
X48090000Y-28110000D01*
X47300000Y-28110000D01*
X47230000Y-28180000D01*
X46722273Y-28180000D01*
X46767379Y-28016624D01*
X46748384Y-27863376D01*
X59912621Y-27863376D01*
X59963025Y-28270024D01*
X60021670Y-28411606D01*
X60157205Y-28502379D01*
X60719584Y-27940000D01*
X61200416Y-27940000D01*
X61762795Y-28502379D01*
X61898330Y-28411606D01*
X61962273Y-28180000D01*
X62470000Y-28180000D01*
X62470000Y-28745696D01*
X62512628Y-28848608D01*
X62591393Y-28927373D01*
X62694305Y-28970000D01*
X63260000Y-28970000D01*
X63330000Y-28900000D01*
X63330000Y-28110000D01*
X63670000Y-28110000D01*
X63670000Y-28900000D01*
X63740000Y-28970000D01*
X64305695Y-28970000D01*
X64408607Y-28927373D01*
X64487372Y-28848608D01*
X64530000Y-28745696D01*
X64530000Y-28180000D01*
X64460000Y-28110000D01*
X63670000Y-28110000D01*
X63330000Y-28110000D01*
X62540000Y-28110000D01*
X62470000Y-28180000D01*
X61962273Y-28180000D01*
X62007379Y-28016624D01*
X61956975Y-27609976D01*
X61898330Y-27468394D01*
X61762795Y-27377621D01*
X61200416Y-27940000D01*
X60719584Y-27940000D01*
X60157205Y-27377621D01*
X60021670Y-27468394D01*
X59912621Y-27863376D01*
X46748384Y-27863376D01*
X46716975Y-27609976D01*
X46658330Y-27468394D01*
X46522795Y-27377621D01*
X45960416Y-27940000D01*
X45479584Y-27940000D01*
X44917205Y-27377621D01*
X44781670Y-27468394D01*
X44672621Y-27863376D01*
X25567441Y-27863376D01*
X25728114Y-27796987D01*
X25860332Y-27665000D01*
X42799000Y-27665000D01*
X42936766Y-27637597D01*
X43053558Y-27559558D01*
X43475911Y-27137205D01*
X45157621Y-27137205D01*
X45720000Y-27699584D01*
X46282379Y-27137205D01*
X46280437Y-27134304D01*
X47230000Y-27134304D01*
X47230000Y-27700000D01*
X47300000Y-27770000D01*
X48090000Y-27770000D01*
X48090000Y-26980000D01*
X48430000Y-26980000D01*
X48430000Y-27770000D01*
X49220000Y-27770000D01*
X49290000Y-27700000D01*
X49290000Y-27137205D01*
X60397621Y-27137205D01*
X60960000Y-27699584D01*
X61522379Y-27137205D01*
X61520437Y-27134304D01*
X62470000Y-27134304D01*
X62470000Y-27700000D01*
X62540000Y-27770000D01*
X63330000Y-27770000D01*
X63330000Y-26980000D01*
X63670000Y-26980000D01*
X63670000Y-27770000D01*
X64460000Y-27770000D01*
X64530000Y-27700000D01*
X64530000Y-27134304D01*
X64487372Y-27031392D01*
X64408607Y-26952627D01*
X64305695Y-26910000D01*
X63740000Y-26910000D01*
X63670000Y-26980000D01*
X63330000Y-26980000D01*
X63260000Y-26910000D01*
X62694305Y-26910000D01*
X62591393Y-26952627D01*
X62512628Y-27031392D01*
X62470000Y-27134304D01*
X61520437Y-27134304D01*
X61431606Y-27001670D01*
X61036624Y-26892621D01*
X60629976Y-26943025D01*
X60488394Y-27001670D01*
X60397621Y-27137205D01*
X49290000Y-27137205D01*
X49290000Y-27134304D01*
X49247372Y-27031392D01*
X49168607Y-26952627D01*
X49065695Y-26910000D01*
X48500000Y-26910000D01*
X48430000Y-26980000D01*
X48090000Y-26980000D01*
X48020000Y-26910000D01*
X47454305Y-26910000D01*
X47351393Y-26952627D01*
X47272628Y-27031392D01*
X47230000Y-27134304D01*
X46280437Y-27134304D01*
X46191606Y-27001670D01*
X45796624Y-26892621D01*
X45389976Y-26943025D01*
X45248394Y-27001670D01*
X45157621Y-27137205D01*
X43475911Y-27137205D01*
X44472117Y-26141000D01*
X56689843Y-26141000D01*
X56821027Y-26272413D01*
X57034125Y-26360899D01*
X57264863Y-26361101D01*
X57478114Y-26272987D01*
X57641413Y-26109973D01*
X57729899Y-25896875D01*
X57730101Y-25666137D01*
X57663933Y-25506000D01*
X57959843Y-25506000D01*
X58091027Y-25637413D01*
X58304125Y-25725899D01*
X58534863Y-25726101D01*
X58748114Y-25637987D01*
X58911413Y-25474973D01*
X58999899Y-25261875D01*
X59000101Y-25031137D01*
X58911987Y-24817886D01*
X58748973Y-24654587D01*
X58535875Y-24566101D01*
X58305137Y-24565899D01*
X58091886Y-24654013D01*
X57959668Y-24786000D01*
X43942000Y-24786000D01*
X43827090Y-24808857D01*
X43804233Y-24813403D01*
X43687441Y-24891442D01*
X42268884Y-26310000D01*
X27130157Y-26310000D01*
X26998973Y-26178587D01*
X26785875Y-26090101D01*
X26555137Y-26089899D01*
X26341886Y-26178013D01*
X26178587Y-26341027D01*
X26090101Y-26554125D01*
X26089899Y-26784863D01*
X26156067Y-26945000D01*
X25860157Y-26945000D01*
X25728973Y-26813587D01*
X25515875Y-26725101D01*
X25285137Y-26724899D01*
X25071886Y-26813013D01*
X24908587Y-26976027D01*
X24820101Y-27189125D01*
X24819899Y-27419863D01*
X8335000Y-27419863D01*
X8335000Y-23100000D01*
X11670000Y-23100000D01*
X11670000Y-23665696D01*
X11712628Y-23768608D01*
X11791393Y-23847373D01*
X11894305Y-23890000D01*
X12460000Y-23890000D01*
X12530000Y-23820000D01*
X12530000Y-23030000D01*
X12870000Y-23030000D01*
X12870000Y-23820000D01*
X12940000Y-23890000D01*
X13505695Y-23890000D01*
X13608607Y-23847373D01*
X13687372Y-23768608D01*
X13730000Y-23665696D01*
X13730000Y-23662795D01*
X14677621Y-23662795D01*
X14768394Y-23798330D01*
X15163376Y-23907379D01*
X15570024Y-23856975D01*
X15711606Y-23798330D01*
X15802379Y-23662795D01*
X15240000Y-23100416D01*
X14677621Y-23662795D01*
X13730000Y-23662795D01*
X13730000Y-23100000D01*
X13660000Y-23030000D01*
X12870000Y-23030000D01*
X12530000Y-23030000D01*
X11740000Y-23030000D01*
X11670000Y-23100000D01*
X8335000Y-23100000D01*
X8335000Y-22783376D01*
X14192621Y-22783376D01*
X14243025Y-23190024D01*
X14301670Y-23331606D01*
X14437205Y-23422379D01*
X14999584Y-22860000D01*
X15480416Y-22860000D01*
X16042795Y-23422379D01*
X16178330Y-23331606D01*
X16242273Y-23100000D01*
X37070000Y-23100000D01*
X37070000Y-23665696D01*
X37112628Y-23768608D01*
X37191393Y-23847373D01*
X37294305Y-23890000D01*
X37860000Y-23890000D01*
X37930000Y-23820000D01*
X37930000Y-23030000D01*
X38270000Y-23030000D01*
X38270000Y-23820000D01*
X38340000Y-23890000D01*
X38905695Y-23890000D01*
X39008607Y-23847373D01*
X39087372Y-23768608D01*
X39130000Y-23665696D01*
X39130000Y-23662795D01*
X40077621Y-23662795D01*
X40168394Y-23798330D01*
X40563376Y-23907379D01*
X40970024Y-23856975D01*
X41111606Y-23798330D01*
X41202379Y-23662795D01*
X40640000Y-23100416D01*
X40077621Y-23662795D01*
X39130000Y-23662795D01*
X39130000Y-23100000D01*
X39060000Y-23030000D01*
X38270000Y-23030000D01*
X37930000Y-23030000D01*
X37140000Y-23030000D01*
X37070000Y-23100000D01*
X16242273Y-23100000D01*
X16287379Y-22936624D01*
X16268384Y-22783376D01*
X39592621Y-22783376D01*
X39643025Y-23190024D01*
X39701670Y-23331606D01*
X39837205Y-23422379D01*
X40399584Y-22860000D01*
X40880416Y-22860000D01*
X41442795Y-23422379D01*
X41578330Y-23331606D01*
X41642273Y-23100000D01*
X62470000Y-23100000D01*
X62470000Y-23665696D01*
X62512628Y-23768608D01*
X62591393Y-23847373D01*
X62694305Y-23890000D01*
X63260000Y-23890000D01*
X63330000Y-23820000D01*
X63330000Y-23030000D01*
X63670000Y-23030000D01*
X63670000Y-23820000D01*
X63740000Y-23890000D01*
X64305695Y-23890000D01*
X64408607Y-23847373D01*
X64487372Y-23768608D01*
X64530000Y-23665696D01*
X64530000Y-23662795D01*
X65477621Y-23662795D01*
X65568394Y-23798330D01*
X65963376Y-23907379D01*
X66370024Y-23856975D01*
X66511606Y-23798330D01*
X66602379Y-23662795D01*
X66040000Y-23100416D01*
X65477621Y-23662795D01*
X64530000Y-23662795D01*
X64530000Y-23100000D01*
X64460000Y-23030000D01*
X63670000Y-23030000D01*
X63330000Y-23030000D01*
X62540000Y-23030000D01*
X62470000Y-23100000D01*
X41642273Y-23100000D01*
X41687379Y-22936624D01*
X41668384Y-22783376D01*
X64992621Y-22783376D01*
X65043025Y-23190024D01*
X65101670Y-23331606D01*
X65237205Y-23422379D01*
X65799584Y-22860000D01*
X66280416Y-22860000D01*
X66842795Y-23422379D01*
X66978330Y-23331606D01*
X67087379Y-22936624D01*
X67036975Y-22529976D01*
X66978330Y-22388394D01*
X66842795Y-22297621D01*
X66280416Y-22860000D01*
X65799584Y-22860000D01*
X65237205Y-22297621D01*
X65101670Y-22388394D01*
X64992621Y-22783376D01*
X41668384Y-22783376D01*
X41636975Y-22529976D01*
X41578330Y-22388394D01*
X41442795Y-22297621D01*
X40880416Y-22860000D01*
X40399584Y-22860000D01*
X39837205Y-22297621D01*
X39701670Y-22388394D01*
X39592621Y-22783376D01*
X16268384Y-22783376D01*
X16236975Y-22529976D01*
X16178330Y-22388394D01*
X16042795Y-22297621D01*
X15480416Y-22860000D01*
X14999584Y-22860000D01*
X14437205Y-22297621D01*
X14301670Y-22388394D01*
X14192621Y-22783376D01*
X8335000Y-22783376D01*
X8335000Y-22054304D01*
X11670000Y-22054304D01*
X11670000Y-22620000D01*
X11740000Y-22690000D01*
X12530000Y-22690000D01*
X12530000Y-21900000D01*
X12870000Y-21900000D01*
X12870000Y-22690000D01*
X13660000Y-22690000D01*
X13730000Y-22620000D01*
X13730000Y-22057205D01*
X14677621Y-22057205D01*
X15240000Y-22619584D01*
X15802379Y-22057205D01*
X15800437Y-22054304D01*
X37070000Y-22054304D01*
X37070000Y-22620000D01*
X37140000Y-22690000D01*
X37930000Y-22690000D01*
X37930000Y-21900000D01*
X38270000Y-21900000D01*
X38270000Y-22690000D01*
X39060000Y-22690000D01*
X39130000Y-22620000D01*
X39130000Y-22057205D01*
X40077621Y-22057205D01*
X40640000Y-22619584D01*
X41202379Y-22057205D01*
X41200437Y-22054304D01*
X62470000Y-22054304D01*
X62470000Y-22620000D01*
X62540000Y-22690000D01*
X63330000Y-22690000D01*
X63330000Y-21900000D01*
X63670000Y-21900000D01*
X63670000Y-22690000D01*
X64460000Y-22690000D01*
X64530000Y-22620000D01*
X64530000Y-22057205D01*
X65477621Y-22057205D01*
X66040000Y-22619584D01*
X66602379Y-22057205D01*
X66511606Y-21921670D01*
X66116624Y-21812621D01*
X65709976Y-21863025D01*
X65568394Y-21921670D01*
X65477621Y-22057205D01*
X64530000Y-22057205D01*
X64530000Y-22054304D01*
X64487372Y-21951392D01*
X64408607Y-21872627D01*
X64305695Y-21830000D01*
X63740000Y-21830000D01*
X63670000Y-21900000D01*
X63330000Y-21900000D01*
X63260000Y-21830000D01*
X62694305Y-21830000D01*
X62591393Y-21872627D01*
X62512628Y-21951392D01*
X62470000Y-22054304D01*
X41200437Y-22054304D01*
X41111606Y-21921670D01*
X40716624Y-21812621D01*
X40309976Y-21863025D01*
X40168394Y-21921670D01*
X40077621Y-22057205D01*
X39130000Y-22057205D01*
X39130000Y-22054304D01*
X39087372Y-21951392D01*
X39008607Y-21872627D01*
X38905695Y-21830000D01*
X38340000Y-21830000D01*
X38270000Y-21900000D01*
X37930000Y-21900000D01*
X37860000Y-21830000D01*
X37294305Y-21830000D01*
X37191393Y-21872627D01*
X37112628Y-21951392D01*
X37070000Y-22054304D01*
X15800437Y-22054304D01*
X15711606Y-21921670D01*
X15316624Y-21812621D01*
X14909976Y-21863025D01*
X14768394Y-21921670D01*
X14677621Y-22057205D01*
X13730000Y-22057205D01*
X13730000Y-22054304D01*
X13687372Y-21951392D01*
X13608607Y-21872627D01*
X13505695Y-21830000D01*
X12940000Y-21830000D01*
X12870000Y-21900000D01*
X12530000Y-21900000D01*
X12460000Y-21830000D01*
X11894305Y-21830000D01*
X11791393Y-21872627D01*
X11712628Y-21951392D01*
X11670000Y-22054304D01*
X8335000Y-22054304D01*
X8335000Y-20400000D01*
X11669929Y-20400000D01*
X11669821Y-20523981D01*
M02*
