M48
METRIC,TZ
T1C0.300
T2C0.900
T3C1.000
%
G90
G05
T1
X4445Y-29972
X9017Y-29210
X10922Y-40640
X11938Y-40640
X12573Y-15621
X17272Y-30734
X17272Y-31242
X17272Y-31750
X17272Y-34036
X19558Y-28575
X23114Y-31623
X23114Y-32131
X23114Y-32639
X24130Y-36195
X24384Y-13208
X25400Y-27305
X25400Y-36830
X25654Y-11684
X26670Y-26670
X26670Y-39624
X27940Y-34290
X28575Y-20955
X29337Y-19304
X30480Y-29210
X31115Y-19304
X31750Y-28575
X32258Y-33020
X33528Y-19177
X34036Y-30607
X35179Y-22479
X35814Y-13208
X35814Y-18034
X36576Y-28702
X39116Y-34290
X42037Y-18923
X42037Y-30480
X44196Y-34290
X44958Y-15621
X46228Y-37084
X46990Y-34290
X53848Y-15494
X57150Y-17653
X57150Y-25781
X58420Y-15240
X58420Y-25146
X59944Y-17653
X60833Y-20320
X64008Y-15240
X68072Y-18288
X70104Y-33274
T2
X10150Y-8650
X11170Y-6110
X12190Y-8650
X13210Y-6110
X14230Y-8650
X15250Y-6110
X35550Y-8650
X35550Y-42150
X36570Y-6110
X36570Y-39610
X37590Y-8650
X37590Y-42150
X38610Y-6110
X38610Y-39610
X39630Y-8650
X39630Y-42150
X40650Y-6110
X40650Y-39610
X60950Y-8650
X60950Y-42150
X61970Y-6110
X61970Y-39610
X62990Y-8650
X62990Y-42150
X64010Y-6110
X64010Y-39610
X65030Y-8650
X65030Y-42150
X66050Y-6110
X66050Y-39610
T3
X7620Y-34290
X10120Y-34290
X12700Y-17780
X12700Y-20320
X12700Y-22860
X15240Y-17780
X15240Y-20320
X15240Y-22860
X17780Y-38100
X20320Y-38100
X22860Y-38100
X27940Y-15240
X27940Y-17780
X30480Y-15240
X30480Y-17780
X33020Y-15240
X33020Y-17780
X38100Y-17780
X38100Y-20320
X38100Y-22860
X40640Y-17780
X40640Y-20320
X40640Y-22860
X45720Y-27940
X45720Y-30480
X45720Y-33020
X48260Y-27940
X48260Y-30480
X48260Y-33020
X60960Y-27940
X60960Y-30480
X60960Y-33020
X63500Y-17780
X63500Y-20320
X63500Y-22860
X63500Y-27940
X63500Y-30480
X63500Y-33020
X66040Y-17780
X66040Y-20320
X66040Y-22860
T0
M30
