%FSLAX45Y45*%
G04 Gerber Fmt 4.5, Leading zero omitted, Abs format (unit mm)*
G04 Created by KiCad (PCBNEW 4.0.4-stable) date 01/17/17 23:30:22*
%MOMM*%
%LPD*%
G01*
G04 APERTURE LIST*
%ADD10C,0.127000*%
%ADD11C,0.005000*%
%ADD12C,0.200000*%
%ADD13C,0.300000*%
G04 APERTURE END LIST*
D10*
D11*
X7620000Y-4826000D02*
X0Y-4826000D01*
X7620000Y0D02*
X0Y0D01*
X7620000Y0D02*
X7620000Y-4826000D01*
X0Y0D02*
X0Y-4826000D01*
D12*
X429500Y-2982200D02*
X459500Y-3012200D01*
X459500Y-2982200D02*
X429500Y-3012200D01*
X886700Y-2906000D02*
X916700Y-2936000D01*
X916700Y-2906000D02*
X886700Y-2936000D01*
X1077200Y-4049000D02*
X1107200Y-4079000D01*
X1107200Y-4049000D02*
X1077200Y-4079000D01*
X1178800Y-4049000D02*
X1208800Y-4079000D01*
X1208800Y-4049000D02*
X1178800Y-4079000D01*
X1242300Y-1547100D02*
X1272300Y-1577100D01*
X1272300Y-1547100D02*
X1242300Y-1577100D01*
X1712200Y-3058400D02*
X1742200Y-3088400D01*
X1742200Y-3058400D02*
X1712200Y-3088400D01*
X1712200Y-3109200D02*
X1742200Y-3139200D01*
X1742200Y-3109200D02*
X1712200Y-3139200D01*
X1712200Y-3160000D02*
X1742200Y-3190000D01*
X1742200Y-3160000D02*
X1712200Y-3190000D01*
X1712200Y-3388600D02*
X1742200Y-3418600D01*
X1742200Y-3388600D02*
X1712200Y-3418600D01*
X1940800Y-2842500D02*
X1970800Y-2872500D01*
X1970800Y-2842500D02*
X1940800Y-2872500D01*
X2296400Y-3147300D02*
X2326400Y-3177300D01*
X2326400Y-3147300D02*
X2296400Y-3177300D01*
X2296400Y-3198100D02*
X2326400Y-3228100D01*
X2326400Y-3198100D02*
X2296400Y-3228100D01*
X2296400Y-3248900D02*
X2326400Y-3278900D01*
X2326400Y-3248900D02*
X2296400Y-3278900D01*
X2398000Y-3604500D02*
X2428000Y-3634500D01*
X2428000Y-3604500D02*
X2398000Y-3634500D01*
X2423400Y-1305800D02*
X2453400Y-1335800D01*
X2453400Y-1305800D02*
X2423400Y-1335800D01*
X2525000Y-2715500D02*
X2555000Y-2745500D01*
X2555000Y-2715500D02*
X2525000Y-2745500D01*
X2525000Y-3668000D02*
X2555000Y-3698000D01*
X2555000Y-3668000D02*
X2525000Y-3698000D01*
X2550400Y-1153400D02*
X2580400Y-1183400D01*
X2580400Y-1153400D02*
X2550400Y-1183400D01*
X2652000Y-2652000D02*
X2682000Y-2682000D01*
X2682000Y-2652000D02*
X2652000Y-2682000D01*
X2652000Y-3947400D02*
X2682000Y-3977400D01*
X2682000Y-3947400D02*
X2652000Y-3977400D01*
X2779000Y-3414000D02*
X2809000Y-3444000D01*
X2809000Y-3414000D02*
X2779000Y-3444000D01*
X2842500Y-2080500D02*
X2872500Y-2110500D01*
X2872500Y-2080500D02*
X2842500Y-2110500D01*
X2918700Y-1915400D02*
X2948700Y-1945400D01*
X2948700Y-1915400D02*
X2918700Y-1945400D01*
X3033000Y-2906000D02*
X3063000Y-2936000D01*
X3063000Y-2906000D02*
X3033000Y-2936000D01*
X3096500Y-1915400D02*
X3126500Y-1945400D01*
X3126500Y-1915400D02*
X3096500Y-1945400D01*
X3160000Y-2842500D02*
X3190000Y-2872500D01*
X3190000Y-2842500D02*
X3160000Y-2872500D01*
X3210800Y-3287000D02*
X3240800Y-3317000D01*
X3240800Y-3287000D02*
X3210800Y-3317000D01*
X3337800Y-1902700D02*
X3367800Y-1932700D01*
X3367800Y-1902700D02*
X3337800Y-1932700D01*
X3388600Y-3045700D02*
X3418600Y-3075700D01*
X3418600Y-3045700D02*
X3388600Y-3075700D01*
X3502900Y-2232900D02*
X3532900Y-2262900D01*
X3532900Y-2232900D02*
X3502900Y-2262900D01*
X3566400Y-1305800D02*
X3596400Y-1335800D01*
X3596400Y-1305800D02*
X3566400Y-1335800D01*
X3566400Y-1788400D02*
X3596400Y-1818400D01*
X3596400Y-1788400D02*
X3566400Y-1818400D01*
X3642600Y-2855200D02*
X3672600Y-2885200D01*
X3672600Y-2855200D02*
X3642600Y-2885200D01*
X3896600Y-3414000D02*
X3926600Y-3444000D01*
X3926600Y-3414000D02*
X3896600Y-3444000D01*
X4188700Y-1877300D02*
X4218700Y-1907300D01*
X4218700Y-1877300D02*
X4188700Y-1907300D01*
X4188700Y-3033000D02*
X4218700Y-3063000D01*
X4218700Y-3033000D02*
X4188700Y-3063000D01*
X4404600Y-3414000D02*
X4434600Y-3444000D01*
X4434600Y-3414000D02*
X4404600Y-3444000D01*
X4480800Y-1547100D02*
X4510800Y-1577100D01*
X4510800Y-1547100D02*
X4480800Y-1577100D01*
X4607800Y-3693400D02*
X4637800Y-3723400D01*
X4637800Y-3693400D02*
X4607800Y-3723400D01*
X4684000Y-3414000D02*
X4714000Y-3444000D01*
X4714000Y-3414000D02*
X4684000Y-3444000D01*
X5369800Y-1534400D02*
X5399800Y-1564400D01*
X5399800Y-1534400D02*
X5369800Y-1564400D01*
X5700000Y-1750300D02*
X5730000Y-1780300D01*
X5730000Y-1750300D02*
X5700000Y-1780300D01*
X5700000Y-2563100D02*
X5730000Y-2593100D01*
X5730000Y-2563100D02*
X5700000Y-2593100D01*
X5827000Y-1509000D02*
X5857000Y-1539000D01*
X5857000Y-1509000D02*
X5827000Y-1539000D01*
X5827000Y-2499600D02*
X5857000Y-2529600D01*
X5857000Y-2499600D02*
X5827000Y-2529600D01*
X5979400Y-1750300D02*
X6009400Y-1780300D01*
X6009400Y-1750300D02*
X5979400Y-1780300D01*
X6068300Y-2017000D02*
X6098300Y-2047000D01*
X6098300Y-2017000D02*
X6068300Y-2047000D01*
X6385800Y-1509000D02*
X6415800Y-1539000D01*
X6415800Y-1509000D02*
X6385800Y-1539000D01*
X6792200Y-1813800D02*
X6822200Y-1843800D01*
X6822200Y-1813800D02*
X6792200Y-1843800D01*
X6995400Y-3312400D02*
X7025400Y-3342400D01*
X7025400Y-3312400D02*
X6995400Y-3342400D01*
X1060000Y-865000D02*
G75*
G03X1060000Y-865000I-45000J0D01*
G01*
X1162000Y-611000D02*
G75*
G03X1162000Y-611000I-45000J0D01*
G01*
X1264000Y-865000D02*
G75*
G03X1264000Y-865000I-45000J0D01*
G01*
X1366000Y-611000D02*
G75*
G03X1366000Y-611000I-45000J0D01*
G01*
X1468000Y-865000D02*
G75*
G03X1468000Y-865000I-45000J0D01*
G01*
X1570000Y-611000D02*
G75*
G03X1570000Y-611000I-45000J0D01*
G01*
X3600000Y-865000D02*
G75*
G03X3600000Y-865000I-45000J0D01*
G01*
X3600000Y-4215000D02*
G75*
G03X3600000Y-4215000I-45000J0D01*
G01*
X3702000Y-611000D02*
G75*
G03X3702000Y-611000I-45000J0D01*
G01*
X3702000Y-3961000D02*
G75*
G03X3702000Y-3961000I-45000J0D01*
G01*
X3804000Y-865000D02*
G75*
G03X3804000Y-865000I-45000J0D01*
G01*
X3804000Y-4215000D02*
G75*
G03X3804000Y-4215000I-45000J0D01*
G01*
X3906000Y-611000D02*
G75*
G03X3906000Y-611000I-45000J0D01*
G01*
X3906000Y-3961000D02*
G75*
G03X3906000Y-3961000I-45000J0D01*
G01*
X4008000Y-865000D02*
G75*
G03X4008000Y-865000I-45000J0D01*
G01*
X4008000Y-4215000D02*
G75*
G03X4008000Y-4215000I-45000J0D01*
G01*
X4110000Y-611000D02*
G75*
G03X4110000Y-611000I-45000J0D01*
G01*
X4110000Y-3961000D02*
G75*
G03X4110000Y-3961000I-45000J0D01*
G01*
X6140000Y-865000D02*
G75*
G03X6140000Y-865000I-45000J0D01*
G01*
X6140000Y-4215000D02*
G75*
G03X6140000Y-4215000I-45000J0D01*
G01*
X6242000Y-611000D02*
G75*
G03X6242000Y-611000I-45000J0D01*
G01*
X6242000Y-3961000D02*
G75*
G03X6242000Y-3961000I-45000J0D01*
G01*
X6344000Y-865000D02*
G75*
G03X6344000Y-865000I-45000J0D01*
G01*
X6344000Y-4215000D02*
G75*
G03X6344000Y-4215000I-45000J0D01*
G01*
X6446000Y-611000D02*
G75*
G03X6446000Y-611000I-45000J0D01*
G01*
X6446000Y-3961000D02*
G75*
G03X6446000Y-3961000I-45000J0D01*
G01*
X6548000Y-865000D02*
G75*
G03X6548000Y-865000I-45000J0D01*
G01*
X6548000Y-4215000D02*
G75*
G03X6548000Y-4215000I-45000J0D01*
G01*
X6650000Y-611000D02*
G75*
G03X6650000Y-611000I-45000J0D01*
G01*
X6650000Y-3961000D02*
G75*
G03X6650000Y-3961000I-45000J0D01*
G01*
X762000Y-3379000D02*
X762000Y-3479000D01*
X712000Y-3429000D02*
X812000Y-3429000D01*
X1012000Y-3379000D02*
X1012000Y-3479000D01*
X962000Y-3429000D02*
X1062000Y-3429000D01*
X1270000Y-1728000D02*
X1270000Y-1828000D01*
X1220000Y-1778000D02*
X1320000Y-1778000D01*
X1270000Y-1982000D02*
X1270000Y-2082000D01*
X1220000Y-2032000D02*
X1320000Y-2032000D01*
X1270000Y-2236000D02*
X1270000Y-2336000D01*
X1220000Y-2286000D02*
X1320000Y-2286000D01*
X1524000Y-1728000D02*
X1524000Y-1828000D01*
X1474000Y-1778000D02*
X1574000Y-1778000D01*
X1524000Y-1982000D02*
X1524000Y-2082000D01*
X1474000Y-2032000D02*
X1574000Y-2032000D01*
X1524000Y-2236000D02*
X1524000Y-2336000D01*
X1474000Y-2286000D02*
X1574000Y-2286000D01*
X1778000Y-3760000D02*
X1778000Y-3860000D01*
X1728000Y-3810000D02*
X1828000Y-3810000D01*
X2032000Y-3760000D02*
X2032000Y-3860000D01*
X1982000Y-3810000D02*
X2082000Y-3810000D01*
X2286000Y-3760000D02*
X2286000Y-3860000D01*
X2236000Y-3810000D02*
X2336000Y-3810000D01*
X2794000Y-1474000D02*
X2794000Y-1574000D01*
X2744000Y-1524000D02*
X2844000Y-1524000D01*
X2794000Y-1728000D02*
X2794000Y-1828000D01*
X2744000Y-1778000D02*
X2844000Y-1778000D01*
X3048000Y-1474000D02*
X3048000Y-1574000D01*
X2998000Y-1524000D02*
X3098000Y-1524000D01*
X3048000Y-1728000D02*
X3048000Y-1828000D01*
X2998000Y-1778000D02*
X3098000Y-1778000D01*
X3302000Y-1474000D02*
X3302000Y-1574000D01*
X3252000Y-1524000D02*
X3352000Y-1524000D01*
X3302000Y-1728000D02*
X3302000Y-1828000D01*
X3252000Y-1778000D02*
X3352000Y-1778000D01*
X3810000Y-1728000D02*
X3810000Y-1828000D01*
X3760000Y-1778000D02*
X3860000Y-1778000D01*
X3810000Y-1982000D02*
X3810000Y-2082000D01*
X3760000Y-2032000D02*
X3860000Y-2032000D01*
X3810000Y-2236000D02*
X3810000Y-2336000D01*
X3760000Y-2286000D02*
X3860000Y-2286000D01*
X4064000Y-1728000D02*
X4064000Y-1828000D01*
X4014000Y-1778000D02*
X4114000Y-1778000D01*
X4064000Y-1982000D02*
X4064000Y-2082000D01*
X4014000Y-2032000D02*
X4114000Y-2032000D01*
X4064000Y-2236000D02*
X4064000Y-2336000D01*
X4014000Y-2286000D02*
X4114000Y-2286000D01*
X4572000Y-2744000D02*
X4572000Y-2844000D01*
X4522000Y-2794000D02*
X4622000Y-2794000D01*
X4572000Y-2998000D02*
X4572000Y-3098000D01*
X4522000Y-3048000D02*
X4622000Y-3048000D01*
X4572000Y-3252000D02*
X4572000Y-3352000D01*
X4522000Y-3302000D02*
X4622000Y-3302000D01*
X4826000Y-2744000D02*
X4826000Y-2844000D01*
X4776000Y-2794000D02*
X4876000Y-2794000D01*
X4826000Y-2998000D02*
X4826000Y-3098000D01*
X4776000Y-3048000D02*
X4876000Y-3048000D01*
X4826000Y-3252000D02*
X4826000Y-3352000D01*
X4776000Y-3302000D02*
X4876000Y-3302000D01*
X6096000Y-2744000D02*
X6096000Y-2844000D01*
X6046000Y-2794000D02*
X6146000Y-2794000D01*
X6096000Y-2998000D02*
X6096000Y-3098000D01*
X6046000Y-3048000D02*
X6146000Y-3048000D01*
X6096000Y-3252000D02*
X6096000Y-3352000D01*
X6046000Y-3302000D02*
X6146000Y-3302000D01*
X6350000Y-1728000D02*
X6350000Y-1828000D01*
X6300000Y-1778000D02*
X6400000Y-1778000D01*
X6350000Y-1982000D02*
X6350000Y-2082000D01*
X6300000Y-2032000D02*
X6400000Y-2032000D01*
X6350000Y-2236000D02*
X6350000Y-2336000D01*
X6300000Y-2286000D02*
X6400000Y-2286000D01*
X6350000Y-2744000D02*
X6350000Y-2844000D01*
X6300000Y-2794000D02*
X6400000Y-2794000D01*
X6350000Y-2998000D02*
X6350000Y-3098000D01*
X6300000Y-3048000D02*
X6400000Y-3048000D01*
X6350000Y-3252000D02*
X6350000Y-3352000D01*
X6300000Y-3302000D02*
X6400000Y-3302000D01*
X6604000Y-1728000D02*
X6604000Y-1828000D01*
X6554000Y-1778000D02*
X6654000Y-1778000D01*
X6604000Y-1982000D02*
X6604000Y-2082000D01*
X6554000Y-2032000D02*
X6654000Y-2032000D01*
X6604000Y-2236000D02*
X6604000Y-2336000D01*
X6554000Y-2286000D02*
X6654000Y-2286000D01*
D13*
X271179Y-5291964D02*
X271179Y-4991964D01*
X342607Y-4991964D01*
X385464Y-5006250D01*
X414036Y-5034822D01*
X428321Y-5063393D01*
X442607Y-5120536D01*
X442607Y-5163393D01*
X428321Y-5220536D01*
X414036Y-5249107D01*
X385464Y-5277679D01*
X342607Y-5291964D01*
X271179Y-5291964D01*
X571179Y-5291964D02*
X571179Y-5091964D01*
X571179Y-5149107D02*
X585464Y-5120536D01*
X599750Y-5106250D01*
X628321Y-5091964D01*
X656893Y-5091964D01*
X756893Y-5291964D02*
X756893Y-5091964D01*
X756893Y-4991964D02*
X742607Y-5006250D01*
X756893Y-5020536D01*
X771178Y-5006250D01*
X756893Y-4991964D01*
X756893Y-5020536D01*
X942607Y-5291964D02*
X914036Y-5277679D01*
X899750Y-5249107D01*
X899750Y-4991964D01*
X1099750Y-5291964D02*
X1071179Y-5277679D01*
X1056893Y-5249107D01*
X1056893Y-4991964D01*
X1442607Y-5291964D02*
X1442607Y-4991964D01*
X1542607Y-5206250D01*
X1642607Y-4991964D01*
X1642607Y-5291964D01*
X1914036Y-5291964D02*
X1914036Y-5134822D01*
X1899750Y-5106250D01*
X1871178Y-5091964D01*
X1814036Y-5091964D01*
X1785464Y-5106250D01*
X1914036Y-5277679D02*
X1885464Y-5291964D01*
X1814036Y-5291964D01*
X1785464Y-5277679D01*
X1771178Y-5249107D01*
X1771178Y-5220536D01*
X1785464Y-5191964D01*
X1814036Y-5177679D01*
X1885464Y-5177679D01*
X1914036Y-5163393D01*
X2056893Y-5091964D02*
X2056893Y-5391964D01*
X2056893Y-5106250D02*
X2085464Y-5091964D01*
X2142607Y-5091964D01*
X2171179Y-5106250D01*
X2185464Y-5120536D01*
X2199750Y-5149107D01*
X2199750Y-5234822D01*
X2185464Y-5263393D01*
X2171179Y-5277679D01*
X2142607Y-5291964D01*
X2085464Y-5291964D01*
X2056893Y-5277679D01*
X2328321Y-5263393D02*
X2342607Y-5277679D01*
X2328321Y-5291964D01*
X2314036Y-5277679D01*
X2328321Y-5263393D01*
X2328321Y-5291964D01*
X2328321Y-5106250D02*
X2342607Y-5120536D01*
X2328321Y-5134822D01*
X2314036Y-5120536D01*
X2328321Y-5106250D01*
X2328321Y-5134822D01*
X-30250Y-5771250D02*
X-250Y-5801250D01*
X-250Y-5771250D02*
X-30250Y-5801250D01*
X328321Y-5621964D02*
X356893Y-5621964D01*
X385464Y-5636250D01*
X399750Y-5650536D01*
X414036Y-5679107D01*
X428321Y-5736250D01*
X428321Y-5807679D01*
X414036Y-5864821D01*
X399750Y-5893393D01*
X385464Y-5907679D01*
X356893Y-5921964D01*
X328321Y-5921964D01*
X299750Y-5907679D01*
X285464Y-5893393D01*
X271179Y-5864821D01*
X256893Y-5807679D01*
X256893Y-5736250D01*
X271179Y-5679107D01*
X285464Y-5650536D01*
X299750Y-5636250D01*
X328321Y-5621964D01*
X556893Y-5893393D02*
X571179Y-5907679D01*
X556893Y-5921964D01*
X542607Y-5907679D01*
X556893Y-5893393D01*
X556893Y-5921964D01*
X671178Y-5621964D02*
X856893Y-5621964D01*
X756893Y-5736250D01*
X799750Y-5736250D01*
X828321Y-5750536D01*
X842607Y-5764821D01*
X856893Y-5793393D01*
X856893Y-5864821D01*
X842607Y-5893393D01*
X828321Y-5907679D01*
X799750Y-5921964D01*
X714036Y-5921964D01*
X685464Y-5907679D01*
X671178Y-5893393D01*
X1042607Y-5621964D02*
X1071179Y-5621964D01*
X1099750Y-5636250D01*
X1114036Y-5650536D01*
X1128321Y-5679107D01*
X1142607Y-5736250D01*
X1142607Y-5807679D01*
X1128321Y-5864821D01*
X1114036Y-5893393D01*
X1099750Y-5907679D01*
X1071179Y-5921964D01*
X1042607Y-5921964D01*
X1014036Y-5907679D01*
X999750Y-5893393D01*
X985464Y-5864821D01*
X971178Y-5807679D01*
X971178Y-5736250D01*
X985464Y-5679107D01*
X999750Y-5650536D01*
X1014036Y-5636250D01*
X1042607Y-5621964D01*
X1271179Y-5921964D02*
X1271179Y-5721964D01*
X1271179Y-5750536D02*
X1285464Y-5736250D01*
X1314036Y-5721964D01*
X1356893Y-5721964D01*
X1385464Y-5736250D01*
X1399750Y-5764821D01*
X1399750Y-5921964D01*
X1399750Y-5764821D02*
X1414036Y-5736250D01*
X1442607Y-5721964D01*
X1485464Y-5721964D01*
X1514036Y-5736250D01*
X1528321Y-5764821D01*
X1528321Y-5921964D01*
X1671178Y-5921964D02*
X1671178Y-5721964D01*
X1671178Y-5750536D02*
X1685464Y-5736250D01*
X1714036Y-5721964D01*
X1756893Y-5721964D01*
X1785464Y-5736250D01*
X1799750Y-5764821D01*
X1799750Y-5921964D01*
X1799750Y-5764821D02*
X1814036Y-5736250D01*
X1842607Y-5721964D01*
X1885464Y-5721964D01*
X1914036Y-5736250D01*
X1928321Y-5764821D01*
X1928321Y-5921964D01*
X2514036Y-5607679D02*
X2256893Y-5993393D01*
X2899750Y-5621964D02*
X2928321Y-5621964D01*
X2956893Y-5636250D01*
X2971178Y-5650536D01*
X2985464Y-5679107D01*
X2999750Y-5736250D01*
X2999750Y-5807679D01*
X2985464Y-5864821D01*
X2971178Y-5893393D01*
X2956893Y-5907679D01*
X2928321Y-5921964D01*
X2899750Y-5921964D01*
X2871178Y-5907679D01*
X2856893Y-5893393D01*
X2842607Y-5864821D01*
X2828321Y-5807679D01*
X2828321Y-5736250D01*
X2842607Y-5679107D01*
X2856893Y-5650536D01*
X2871178Y-5636250D01*
X2899750Y-5621964D01*
X3128321Y-5893393D02*
X3142607Y-5907679D01*
X3128321Y-5921964D01*
X3114036Y-5907679D01*
X3128321Y-5893393D01*
X3128321Y-5921964D01*
X3328321Y-5621964D02*
X3356893Y-5621964D01*
X3385464Y-5636250D01*
X3399750Y-5650536D01*
X3414035Y-5679107D01*
X3428321Y-5736250D01*
X3428321Y-5807679D01*
X3414035Y-5864821D01*
X3399750Y-5893393D01*
X3385464Y-5907679D01*
X3356893Y-5921964D01*
X3328321Y-5921964D01*
X3299750Y-5907679D01*
X3285464Y-5893393D01*
X3271178Y-5864821D01*
X3256893Y-5807679D01*
X3256893Y-5736250D01*
X3271178Y-5679107D01*
X3285464Y-5650536D01*
X3299750Y-5636250D01*
X3328321Y-5621964D01*
X3714035Y-5921964D02*
X3542607Y-5921964D01*
X3628321Y-5921964D02*
X3628321Y-5621964D01*
X3599750Y-5664821D01*
X3571178Y-5693393D01*
X3542607Y-5707679D01*
X3828321Y-5650536D02*
X3842607Y-5636250D01*
X3871178Y-5621964D01*
X3942607Y-5621964D01*
X3971178Y-5636250D01*
X3985464Y-5650536D01*
X3999750Y-5679107D01*
X3999750Y-5707679D01*
X3985464Y-5750536D01*
X3814035Y-5921964D01*
X3999750Y-5921964D01*
X4114036Y-5621964D02*
X4114036Y-5679107D01*
X4228321Y-5621964D02*
X4228321Y-5679107D01*
X4671178Y-6036250D02*
X4656893Y-6021964D01*
X4628321Y-5979107D01*
X4614036Y-5950536D01*
X4599750Y-5907679D01*
X4585464Y-5836250D01*
X4585464Y-5779107D01*
X4599750Y-5707679D01*
X4614036Y-5664821D01*
X4628321Y-5636250D01*
X4656893Y-5593393D01*
X4671178Y-5579107D01*
X4928321Y-5621964D02*
X4785464Y-5621964D01*
X4771178Y-5764821D01*
X4785464Y-5750536D01*
X4814036Y-5736250D01*
X4885464Y-5736250D01*
X4914036Y-5750536D01*
X4928321Y-5764821D01*
X4942607Y-5793393D01*
X4942607Y-5864821D01*
X4928321Y-5893393D01*
X4914036Y-5907679D01*
X4885464Y-5921964D01*
X4814036Y-5921964D01*
X4785464Y-5907679D01*
X4771178Y-5893393D01*
X5128321Y-5621964D02*
X5156893Y-5621964D01*
X5185464Y-5636250D01*
X5199750Y-5650536D01*
X5214036Y-5679107D01*
X5228321Y-5736250D01*
X5228321Y-5807679D01*
X5214036Y-5864821D01*
X5199750Y-5893393D01*
X5185464Y-5907679D01*
X5156893Y-5921964D01*
X5128321Y-5921964D01*
X5099750Y-5907679D01*
X5085464Y-5893393D01*
X5071178Y-5864821D01*
X5056893Y-5807679D01*
X5056893Y-5736250D01*
X5071178Y-5679107D01*
X5085464Y-5650536D01*
X5099750Y-5636250D01*
X5128321Y-5621964D01*
X5585464Y-5921964D02*
X5585464Y-5621964D01*
X5714035Y-5921964D02*
X5714035Y-5764821D01*
X5699750Y-5736250D01*
X5671178Y-5721964D01*
X5628321Y-5721964D01*
X5599750Y-5736250D01*
X5585464Y-5750536D01*
X5899750Y-5921964D02*
X5871178Y-5907679D01*
X5856893Y-5893393D01*
X5842607Y-5864821D01*
X5842607Y-5779107D01*
X5856893Y-5750536D01*
X5871178Y-5736250D01*
X5899750Y-5721964D01*
X5942607Y-5721964D01*
X5971178Y-5736250D01*
X5985464Y-5750536D01*
X5999750Y-5779107D01*
X5999750Y-5864821D01*
X5985464Y-5893393D01*
X5971178Y-5907679D01*
X5942607Y-5921964D01*
X5899750Y-5921964D01*
X6171178Y-5921964D02*
X6142607Y-5907679D01*
X6128321Y-5879107D01*
X6128321Y-5621964D01*
X6399750Y-5907679D02*
X6371178Y-5921964D01*
X6314036Y-5921964D01*
X6285464Y-5907679D01*
X6271178Y-5879107D01*
X6271178Y-5764821D01*
X6285464Y-5736250D01*
X6314036Y-5721964D01*
X6371178Y-5721964D01*
X6399750Y-5736250D01*
X6414036Y-5764821D01*
X6414036Y-5793393D01*
X6271178Y-5821964D01*
X6528321Y-5907679D02*
X6556893Y-5921964D01*
X6614036Y-5921964D01*
X6642607Y-5907679D01*
X6656893Y-5879107D01*
X6656893Y-5864821D01*
X6642607Y-5836250D01*
X6614036Y-5821964D01*
X6571178Y-5821964D01*
X6542607Y-5807679D01*
X6528321Y-5779107D01*
X6528321Y-5764821D01*
X6542607Y-5736250D01*
X6571178Y-5721964D01*
X6614036Y-5721964D01*
X6642607Y-5736250D01*
X6756893Y-6036250D02*
X6771178Y-6021964D01*
X6799750Y-5979107D01*
X6814036Y-5950536D01*
X6828321Y-5907679D01*
X6842607Y-5836250D01*
X6842607Y-5779107D01*
X6828321Y-5707679D01*
X6814036Y-5664821D01*
X6799750Y-5636250D01*
X6771178Y-5593393D01*
X6756893Y-5579107D01*
X-250Y-6182250D02*
G75*
G03X-250Y-6182250I-45000J0D01*
G01*
X328321Y-6017964D02*
X356893Y-6017964D01*
X385464Y-6032250D01*
X399750Y-6046536D01*
X414036Y-6075107D01*
X428321Y-6132250D01*
X428321Y-6203679D01*
X414036Y-6260821D01*
X399750Y-6289393D01*
X385464Y-6303679D01*
X356893Y-6317964D01*
X328321Y-6317964D01*
X299750Y-6303679D01*
X285464Y-6289393D01*
X271179Y-6260821D01*
X256893Y-6203679D01*
X256893Y-6132250D01*
X271179Y-6075107D01*
X285464Y-6046536D01*
X299750Y-6032250D01*
X328321Y-6017964D01*
X556893Y-6289393D02*
X571179Y-6303679D01*
X556893Y-6317964D01*
X542607Y-6303679D01*
X556893Y-6289393D01*
X556893Y-6317964D01*
X714036Y-6317964D02*
X771178Y-6317964D01*
X799750Y-6303679D01*
X814036Y-6289393D01*
X842607Y-6246536D01*
X856893Y-6189393D01*
X856893Y-6075107D01*
X842607Y-6046536D01*
X828321Y-6032250D01*
X799750Y-6017964D01*
X742607Y-6017964D01*
X714036Y-6032250D01*
X699750Y-6046536D01*
X685464Y-6075107D01*
X685464Y-6146536D01*
X699750Y-6175107D01*
X714036Y-6189393D01*
X742607Y-6203679D01*
X799750Y-6203679D01*
X828321Y-6189393D01*
X842607Y-6175107D01*
X856893Y-6146536D01*
X1042607Y-6017964D02*
X1071179Y-6017964D01*
X1099750Y-6032250D01*
X1114036Y-6046536D01*
X1128321Y-6075107D01*
X1142607Y-6132250D01*
X1142607Y-6203679D01*
X1128321Y-6260821D01*
X1114036Y-6289393D01*
X1099750Y-6303679D01*
X1071179Y-6317964D01*
X1042607Y-6317964D01*
X1014036Y-6303679D01*
X999750Y-6289393D01*
X985464Y-6260821D01*
X971178Y-6203679D01*
X971178Y-6132250D01*
X985464Y-6075107D01*
X999750Y-6046536D01*
X1014036Y-6032250D01*
X1042607Y-6017964D01*
X1271179Y-6317964D02*
X1271179Y-6117964D01*
X1271179Y-6146536D02*
X1285464Y-6132250D01*
X1314036Y-6117964D01*
X1356893Y-6117964D01*
X1385464Y-6132250D01*
X1399750Y-6160821D01*
X1399750Y-6317964D01*
X1399750Y-6160821D02*
X1414036Y-6132250D01*
X1442607Y-6117964D01*
X1485464Y-6117964D01*
X1514036Y-6132250D01*
X1528321Y-6160821D01*
X1528321Y-6317964D01*
X1671178Y-6317964D02*
X1671178Y-6117964D01*
X1671178Y-6146536D02*
X1685464Y-6132250D01*
X1714036Y-6117964D01*
X1756893Y-6117964D01*
X1785464Y-6132250D01*
X1799750Y-6160821D01*
X1799750Y-6317964D01*
X1799750Y-6160821D02*
X1814036Y-6132250D01*
X1842607Y-6117964D01*
X1885464Y-6117964D01*
X1914036Y-6132250D01*
X1928321Y-6160821D01*
X1928321Y-6317964D01*
X2514036Y-6003679D02*
X2256893Y-6389393D01*
X2899750Y-6017964D02*
X2928321Y-6017964D01*
X2956893Y-6032250D01*
X2971178Y-6046536D01*
X2985464Y-6075107D01*
X2999750Y-6132250D01*
X2999750Y-6203679D01*
X2985464Y-6260821D01*
X2971178Y-6289393D01*
X2956893Y-6303679D01*
X2928321Y-6317964D01*
X2899750Y-6317964D01*
X2871178Y-6303679D01*
X2856893Y-6289393D01*
X2842607Y-6260821D01*
X2828321Y-6203679D01*
X2828321Y-6132250D01*
X2842607Y-6075107D01*
X2856893Y-6046536D01*
X2871178Y-6032250D01*
X2899750Y-6017964D01*
X3128321Y-6289393D02*
X3142607Y-6303679D01*
X3128321Y-6317964D01*
X3114036Y-6303679D01*
X3128321Y-6289393D01*
X3128321Y-6317964D01*
X3328321Y-6017964D02*
X3356893Y-6017964D01*
X3385464Y-6032250D01*
X3399750Y-6046536D01*
X3414035Y-6075107D01*
X3428321Y-6132250D01*
X3428321Y-6203679D01*
X3414035Y-6260821D01*
X3399750Y-6289393D01*
X3385464Y-6303679D01*
X3356893Y-6317964D01*
X3328321Y-6317964D01*
X3299750Y-6303679D01*
X3285464Y-6289393D01*
X3271178Y-6260821D01*
X3256893Y-6203679D01*
X3256893Y-6132250D01*
X3271178Y-6075107D01*
X3285464Y-6046536D01*
X3299750Y-6032250D01*
X3328321Y-6017964D01*
X3528321Y-6017964D02*
X3714035Y-6017964D01*
X3614035Y-6132250D01*
X3656893Y-6132250D01*
X3685464Y-6146536D01*
X3699750Y-6160821D01*
X3714035Y-6189393D01*
X3714035Y-6260821D01*
X3699750Y-6289393D01*
X3685464Y-6303679D01*
X3656893Y-6317964D01*
X3571178Y-6317964D01*
X3542607Y-6303679D01*
X3528321Y-6289393D01*
X3985464Y-6017964D02*
X3842607Y-6017964D01*
X3828321Y-6160821D01*
X3842607Y-6146536D01*
X3871178Y-6132250D01*
X3942607Y-6132250D01*
X3971178Y-6146536D01*
X3985464Y-6160821D01*
X3999750Y-6189393D01*
X3999750Y-6260821D01*
X3985464Y-6289393D01*
X3971178Y-6303679D01*
X3942607Y-6317964D01*
X3871178Y-6317964D01*
X3842607Y-6303679D01*
X3828321Y-6289393D01*
X4114036Y-6017964D02*
X4114036Y-6075107D01*
X4228321Y-6017964D02*
X4228321Y-6075107D01*
X4671178Y-6432250D02*
X4656893Y-6417964D01*
X4628321Y-6375107D01*
X4614036Y-6346536D01*
X4599750Y-6303679D01*
X4585464Y-6232250D01*
X4585464Y-6175107D01*
X4599750Y-6103679D01*
X4614036Y-6060821D01*
X4628321Y-6032250D01*
X4656893Y-5989393D01*
X4671178Y-5975107D01*
X4756893Y-6017964D02*
X4942607Y-6017964D01*
X4842607Y-6132250D01*
X4885464Y-6132250D01*
X4914036Y-6146536D01*
X4928321Y-6160821D01*
X4942607Y-6189393D01*
X4942607Y-6260821D01*
X4928321Y-6289393D01*
X4914036Y-6303679D01*
X4885464Y-6317964D01*
X4799750Y-6317964D01*
X4771178Y-6303679D01*
X4756893Y-6289393D01*
X5128321Y-6017964D02*
X5156893Y-6017964D01*
X5185464Y-6032250D01*
X5199750Y-6046536D01*
X5214036Y-6075107D01*
X5228321Y-6132250D01*
X5228321Y-6203679D01*
X5214036Y-6260821D01*
X5199750Y-6289393D01*
X5185464Y-6303679D01*
X5156893Y-6317964D01*
X5128321Y-6317964D01*
X5099750Y-6303679D01*
X5085464Y-6289393D01*
X5071178Y-6260821D01*
X5056893Y-6203679D01*
X5056893Y-6132250D01*
X5071178Y-6075107D01*
X5085464Y-6046536D01*
X5099750Y-6032250D01*
X5128321Y-6017964D01*
X5585464Y-6317964D02*
X5585464Y-6017964D01*
X5714035Y-6317964D02*
X5714035Y-6160821D01*
X5699750Y-6132250D01*
X5671178Y-6117964D01*
X5628321Y-6117964D01*
X5599750Y-6132250D01*
X5585464Y-6146536D01*
X5899750Y-6317964D02*
X5871178Y-6303679D01*
X5856893Y-6289393D01*
X5842607Y-6260821D01*
X5842607Y-6175107D01*
X5856893Y-6146536D01*
X5871178Y-6132250D01*
X5899750Y-6117964D01*
X5942607Y-6117964D01*
X5971178Y-6132250D01*
X5985464Y-6146536D01*
X5999750Y-6175107D01*
X5999750Y-6260821D01*
X5985464Y-6289393D01*
X5971178Y-6303679D01*
X5942607Y-6317964D01*
X5899750Y-6317964D01*
X6171178Y-6317964D02*
X6142607Y-6303679D01*
X6128321Y-6275107D01*
X6128321Y-6017964D01*
X6399750Y-6303679D02*
X6371178Y-6317964D01*
X6314036Y-6317964D01*
X6285464Y-6303679D01*
X6271178Y-6275107D01*
X6271178Y-6160821D01*
X6285464Y-6132250D01*
X6314036Y-6117964D01*
X6371178Y-6117964D01*
X6399750Y-6132250D01*
X6414036Y-6160821D01*
X6414036Y-6189393D01*
X6271178Y-6217964D01*
X6528321Y-6303679D02*
X6556893Y-6317964D01*
X6614036Y-6317964D01*
X6642607Y-6303679D01*
X6656893Y-6275107D01*
X6656893Y-6260821D01*
X6642607Y-6232250D01*
X6614036Y-6217964D01*
X6571178Y-6217964D01*
X6542607Y-6203679D01*
X6528321Y-6175107D01*
X6528321Y-6160821D01*
X6542607Y-6132250D01*
X6571178Y-6117964D01*
X6614036Y-6117964D01*
X6642607Y-6132250D01*
X6756893Y-6432250D02*
X6771178Y-6417964D01*
X6799750Y-6375107D01*
X6814036Y-6346536D01*
X6828321Y-6303679D01*
X6842607Y-6232250D01*
X6842607Y-6175107D01*
X6828321Y-6103679D01*
X6814036Y-6060821D01*
X6799750Y-6032250D01*
X6771178Y-5989393D01*
X6756893Y-5975107D01*
X-50250Y-6528250D02*
X-50250Y-6628250D01*
X-100250Y-6578250D02*
X-250Y-6578250D01*
X428321Y-6713964D02*
X256893Y-6713964D01*
X342607Y-6713964D02*
X342607Y-6413964D01*
X314036Y-6456821D01*
X285464Y-6485393D01*
X256893Y-6499679D01*
X556893Y-6685393D02*
X571179Y-6699679D01*
X556893Y-6713964D01*
X542607Y-6699679D01*
X556893Y-6685393D01*
X556893Y-6713964D01*
X756893Y-6413964D02*
X785464Y-6413964D01*
X814036Y-6428250D01*
X828321Y-6442536D01*
X842607Y-6471107D01*
X856893Y-6528250D01*
X856893Y-6599679D01*
X842607Y-6656821D01*
X828321Y-6685393D01*
X814036Y-6699679D01*
X785464Y-6713964D01*
X756893Y-6713964D01*
X728321Y-6699679D01*
X714036Y-6685393D01*
X699750Y-6656821D01*
X685464Y-6599679D01*
X685464Y-6528250D01*
X699750Y-6471107D01*
X714036Y-6442536D01*
X728321Y-6428250D01*
X756893Y-6413964D01*
X1042607Y-6413964D02*
X1071179Y-6413964D01*
X1099750Y-6428250D01*
X1114036Y-6442536D01*
X1128321Y-6471107D01*
X1142607Y-6528250D01*
X1142607Y-6599679D01*
X1128321Y-6656821D01*
X1114036Y-6685393D01*
X1099750Y-6699679D01*
X1071179Y-6713964D01*
X1042607Y-6713964D01*
X1014036Y-6699679D01*
X999750Y-6685393D01*
X985464Y-6656821D01*
X971178Y-6599679D01*
X971178Y-6528250D01*
X985464Y-6471107D01*
X999750Y-6442536D01*
X1014036Y-6428250D01*
X1042607Y-6413964D01*
X1271179Y-6713964D02*
X1271179Y-6513964D01*
X1271179Y-6542536D02*
X1285464Y-6528250D01*
X1314036Y-6513964D01*
X1356893Y-6513964D01*
X1385464Y-6528250D01*
X1399750Y-6556821D01*
X1399750Y-6713964D01*
X1399750Y-6556821D02*
X1414036Y-6528250D01*
X1442607Y-6513964D01*
X1485464Y-6513964D01*
X1514036Y-6528250D01*
X1528321Y-6556821D01*
X1528321Y-6713964D01*
X1671178Y-6713964D02*
X1671178Y-6513964D01*
X1671178Y-6542536D02*
X1685464Y-6528250D01*
X1714036Y-6513964D01*
X1756893Y-6513964D01*
X1785464Y-6528250D01*
X1799750Y-6556821D01*
X1799750Y-6713964D01*
X1799750Y-6556821D02*
X1814036Y-6528250D01*
X1842607Y-6513964D01*
X1885464Y-6513964D01*
X1914036Y-6528250D01*
X1928321Y-6556821D01*
X1928321Y-6713964D01*
X2514036Y-6399679D02*
X2256893Y-6785393D01*
X2899750Y-6413964D02*
X2928321Y-6413964D01*
X2956893Y-6428250D01*
X2971178Y-6442536D01*
X2985464Y-6471107D01*
X2999750Y-6528250D01*
X2999750Y-6599679D01*
X2985464Y-6656821D01*
X2971178Y-6685393D01*
X2956893Y-6699679D01*
X2928321Y-6713964D01*
X2899750Y-6713964D01*
X2871178Y-6699679D01*
X2856893Y-6685393D01*
X2842607Y-6656821D01*
X2828321Y-6599679D01*
X2828321Y-6528250D01*
X2842607Y-6471107D01*
X2856893Y-6442536D01*
X2871178Y-6428250D01*
X2899750Y-6413964D01*
X3128321Y-6685393D02*
X3142607Y-6699679D01*
X3128321Y-6713964D01*
X3114036Y-6699679D01*
X3128321Y-6685393D01*
X3128321Y-6713964D01*
X3328321Y-6413964D02*
X3356893Y-6413964D01*
X3385464Y-6428250D01*
X3399750Y-6442536D01*
X3414035Y-6471107D01*
X3428321Y-6528250D01*
X3428321Y-6599679D01*
X3414035Y-6656821D01*
X3399750Y-6685393D01*
X3385464Y-6699679D01*
X3356893Y-6713964D01*
X3328321Y-6713964D01*
X3299750Y-6699679D01*
X3285464Y-6685393D01*
X3271178Y-6656821D01*
X3256893Y-6599679D01*
X3256893Y-6528250D01*
X3271178Y-6471107D01*
X3285464Y-6442536D01*
X3299750Y-6428250D01*
X3328321Y-6413964D01*
X3528321Y-6413964D02*
X3714035Y-6413964D01*
X3614035Y-6528250D01*
X3656893Y-6528250D01*
X3685464Y-6542536D01*
X3699750Y-6556821D01*
X3714035Y-6585393D01*
X3714035Y-6656821D01*
X3699750Y-6685393D01*
X3685464Y-6699679D01*
X3656893Y-6713964D01*
X3571178Y-6713964D01*
X3542607Y-6699679D01*
X3528321Y-6685393D01*
X3856893Y-6713964D02*
X3914035Y-6713964D01*
X3942607Y-6699679D01*
X3956893Y-6685393D01*
X3985464Y-6642536D01*
X3999750Y-6585393D01*
X3999750Y-6471107D01*
X3985464Y-6442536D01*
X3971178Y-6428250D01*
X3942607Y-6413964D01*
X3885464Y-6413964D01*
X3856893Y-6428250D01*
X3842607Y-6442536D01*
X3828321Y-6471107D01*
X3828321Y-6542536D01*
X3842607Y-6571107D01*
X3856893Y-6585393D01*
X3885464Y-6599679D01*
X3942607Y-6599679D01*
X3971178Y-6585393D01*
X3985464Y-6571107D01*
X3999750Y-6542536D01*
X4114036Y-6413964D02*
X4114036Y-6471107D01*
X4228321Y-6413964D02*
X4228321Y-6471107D01*
X4671178Y-6828250D02*
X4656893Y-6813964D01*
X4628321Y-6771107D01*
X4614036Y-6742536D01*
X4599750Y-6699679D01*
X4585464Y-6628250D01*
X4585464Y-6571107D01*
X4599750Y-6499679D01*
X4614036Y-6456821D01*
X4628321Y-6428250D01*
X4656893Y-6385393D01*
X4671178Y-6371107D01*
X4914036Y-6513964D02*
X4914036Y-6713964D01*
X4842607Y-6399679D02*
X4771178Y-6613964D01*
X4956893Y-6613964D01*
X5228321Y-6713964D02*
X5056893Y-6713964D01*
X5142607Y-6713964D02*
X5142607Y-6413964D01*
X5114036Y-6456821D01*
X5085464Y-6485393D01*
X5056893Y-6499679D01*
X5585464Y-6713964D02*
X5585464Y-6413964D01*
X5714035Y-6713964D02*
X5714035Y-6556821D01*
X5699750Y-6528250D01*
X5671178Y-6513964D01*
X5628321Y-6513964D01*
X5599750Y-6528250D01*
X5585464Y-6542536D01*
X5899750Y-6713964D02*
X5871178Y-6699679D01*
X5856893Y-6685393D01*
X5842607Y-6656821D01*
X5842607Y-6571107D01*
X5856893Y-6542536D01*
X5871178Y-6528250D01*
X5899750Y-6513964D01*
X5942607Y-6513964D01*
X5971178Y-6528250D01*
X5985464Y-6542536D01*
X5999750Y-6571107D01*
X5999750Y-6656821D01*
X5985464Y-6685393D01*
X5971178Y-6699679D01*
X5942607Y-6713964D01*
X5899750Y-6713964D01*
X6171178Y-6713964D02*
X6142607Y-6699679D01*
X6128321Y-6671107D01*
X6128321Y-6413964D01*
X6399750Y-6699679D02*
X6371178Y-6713964D01*
X6314036Y-6713964D01*
X6285464Y-6699679D01*
X6271178Y-6671107D01*
X6271178Y-6556821D01*
X6285464Y-6528250D01*
X6314036Y-6513964D01*
X6371178Y-6513964D01*
X6399750Y-6528250D01*
X6414036Y-6556821D01*
X6414036Y-6585393D01*
X6271178Y-6613964D01*
X6528321Y-6699679D02*
X6556893Y-6713964D01*
X6614036Y-6713964D01*
X6642607Y-6699679D01*
X6656893Y-6671107D01*
X6656893Y-6656821D01*
X6642607Y-6628250D01*
X6614036Y-6613964D01*
X6571178Y-6613964D01*
X6542607Y-6599679D01*
X6528321Y-6571107D01*
X6528321Y-6556821D01*
X6542607Y-6528250D01*
X6571178Y-6513964D01*
X6614036Y-6513964D01*
X6642607Y-6528250D01*
X6756893Y-6828250D02*
X6771178Y-6813964D01*
X6799750Y-6771107D01*
X6814036Y-6742536D01*
X6828321Y-6699679D01*
X6842607Y-6628250D01*
X6842607Y-6571107D01*
X6828321Y-6499679D01*
X6814036Y-6456821D01*
X6799750Y-6428250D01*
X6771178Y-6385393D01*
X6756893Y-6371107D01*
M02*
