M48
METRIC,TZ
T1C1.100
T2C2.200
T3C2.400
%
G90
G05
T1
X6020Y-36290
T2
X2540Y-2540
X2540Y-45720
X22860Y-2540
X22860Y-45720
X27940Y-2540
X27940Y-45720
X48260Y-2540
X48260Y-45720
X53340Y-2540
X53340Y-45720
X73660Y-2540
X73660Y-45720
T3
X6700Y-3810
X18700Y-3810
X32100Y-3810
X32100Y-44450
X44100Y-3810
X44100Y-44450
X57500Y-3810
X57500Y-44450
X69500Y-3810
X69500Y-44450
T0
M30
